<svg width="620" height="745" viewBox="0 0 620 745" fill="none" xmlns="http://www.w3.org/2000/svg">
<g clip-path="url(#clip0_1_18717)">
<g clip-path="url(#clip1_1_18717)">
<g clip-path="url(#clip2_1_18717)">
<path d="M2.36627 394.65C11.6179 400.586 21.8458 400.829 31.9709 401.362C51.228 402.383 70.1425 399.537 88.8156 395.431C100.357 392.892 111.653 389.203 122.983 385.802C138.923 381.027 154.552 375.334 169.565 368.208C184.499 361.119 198.91 353.083 211.618 342.35C225.106 330.969 235.285 317.21 241.188 300.686C243.186 295.099 243.391 288.849 244.163 282.872C244.456 280.573 242.708 281.492 241.663 281.921C237.109 283.799 232.551 285.675 228.053 287.686C222.901 289.982 217.848 292.511 212.684 294.783C203.492 298.828 194.285 302.839 185.022 306.717C173.697 311.488 161.707 314.522 149.461 315.716C139.067 316.734 128.888 315.238 119.549 310.567C112.292 306.945 106.842 301.402 104.91 293.19C104.167 290.044 103.18 286.895 102.941 283.698C102.265 274.896 106.885 267.964 112.142 261.668C118.947 253.513 128.135 248.497 137.922 244.618C158.694 236.349 180.258 235.936 202.128 238.424C209.45 239.251 216.596 240.448 223.562 242.966C233.26 246.47 240.957 252.109 245.616 261.429C246.243 262.681 247.077 263.832 247.712 265.085C249.524 268.68 249.512 268.717 253.211 267.056C261.078 263.511 269.005 260.068 276.769 256.307C280.507 254.496 283.92 252.022 287.52 249.907C289.24 248.896 291.04 248.023 292.811 247.092C300.714 242.935 308.66 238.84 316.507 234.585C318.265 233.637 319.689 232.094 321.406 231.057C324.797 229.019 328.34 227.239 331.709 225.191C337.427 221.716 343.136 218.194 348.704 214.513C351.221 212.845 353.312 210.554 355.803 208.838C359.745 206.113 363.976 203.842 367.811 201.006C372.271 197.744 376.416 194.05 380.762 190.628C388.659 184.42 396.677 178.364 404.506 172.074C410.448 167.304 416.251 162.361 421.975 157.331C428.349 151.732 434.547 145.922 440.862 140.254C442.924 138.406 445.289 136.87 447.238 134.921C450.688 131.47 453.899 127.791 457.258 124.256C460.192 121.155 463.253 118.14 466.216 115.048C473.594 107.345 480.944 99.6387 488.27 91.9285C489.526 90.613 490.566 89.0569 491.973 87.9461C492.952 87.1407 495.091 86.1944 495.522 86.5933C497.026 87.9667 498.598 89.7506 499.064 91.6431C499.79 94.604 498.005 96.6912 495.266 98.1518C493.925 98.8642 492.982 100.313 491.89 101.453C486.048 107.553 480.177 113.629 474.379 119.775C468.221 126.292 462.324 133.063 455.949 139.362C451.566 143.656 446.544 147.32 441.877 151.349C434.395 157.805 427.04 164.404 419.512 170.797C413.329 176.046 406.953 181.064 400.698 186.229C399.47 187.24 398.514 188.575 397.286 189.526C390.419 194.852 383.62 200.266 376.579 205.351C367.055 212.235 357.412 218.958 347.653 225.52C342.68 228.846 337.378 231.698 332.132 234.607C322.811 239.786 313.398 244.796 304.068 249.956C295.368 254.77 286.742 259.728 278.034 264.541C270.337 268.81 262.605 273.023 254.837 277.18C253.279 278.011 252.328 278.856 252.457 280.785C253.394 294.782 249.097 307.454 242.133 319.345C235.564 330.563 227.767 340.933 217.624 349.198C211.86 353.818 205.736 357.977 199.307 361.635C190.31 366.844 180.951 371.44 171.796 376.388C170.599 377.031 169.855 378.561 168.643 379.08C162.438 381.729 156.226 384.403 149.873 386.66C137.92 390.903 125.877 394.904 113.835 398.96C101.322 403.168 88.4426 405.802 75.4461 408.107C63.3626 410.267 51.1312 411.516 38.857 411.844C28.1993 412.12 17.7497 410.325 7.48124 407.516C3.00721 406.305 -0.528063 401.709 0.0651664 397.937C0.262235 396.836 1.46391 395.9 2.36627 394.65ZM121.356 263.54C119.65 265.631 116.092 269.308 113.263 273.483C110.714 277.241 109.348 281.767 110.599 286.296C113.038 295.121 118.818 300.967 127.697 303.809C138.344 307.217 149.099 306.752 159.671 304.106C169.16 301.735 178.481 298.619 187.745 295.452C195.335 292.855 202.722 289.693 210.201 286.797C213.795 285.407 217.483 284.228 220.982 282.643C227.453 279.726 233.786 276.52 240.246 273.571C242.148 272.69 242.499 271.681 241.678 269.876C238.084 262.017 232.225 256.407 224.322 252.947C217.114 249.778 209.533 248.212 201.685 247.326C191.737 246.187 181.827 245.531 171.84 246.606C162.324 247.634 152.955 248.884 143.736 251.808C136.276 254.173 129.588 257.549 121.356 263.54Z" fill="#36ED81"/>
<path d="M586.143 104.153C584.256 105.137 582.641 104.465 581.229 103.201C577.673 100.008 579.035 96.4589 580.656 93.4432C589.036 77.9586 596.39 52.6576 601.679 35.9953C603.859 29.14 605.708 22.1871 607.74 15.2883C608.359 13.2029 607.802 12.3583 605.472 12.5832C594.658 13.6195 583.827 14.572 572.999 15.5434C566.312 16.1411 507.086 23.8455 500.408 24.5526C497.697 24.8439 486.157 27.2443 483.457 27.6713C482.396 27.8589 480.8 28.091 480.237 27.5264C478.788 26.0795 476.578 24.8139 477.419 22.0786C478.513 18.5579 479.861 17.6476 483.792 17.3032C488.809 16.8599 502.684 14.4784 507.699 14.0161C512.953 13.5345 570.789 6.25689 576.027 5.63153C581.524 4.97749 586.97 3.83183 592.439 2.99546C599.42 1.92285 606.399 0.741517 613.422 0.0173471C614.6 -0.0674262 615.772 0.250732 616.743 0.918717C617.713 1.58671 618.423 2.56415 618.755 3.68816C619.413 6.03999 619.8 8.81277 619.182 11.1041C616.614 20.6648 613.698 30.1414 610.767 39.5903C605.494 56.6099 597.63 82.0775 589.572 98.0447C588.505 100.138 587.284 102.123 586.143 104.153Z" fill="#36ED81"/>
<path fill-rule="evenodd" clip-rule="evenodd" d="M608.49 6.02069C609.991 8.21878 609.41 11.2066 607.192 12.6942L567.188 38.7255C567.047 38.8198 566.902 38.9067 566.751 38.9859L531.309 58.5209C530.978 58.696 530.665 58.9034 530.375 59.14C530.138 59.3339 530.169 59.7034 530.436 59.8552L553.418 72.9251C554.223 73.3552 554.987 73.8557 555.701 74.4205L586.889 98.269C588.983 99.9238 589.326 102.948 587.657 105.023C585.987 107.098 582.936 107.439 580.843 105.784L565.966 93.2246L553.278 83.8798C552.292 83.1539 550.785 83.774 549.99 84.7029C549.903 84.8048 549.812 84.904 549.715 85L533.377 101.193C530.543 104 526.007 104.173 522.965 101.589C521.484 100.331 520.543 98.5618 520.332 96.6406L516.412 60.8956C516.235 59.2857 516.888 57.6961 518.15 56.6666L524.21 51.7205C524.997 51.0784 525.846 50.5155 526.745 50.0401L561.964 31.4249L601.757 4.73423C603.974 3.24664 606.989 3.82261 608.49 6.02069ZM529.151 88.1025C529.298 89.4397 530.942 90.0133 531.901 89.0621L542.858 78.2036C543.108 77.9545 543.078 77.5163 542.765 77.3491L529.757 70.3944C528.611 69.7817 527.242 70.6946 527.383 71.9773L529.151 88.1025Z" fill="#36ED81"/>
<path fill-rule="evenodd" clip-rule="evenodd" d="M479.97 21.6051C481.713 19.5898 484.774 19.3565 486.808 21.0838L498.183 30.7475L507.79 39.4756L516.519 46.1602C518.638 47.7831 519.028 50.8012 517.391 52.9014C515.753 55.0016 512.708 55.3885 510.589 53.7656L501.538 46.8339L491.749 37.9408L480.495 28.3814C478.463 26.6541 478.227 23.6203 479.97 21.6051Z" fill="#36ED81"/>
</g>
</g>
</g>
<defs>
<clipPath id="clip0_1_18717">
<rect width="619.22" height="744.671" fill="white" transform="scale(1.00044)"/>
</clipPath>
<clipPath id="clip1_1_18717">
<rect width="619.22" height="411.69" fill="white" transform="scale(1.00044)"/>
</clipPath>
<clipPath id="clip2_1_18717">
<rect width="619.22" height="411.685" fill="white" transform="translate(0 0.00390797) scale(1.00044)"/>
</clipPath>
</defs>
</svg>
