<svg width="16" height="16" viewBox="0 0 16 16" fill="none" xmlns="http://www.w3.org/2000/svg">
<path fill-rule="evenodd" clip-rule="evenodd" d="M7.27258 6.54531C6.87091 6.54531 6.54531 6.87091 6.54531 7.27258V13.818C6.54531 14.2197 6.87091 14.5453 7.27258 14.5453H13.818C14.2197 14.5453 14.5453 14.2197 14.5453 13.818V7.27258C14.5453 6.87091 14.2197 6.54531 13.818 6.54531H7.27258ZM5.09077 7.27258C5.09077 6.06761 6.06761 5.09077 7.27258 5.09077H13.818C15.023 5.09077 15.9998 6.06761 15.9998 7.27258V13.818C15.9998 15.023 15.023 15.9998 13.818 15.9998H7.27258C6.06761 15.9998 5.09077 15.023 5.09077 13.818V7.27258Z" fill="#51BE8C"/>
<path fill-rule="evenodd" clip-rule="evenodd" d="M2.18181 1.45454C1.98892 1.45454 1.80394 1.53116 1.66755 1.66755C1.53116 1.80394 1.45454 1.98892 1.45454 2.18181V8.72724C1.45454 8.92011 1.53116 9.10513 1.66755 9.24149C1.80394 9.37785 1.98892 9.45451 2.18181 9.45451H2.90908C3.31074 9.45451 3.63635 9.7801 3.63635 10.1818C3.63635 10.5834 3.31074 10.909 2.90908 10.909H2.18181C1.60316 10.909 1.04821 10.6792 0.639037 10.27C0.229868 9.86083 0 9.30585 0 8.72724V2.18181C0 1.60316 0.229868 1.04821 0.639037 0.639037C1.04821 0.229868 1.60316 0 2.18181 0H8.72724C9.30585 0 9.86083 0.229868 10.27 0.639037C10.6792 1.04821 10.909 1.60316 10.909 2.18181V2.90908C10.909 3.31074 10.5834 3.63635 10.1818 3.63635C9.7801 3.63635 9.45451 3.31074 9.45451 2.90908V2.18181C9.45451 1.98892 9.37785 1.80394 9.24149 1.66755C9.10513 1.53116 8.92011 1.45454 8.72724 1.45454H2.18181Z" fill="#51BE8C"/>
</svg>
