<svg width="92" height="117" viewBox="0 0 92 117" fill="none" xmlns="http://www.w3.org/2000/svg">
<path d="M52.4031 116.797C52.0972 116.945 51.7325 116.899 51.4745 116.678C51.2165 116.457 51.1145 116.104 51.2138 115.778C52.8106 112.32 54.3587 108.836 55.9621 105.38C61.3041 93.8718 66.6463 82.3645 71.987 70.8573C72.7874 70.5135 73.5885 70.1709 74.3912 69.832L73.0096 68.6516C72.6685 69.3865 72.3281 70.1223 71.987 70.8573C70.0451 71.6914 68.1093 72.5384 66.1812 73.4013C56.5983 77.6966 47.2035 82.3581 37.9969 87.3857C37.5715 87.5875 37.064 87.4878 36.7483 87.139C36.4327 86.7901 36.3829 86.2746 36.6256 85.871L41.5711 76.863C46.9479 67.1356 52.3254 57.4102 57.7023 47.6859C58.5498 47.4068 59.398 47.1296 60.2482 46.8591L59.0921 45.1707C58.6287 46.0089 58.1658 46.8478 57.7023 47.6859C55.9178 48.2738 54.1383 48.8787 52.3659 49.5052C43.2134 52.7505 34.2352 56.4695 25.4673 60.6466C25.0017 60.8685 24.4462 60.7586 24.1003 60.3768C23.7544 59.9947 23.6998 59.431 23.9662 58.9891C28.7914 50.9872 33.6155 42.9841 38.4384 34.9805C39.5368 34.5748 40.631 34.1558 41.7187 33.7206L40.206 32.0469C39.6168 33.0248 39.0277 34.0027 38.4384 34.9805C32.8527 37.0433 27.1325 38.7243 21.3165 40.0088C20.8545 40.0933 20.3863 39.8988 20.1209 39.5117C19.8555 39.1244 19.8424 38.6168 20.0873 38.2157C23.2213 34.3062 25.9071 30.0592 28.0973 25.5563C28.6824 25.5862 29.2675 25.6147 29.8526 25.6446L28.7909 24.0876C28.5658 24.5802 28.334 25.0696 28.0973 25.5563C25.6476 25.4315 23.198 25.3068 20.7483 25.1843L18.5669 25.0779C17.9511 25.1133 17.3334 25.071 16.7284 24.9517C16.0889 24.5648 15.5535 24.0276 15.1679 23.3872L13.9663 21.9509C12.3183 19.9665 10.7143 17.9457 9.15561 15.8881C7.13912 13.22 5.19423 10.5036 3.31788 7.74196C3.39913 8.76194 3.47204 9.78118 3.5513 10.8014C3.58956 11.317 3.61409 11.837 3.66861 12.3528C3.78757 12.9238 3.72219 13.5129 3.4827 14.0303C3.3276 14.2724 3.05679 14.4089 2.7701 14.3895C2.4836 14.3699 2.22363 14.1975 2.0849 13.9356C1.81448 13.3983 1.69646 12.7981 1.74454 12.2053L1.64653 10.655C1.57662 9.53591 1.50131 8.41646 1.43898 7.29629L1.29307 4.70291C0.902896 4.10527 0.51517 3.50598 0.131393 2.90406C-0.0409036 2.5567 -0.0434369 2.14898 0.124693 1.79919C0.292962 1.44934 0.61314 1.19574 0.992253 1.1133C1.06505 1.09744 1.13857 1.08542 1.2115 1.07077C1.22315 0.912995 1.23612 0.75489 1.25233 0.597593L1.25983 0.603674C1.25661 0.658255 1.25614 0.714176 1.26674 0.77074C1.27636 0.866715 1.28005 0.962552 1.27978 1.05794C1.41488 1.03152 1.54997 1.00638 1.68549 0.984106L1.25983 0.603674C1.27686 0.314635 1.47481 0.0672628 1.76345 0.0110305C2.10662 -0.0557983 2.44869 0.171916 2.53497 0.524259C2.56221 0.636968 2.58785 0.75001 2.6128 0.863147C5.1299 0.624856 7.67471 1.08761 9.95791 2.21995C10.5375 2.59808 10.706 3.37228 10.3365 3.95834C9.94806 4.52586 9.18497 4.69331 8.59591 4.34015C6.94925 3.56058 5.1431 3.20948 3.34221 3.30408C7.71658 10.0463 12.5032 16.5116 17.6742 22.6642C17.5048 22.6552 17.3351 22.6466 17.1657 22.6375L17.9726 23.0215C17.8726 22.9031 17.7739 22.7828 17.6742 22.6642C21.7788 22.8818 25.8852 23.0703 29.9927 23.2652C30.3596 23.2899 30.6947 23.4816 30.9019 23.7853C31.1089 24.0889 31.1658 24.471 31.0553 24.8219C29.127 29.1023 26.7633 33.1704 24.0045 36.9622C22.954 37.2193 21.9002 37.4648 20.843 37.6948L22.0735 39.4905C22.7371 38.6623 23.3808 37.8193 24.0045 36.9622C29.6706 35.5755 35.236 33.7973 40.6584 31.6367C41.128 31.416 41.6867 31.5275 42.0347 31.9118C42.3828 32.2964 42.4381 32.864 42.1719 33.3099C37.4105 41.1963 32.6494 49.0838 27.8874 56.9719C26.7262 57.4993 25.5683 58.0338 24.4159 58.5802L25.9144 60.2391C26.572 59.1499 27.2299 58.061 27.8874 56.9719C29.2632 56.3469 30.6442 55.7327 32.0307 55.1296C41.1059 51.1792 50.3758 47.6917 59.8033 44.6813C60.2374 44.6065 60.6747 44.7921 60.9234 45.1553C61.172 45.5186 61.1865 45.9932 60.9603 46.3714C59.3014 49.3674 57.6421 52.3625 55.9817 55.3556C50.7356 64.8529 45.4714 74.3407 40.1903 83.8189C39.1369 84.375 38.0853 84.9341 37.0371 85.4993L38.4101 87.0131C39.0038 85.9486 39.597 84.8837 40.1903 83.8189C41.7766 82.9813 43.3681 82.1518 44.9662 81.3347C54.3148 76.5538 63.8261 72.1356 73.4998 68.0801C74.1927 67.7871 75.2775 68.4113 74.88 69.2579L70.0369 79.6279C64.7001 91.0003 59.3635 102.372 54.0261 113.744C53.2284 114.257 52.4309 114.771 51.6331 115.284L52.8251 116.301C53.2253 115.448 53.6259 114.596 54.0261 113.744C56.1395 112.384 58.2534 111.023 60.3668 109.661C70.607 103.069 80.8173 96.4279 91.124 89.9393C91.819 89.4998 92.364 90.625 91.6989 91.0691C88.8122 92.9932 85.9294 94.9148 83.0261 96.8116C72.8177 103.472 62.61 110.134 52.4031 116.797ZM3.34221 3.30408C3.19688 3.08008 3.05272 2.85532 2.90829 2.6307C2.93478 2.86375 2.95519 3.09736 2.9721 3.33114C3.09545 3.32045 3.21876 3.31056 3.34221 3.30408Z" fill="#FFD5CE"/>
</svg>
