<svg width="37" height="30" viewBox="0 0 37 30" fill="none" xmlns="http://www.w3.org/2000/svg">
<path d="M0.970965 1.00002V0C0.713449 0 0.466481 0.105359 0.284389 0.292899C0.102298 0.480439 0 0.734797 0 1.00002H0.970965ZM35.9257 1.00002H36.8967C36.8967 0.734797 36.7944 0.480439 36.6123 0.292899C36.4302 0.105359 36.1832 0 35.9257 0V1.00002ZM0.970965 2.00004H35.9257V0H0.970965V2.00004ZM34.9548 1.00002V25.0005H36.8967V1.00002H34.9548ZM32.0419 28.0005H4.85483V30.0006H32.0419V28.0005ZM1.94193 25.0005V1.00002H0V25.0005H1.94193ZM4.85483 28.0005C4.08228 28.0005 3.34137 27.6844 2.7951 27.1218C2.24882 26.5592 1.94193 25.7961 1.94193 25.0005H0C0 26.3266 0.511489 27.5984 1.42195 28.5361C2.3324 29.4738 3.56725 30.0006 4.85483 30.0006V28.0005ZM34.9548 25.0005C34.9548 25.7961 34.6479 26.5592 34.1016 27.1218C33.5553 27.6844 32.8144 28.0005 32.0419 28.0005V30.0006C33.3294 30.0006 34.5643 29.4738 35.4747 28.5361C36.3852 27.5984 36.8967 26.3266 36.8967 25.0005H34.9548Z" fill="black"/>
<path d="M0.971096 1.00052L18.4485 19.0009L35.9258 1.00052" stroke="black" stroke-width="1.00445" stroke-linecap="round" stroke-linejoin="round"/>
</svg>
