<svg width="79" height="90" viewBox="0 0 79 90" fill="none" xmlns="http://www.w3.org/2000/svg">
<path d="M20.1169 0.182844C21.6711 0.548532 23.4081 0.822798 24.8708 1.46275C31.9103 4.20541 36.7557 11.1535 36.6643 18.5587C36.6643 23.1298 35.0187 27.1523 32.1846 30.6264C30.1733 33.0948 27.9792 35.3803 25.7851 37.6659C25.5108 37.9401 25.2365 38.123 24.8708 38.3972C29.2591 40.7742 31.8189 43.974 31.3618 49.0936C32.3674 49.4593 33.4645 49.825 34.4701 50.1907C41.0525 52.3848 47.6349 54.5789 54.2173 56.7731C54.6744 56.9559 55.0401 56.9559 55.4058 56.5902C58.697 53.5733 62.6281 52.5677 67.0164 52.9333C69.3934 53.1162 71.6789 53.8476 73.6902 55.2189C80.2726 59.5157 80.0897 67.6523 73.3245 71.7663C68.1134 74.8746 61.0739 74.5089 56.1372 70.8521C55.9543 70.6692 55.4972 70.5778 55.2229 70.6692C50.7433 72.5891 46.1722 74.6003 41.6925 76.6116C41.6011 76.6116 41.6011 76.7031 41.6925 76.7945C41.6925 78.0744 41.8753 79.2629 41.6925 80.5428C41.2354 84.0168 39.1327 86.4852 36.1157 88.0394C30.8133 90.782 25.4194 90.6906 20.2997 87.4909C13.7174 83.2854 13.9916 75.1489 20.6654 71.1263C25.8765 67.9265 33.0988 68.2922 37.9442 72.0405C38.127 72.2234 38.5841 72.3148 38.8584 72.2234C43.4295 70.3035 47.9092 68.2922 52.4803 66.281C52.5717 66.281 52.5717 66.1895 52.5717 66.1895C52.4803 64.8182 52.3889 63.4469 52.2974 61.9841C52.1146 61.8927 51.8403 61.8013 51.5661 61.7099C44.2523 59.2415 36.8471 56.8645 29.5334 54.3961C28.9848 54.2132 28.6191 54.3047 28.162 54.6704C24.8708 57.5959 20.9397 58.6015 16.6429 58.2358C13.9916 58.053 11.6146 57.1388 9.42052 55.676C3.9352 51.3792 3.75235 44.1568 9.23767 39.9514C9.96905 39.4029 10.7004 38.9458 11.6146 38.3972C11.4318 38.123 11.1575 37.9401 10.9747 37.6659C8.41488 35.106 5.85506 32.5462 3.75235 29.5293C1.37538 26.0553 -0.0873723 22.2155 0.00404975 18.0101C0.0954718 9.1422 7.22639 1.27991 16.0029 0.182844C16.1857 0.182844 16.3686 0.091422 16.5514 0C17.7399 0.182844 18.9284 0.182844 20.1169 0.182844ZM18.3799 37.8487C21.3054 34.7404 24.2309 31.7234 27.065 28.7065C27.6135 28.158 28.0706 27.4266 28.5277 26.7866C30.539 23.7697 31.9103 20.4785 31.2704 16.7302C29.899 7.4966 19.2027 1.73702 10.7918 7.95371C6.67786 10.9706 4.66657 15.1761 5.39795 20.2957C5.85506 23.6783 7.59208 26.5124 9.7862 28.9808C12.6203 31.9977 15.4544 34.8318 18.3799 37.8487ZM65.6451 68.4751C67.6563 68.3837 69.6676 68.018 71.3132 66.7381C74.1473 64.7268 74.1473 61.7098 71.3132 59.6986C68.1134 57.413 62.9024 57.413 59.7026 59.79C56.96 61.8013 56.96 64.7268 59.7026 66.7381C61.5311 68.018 63.4509 68.4751 65.6451 68.4751ZM28.8934 84.3825C30.9961 84.2911 32.916 83.834 34.653 82.6455C37.3956 80.6342 37.3956 77.6173 34.653 75.606C31.4532 73.229 26.1507 73.3204 22.951 75.6974C20.2997 77.7087 20.2997 80.5428 22.951 82.5541C24.688 83.9254 26.6993 84.3825 28.8934 84.3825ZM18.3799 46.9909C17.4657 45.6196 16.6429 44.4311 15.8201 43.1512C15.5458 42.6941 15.2715 42.6027 14.8144 42.7855C13.9916 43.2426 13.0774 43.6083 12.346 44.1568C9.78621 46.1681 9.87763 48.9108 12.4374 50.9221C13.8088 51.9277 15.3629 52.5677 17.1 52.6591C20.1169 52.9333 22.951 52.3848 25.1451 50.0993C26.6079 48.5451 26.6993 46.4424 25.1451 44.9796C24.2309 44.1568 23.0424 43.6083 21.9453 42.8769C21.4882 42.6027 21.1225 42.7855 20.8483 43.2426C20.1169 44.4311 19.2941 45.6196 18.3799 46.9909Z" fill="#2C2762"/>
<path d="M26.2427 18.6496C26.2427 23.0379 22.6772 26.5119 18.2889 26.5119C13.9921 26.5119 10.4267 22.9465 10.5181 18.6496C10.5181 14.3528 14.0835 10.7874 18.4718 10.7874C22.6772 10.7874 26.2427 14.3528 26.2427 18.6496ZM18.3804 21.3009C19.7517 21.3009 20.9402 20.1124 20.9402 18.6496C20.9402 17.1869 19.6603 15.9984 18.1975 16.0898C16.8262 16.1813 15.6377 17.3697 15.6377 18.7411C15.8206 20.1124 17.009 21.3009 18.3804 21.3009Z" fill="#2C2762"/>
</svg>
