<svg width="210" height="210" viewBox="0 0 210 210" fill="none" xmlns="http://www.w3.org/2000/svg">
<g filter="url(#filter0_d_1_8603)">
<circle cx="105" cy="105" r="64.9295" fill="white"/>
</g>
<path d="M151.264 71.4972C151.264 90.6972 151.264 109.991 151.264 129.191C151.17 129.285 151.17 129.285 151.077 129.378C150.14 132.001 148.548 133.125 145.832 133.125C143.584 133.125 141.336 133.125 139.088 133.125C137.777 133.125 136.466 133.125 135.155 133.125C134.405 133.125 133.937 132.75 133.75 132.094C133.656 131.439 133.843 130.97 134.405 130.689C134.78 130.502 135.155 130.502 135.529 130.502C138.995 130.502 142.554 130.502 146.019 130.502C147.33 130.502 148.267 129.847 148.361 128.723C148.454 127.224 148.361 125.726 148.361 124.321C119.607 124.321 90.8542 124.321 62.0073 124.321C62.0073 124.695 62.0073 125.07 62.0073 125.445C61.9137 130.315 62.101 130.596 67.0649 130.502C87.2951 130.502 107.619 130.502 127.849 130.502C128.224 130.502 128.505 130.502 128.88 130.502C129.629 130.596 130.097 131.064 130.097 131.813C130.097 132.563 129.629 133.031 128.88 133.125C128.599 133.125 128.318 133.125 128.037 133.125C123.822 133.125 119.607 133.125 115.393 133.125C115.112 133.125 114.737 133.125 114.362 133.125C114.362 136.309 114.362 139.493 114.362 142.678C116.517 142.678 118.577 142.678 120.638 142.678C121.762 142.678 122.792 143.146 123.354 144.083C124.197 145.488 124.103 147.08 123.447 148.578C122.792 149.983 121.481 150.264 120.076 150.264C110.054 150.264 100.126 150.264 90.1049 150.264C89.7303 150.264 89.3556 150.264 89.0747 150.264C87.7634 150.077 86.6395 149.047 86.4522 147.735C86.3586 147.08 86.3586 146.518 86.3586 145.862C86.4522 143.989 87.7634 142.771 89.6366 142.771C91.0415 142.771 92.54 142.771 93.9449 142.771C94.6005 142.771 95.2561 142.771 95.9117 142.771C95.9117 139.493 95.9117 136.403 95.9117 133.218C95.5371 133.218 95.1625 133.218 94.7878 133.218C84.7664 133.218 74.7449 133.218 64.7234 133.218C61.0707 133.218 59.1039 131.251 59.1039 127.599C59.1039 109.429 59.1039 91.2592 59.1039 73.0894C59.1039 72.7148 59.1039 72.4338 59.1039 72.0592C59.1976 70.3733 60.4151 68.8748 62.0073 68.5001C62.6629 68.3128 63.3185 68.3128 63.9741 68.3128C86.2649 68.3128 108.649 68.3128 130.94 68.3128C131.877 68.3128 132.626 68.0318 133.282 67.3762C135.717 65.3157 137.777 63.1616 139.931 61.1011C141.243 59.7899 142.928 59.7899 144.24 61.0074C145.176 61.944 146.206 62.8806 147.049 63.8172C148.08 64.9411 148.173 66.4396 147.237 67.6572C147.143 67.8445 147.049 67.9382 146.862 68.2192C147.424 68.3128 147.892 68.4065 148.361 68.5001C149.953 69.0621 150.702 70.186 151.264 71.4972ZM62.101 121.511C90.9478 121.511 119.701 121.511 148.548 121.511C148.548 121.136 148.548 120.949 148.548 120.668C148.548 104.746 148.548 88.9177 148.548 72.9958C148.548 72.7148 148.642 72.4338 148.548 72.2465C148.361 71.8718 148.08 71.3099 147.705 71.2162C145.738 70.3733 143.49 71.2162 142.179 73.1831C142.928 73.1831 143.678 73.1831 144.333 73.1831C145.457 73.2767 146.3 73.9323 146.487 75.1499C146.581 75.5245 146.581 75.9928 146.581 76.3675C146.581 88.6367 146.581 101 146.581 113.269C146.581 114.58 146.581 115.798 146.581 117.109C146.581 118.701 145.644 119.544 144.146 119.544C143.959 119.544 143.865 119.544 143.678 119.544C118.203 119.544 92.7273 119.544 67.2522 119.544C66.9712 119.544 66.6902 119.544 66.3156 119.544C65.1917 119.357 64.4424 118.701 64.3488 117.577C64.3488 117.296 64.3488 116.922 64.3488 116.641C64.3488 103.154 64.3488 89.667 64.3488 76.1801C64.3488 75.9928 64.3488 75.8055 64.3488 75.5245C64.4424 74.026 65.2854 73.1831 66.7839 73.1831C69.781 73.1831 72.7781 73.1831 75.7751 73.1831C76.8054 73.1831 77.461 73.6514 77.461 74.4943C77.461 75.3372 76.899 75.8055 75.8688 75.8992C73.621 75.8992 71.3732 75.8992 69.0317 75.8992C68.3761 75.8992 67.8141 75.8992 67.1585 75.8992C67.1585 89.667 67.1585 103.247 67.1585 116.922C73.8083 116.922 80.3644 116.922 86.8269 116.922C87.0142 116.922 87.2951 116.828 87.3888 116.641C88.0444 115.61 88.6064 114.58 89.262 113.456C88.7937 113.456 88.419 113.456 88.1381 113.456C82.9868 113.456 77.8356 113.456 72.5907 113.456C70.6239 113.456 69.8746 112.707 69.8746 110.74C69.8746 101.187 69.8746 91.6338 69.8746 82.1743C69.8746 79.9265 71.0922 78.7089 73.34 78.7089C80.8327 78.7089 88.3254 78.7089 95.8181 78.7089C97.9722 78.7089 99.1898 80.0202 99.1898 82.1743C99.1898 86.4826 99.1898 90.8846 99.1898 95.1929C99.1898 95.4738 99.1898 95.6611 99.1898 96.2231C100.22 94.3499 101.157 92.7577 102.093 91.1655C102.468 90.4163 103.03 89.948 103.873 89.8543C105.09 89.7606 105.84 90.3226 106.402 91.2592C109.024 95.8485 111.646 100.438 114.362 105.027C115.486 106.9 116.517 108.773 117.641 110.74C117.828 110.366 118.015 110.085 118.202 109.804C120.919 105.027 123.728 100.25 126.444 95.5675C127.568 93.6943 129.629 93.6943 130.753 95.5675C131.408 96.5977 131.97 97.628 132.532 98.6582C133.375 100.157 134.218 101.562 135.061 103.06C135.436 103.716 135.248 104.465 134.593 104.84C133.937 105.214 133.188 105.027 132.72 104.371C132.532 104.09 132.439 103.903 132.251 103.622C131.034 101.468 129.816 99.4075 128.505 97.1597C128.318 97.5343 128.13 97.7216 128.037 98.0026C125.602 102.217 123.166 106.432 120.731 110.647C120.169 111.583 119.326 112.52 119.326 113.363C119.326 114.299 120.263 115.236 120.731 116.172C121.012 116.734 121.387 116.922 121.949 116.922C127.662 116.922 133.282 116.922 138.995 116.922C139.276 116.922 139.463 116.922 139.838 116.922C139.276 115.985 138.901 115.236 138.433 114.393C137.59 112.894 136.653 111.396 135.81 109.897C135.436 109.148 135.623 108.399 136.279 108.024C136.934 107.649 137.683 107.837 138.152 108.492C138.245 108.68 138.433 108.867 138.526 109.148C139.931 111.583 141.336 113.925 142.741 116.36C142.928 116.641 143.209 116.828 143.49 117.015C143.584 116.922 143.584 116.922 143.678 116.828C143.678 103.154 143.678 89.5733 143.678 75.8992C142.273 75.8992 140.962 75.8992 139.557 75.8992C139.369 75.8992 139.088 75.9928 138.901 76.1801C137.496 77.585 135.998 79.0836 134.593 80.4884C137.309 81.8933 138.714 84.1411 138.245 87.1382C137.871 89.4797 136.372 91.1655 134.031 91.8211C130.753 92.7577 128.318 91.3528 126.725 88.3558C125.414 89.667 124.29 90.8846 123.073 92.0085C122.604 92.3831 122.136 92.7577 121.668 93.0387C119.42 93.9753 117.079 94.9119 114.831 95.8485C113.988 96.2231 113.239 96.2231 112.583 95.5675C111.927 94.9119 111.927 94.0689 112.302 93.226C113.239 91.0719 114.082 88.8241 115.018 86.6699C115.299 86.0143 115.674 85.3587 116.236 84.8904C118.952 82.0806 121.762 79.3645 124.478 76.5548C124.665 76.3675 124.852 76.0865 125.227 75.7119C124.665 75.7119 124.384 75.7119 124.103 75.7119C110.429 75.7119 96.7547 75.7119 83.1742 75.7119C82.7995 75.7119 82.5186 75.7119 82.2376 75.7119C81.4883 75.5245 81.1137 75.0562 81.1137 74.307C81.1137 73.5577 81.582 73.0894 82.3312 72.9958C82.6122 72.9958 82.8932 72.9958 83.2678 72.9958C97.7849 72.9958 112.302 72.9958 126.819 72.9958C128.505 72.9958 129.067 71.8718 129.91 70.8416C129.629 70.8416 129.348 70.8416 129.161 70.8416C107.619 70.8416 85.9839 70.8416 64.4424 70.8416C62.7566 70.8416 62.3819 71.2162 62.3819 72.9021C62.3819 88.6367 62.3819 104.465 62.3819 120.2C62.101 120.762 62.101 121.136 62.101 121.511ZM96.38 89.2924C88.3254 89.2924 80.4581 89.2924 72.4971 89.2924C72.4971 96.4104 72.4971 103.528 72.4971 110.647C80.4581 110.647 88.419 110.647 96.38 110.647C96.38 103.435 96.38 96.4104 96.38 89.2924ZM111.365 105.214C111.178 105.495 111.084 105.589 110.991 105.776C109.867 107.462 107.713 107.462 106.589 105.683C106.308 105.214 106.121 104.84 105.84 104.371C105.559 103.997 105.371 103.528 104.997 102.967C104.247 104.184 103.592 105.214 103.123 106.245C102.281 107.837 101.344 109.054 99.1898 108.305C99.1898 109.242 99.1898 109.991 99.1898 110.74C99.1898 112.52 98.3469 113.269 96.5674 113.363C95.3498 113.363 94.1322 113.363 93.0083 113.363C92.7273 113.363 92.3527 113.456 92.2591 113.644C91.6034 114.674 91.0415 115.704 90.3859 116.828C99.6581 116.828 108.837 116.828 118.202 116.828C115.861 112.894 113.613 109.054 111.365 105.214ZM98.9088 142.584C103.217 142.584 107.525 142.584 111.74 142.584C111.74 139.4 111.74 136.309 111.74 133.218C107.432 133.218 103.217 133.218 98.9088 133.218C98.9088 136.403 98.9088 139.493 98.9088 142.584ZM72.4971 86.3889C80.5517 86.3889 88.419 86.3889 96.4737 86.3889C96.4737 85.0777 96.4737 83.7665 96.4737 82.4553C96.4737 81.2377 96.4737 81.2377 95.2561 81.2377C88.0444 81.2377 80.9264 81.2377 73.7146 81.2377C73.5273 81.2377 73.2463 81.1441 73.059 81.2377C72.8717 81.3314 72.4971 81.6123 72.4971 81.7997C72.4034 83.3919 72.4971 84.8904 72.4971 86.3889ZM121.668 89.2924C126.913 84.0475 132.158 78.8026 137.403 73.5577C136.466 72.6211 135.436 71.5909 134.405 70.5606C129.161 75.8055 123.916 81.1441 118.671 86.3889C119.701 87.3255 120.731 88.3558 121.668 89.2924ZM105.371 145.394C100.407 145.394 95.3498 145.394 90.3859 145.394C89.543 145.394 89.262 145.675 89.262 146.424C89.262 147.173 89.3556 147.642 90.2922 147.642C100.314 147.642 110.335 147.642 120.357 147.642C121.2 147.642 121.387 147.267 121.387 146.518C121.387 145.675 121.2 145.394 120.263 145.394C115.299 145.394 110.335 145.394 105.371 145.394ZM104.154 92.7577C102.562 95.4738 101.157 98.0026 99.6581 100.531C98.7215 102.03 98.9088 104.371 100.314 105.589C100.969 104.465 101.625 103.341 102.281 102.217C103.685 99.9694 106.308 99.9694 107.713 102.217C108.087 102.873 108.462 103.528 108.837 104.184C109.118 103.716 109.399 103.247 109.586 102.873C109.68 102.686 109.68 102.311 109.586 102.124C107.806 99.0329 106.027 95.9421 104.154 92.7577ZM135.717 86.0143C135.717 84.6094 134.78 83.2982 133.375 82.8299C132.813 82.6426 132.251 82.6426 131.783 83.2045C131.127 83.9538 130.378 84.7031 129.629 85.3587C129.067 85.827 129.067 86.3889 129.254 87.0446C129.816 88.6367 131.315 89.4797 133.001 89.1987C134.593 89.0114 135.717 87.6065 135.717 86.0143ZM145.083 66.065C144.052 65.0348 143.022 64.0045 141.992 63.0679C141.149 63.9109 140.212 64.9411 139.276 65.784C140.212 66.7206 141.243 67.8445 142.273 68.8748C143.303 67.8445 144.24 66.9079 145.083 66.065ZM115.393 92.6641C116.891 92.1021 118.109 91.5402 119.326 91.0719C118.577 90.3226 117.828 89.5733 116.985 88.8241C116.517 89.948 116.048 91.1655 115.393 92.6641ZM139.557 71.5909C139.838 71.3099 140.119 71.1226 140.306 70.8416C139.276 69.7177 138.245 68.6875 137.215 67.6572C136.934 67.9382 136.653 68.1255 136.372 68.4065C137.496 69.5304 138.526 70.5606 139.557 71.5909Z" fill="#2C2762"/>
<path d="M105.277 128.629C104.247 128.629 103.217 128.629 102.28 128.629C101.344 128.629 100.782 128.067 100.875 127.318C100.875 126.569 101.437 126.007 102.28 126.007C104.434 126.007 106.495 126.007 108.649 126.007C109.492 126.007 110.054 126.569 109.96 127.318C109.96 128.067 109.398 128.629 108.555 128.629C107.431 128.629 106.308 128.629 105.277 128.629Z" fill="#2C2762"/>
<path d="M80.8335 99.7819C79.4286 99.7819 78.3047 99.1263 77.6491 98.0024C77.3681 97.5341 77.0871 97.3468 76.5252 97.3468C76.2442 97.3468 75.8696 97.3468 75.495 97.3468C74.7457 97.2531 74.1837 96.6912 74.2774 95.9419C74.2774 95.1926 74.7457 94.6307 75.495 94.6307C76.7125 94.7243 77.3681 94.2561 78.2111 93.3195C79.8032 91.4463 82.7067 91.8209 83.9242 93.8814C84.2989 94.4434 84.5798 94.537 85.2354 94.537C87.8579 94.537 90.4803 94.537 93.1028 94.537C94.0394 94.537 94.6013 95.099 94.6013 95.8482C94.6013 96.5975 94.0394 97.1595 93.1028 97.1595C92.9155 97.1595 92.7281 97.1595 92.4472 97.1595C90.012 97.1595 87.4833 97.1595 85.0481 97.1595C84.5798 97.1595 84.2989 97.2531 84.0179 97.7214C83.3623 99.1263 82.1447 99.6883 80.8335 99.7819ZM81.8637 95.9419C81.7701 95.38 81.4891 94.9117 80.7398 94.9117C80.0842 94.9117 79.7096 95.2863 79.7096 95.9419C79.7096 96.5975 80.0842 96.9722 80.7398 97.0658C81.4891 97.0658 81.7701 96.6912 81.8637 95.9419Z" fill="#2C2762"/>
<path d="M79.8023 105.027C78.4911 105.027 77.1799 105.027 75.8686 105.027C74.8384 105.027 74.2764 104.559 74.2764 103.716C74.2764 102.873 74.8384 102.311 75.8686 102.311C78.4911 102.311 81.0199 102.311 83.6423 102.311C84.2043 102.311 84.4852 102.217 84.7662 101.655C86.2647 99.2203 89.6365 99.2203 91.135 101.655C91.416 102.124 91.6969 102.311 92.1652 102.217C92.5399 102.217 92.9145 102.217 93.2891 102.217C94.0384 102.311 94.5067 102.779 94.5067 103.529C94.5067 104.278 94.0384 104.746 93.2891 104.84C93.1018 104.84 92.9145 104.84 92.7272 104.84C91.8843 104.746 91.3223 105.027 90.7604 105.776C89.2618 107.931 86.0774 107.65 84.6725 105.402C84.3916 104.933 84.1106 104.84 83.6423 104.84C82.4247 105.027 81.1135 105.027 79.8023 105.027ZM88.0443 104.746C88.6999 104.652 89.0745 104.278 89.0745 103.622C89.0745 102.967 88.6999 102.592 88.0443 102.592C87.3886 102.592 87.014 102.967 86.9204 103.622C86.9204 104.371 87.3886 104.746 88.0443 104.746Z" fill="#2C2762"/>
<path d="M87.4829 83.673C87.4829 84.4223 86.921 84.9842 86.1717 84.9842C85.4224 84.9842 84.7668 84.3286 84.7668 83.5794C84.7668 82.8301 85.4224 82.2681 86.1717 82.2681C86.921 82.3618 87.4829 82.9238 87.4829 83.673Z" fill="#2C2762"/>
<path d="M91.1354 83.579C91.1354 84.3283 90.5735 84.8902 89.8242 84.8902C89.0749 84.8902 88.4193 84.3283 88.4193 83.579C88.4193 82.8298 89.0749 82.1741 89.8242 82.2678C90.5735 82.2678 91.1354 82.9234 91.1354 83.579Z" fill="#2C2762"/>
<path d="M94.8815 83.673C94.8815 84.4223 94.2258 84.9842 93.4766 84.9842C92.7273 84.9842 92.259 84.3286 92.259 83.5794C92.259 82.8301 92.9146 82.2681 93.6639 82.2681C94.3195 82.3618 94.8815 82.9238 94.8815 83.673Z" fill="#2C2762"/>
<defs>
<filter id="filter0_d_1_8603" x="0" y="0" width="210" height="210" filterUnits="userSpaceOnUse" color-interpolation-filters="sRGB">
<feFlood flood-opacity="0" result="BackgroundImageFix"/>
<feColorMatrix in="SourceAlpha" type="matrix" values="0 0 0 0 0 0 0 0 0 0 0 0 0 0 0 0 0 0 127 0" result="hardAlpha"/>
<feOffset/>
<feGaussianBlur stdDeviation="20"/>
<feComposite in2="hardAlpha" operator="out"/>
<feColorMatrix type="matrix" values="0 0 0 0 0 0 0 0 0 0 0 0 0 0 0 0 0 0 0.05 0"/>
<feBlend mode="normal" in2="BackgroundImageFix" result="effect1_dropShadow_1_8603"/>
<feBlend mode="normal" in="SourceGraphic" in2="effect1_dropShadow_1_8603" result="shape"/>
</filter>
</defs>
</svg>
