<svg width="409" height="410" viewBox="0 0 409 410" fill="none" xmlns="http://www.w3.org/2000/svg">
<line x1="204.755" y1="5.9116" x2="204.755" y2="404.095" stroke="#164630" stroke-width="0.578231"/>
<line x1="403.143" y1="205.291" x2="5.78694" y2="205.291" stroke="#164630" stroke-width="0.578231"/>
<line y1="-0.289116" x2="397.41" y2="-0.289116" transform="matrix(-0.707011 0.708483 -0.707011 -0.708483 344.952 64.2222)" stroke="#164630" stroke-width="0.578231"/>
<line y1="-0.289116" x2="397.41" y2="-0.289116" transform="matrix(-0.707011 -0.708483 0.707011 -0.708483 344.952 345.782)" stroke="#164630" stroke-width="0.578231"/>
<path d="M205.141 109.318C257.498 109.318 299.947 151.852 299.947 204.326C299.947 256.799 257.498 299.332 205.141 299.332C152.783 299.332 110.333 256.8 110.333 204.326C110.333 151.851 152.783 109.318 205.141 109.318Z" fill="white" stroke="#164630" stroke-width="3"/>
<path d="M255.651 209.653C254.996 212.966 252.297 214.208 249.76 215.533C249.024 215.948 248.288 215.616 247.879 214.871C247.469 214.125 247.633 213.38 248.369 212.966C249.269 212.386 250.251 211.806 251.151 211.227C252.133 210.647 252.624 209.736 252.624 208.576C252.624 198.637 252.624 188.781 252.624 178.842C252.624 178.676 252.624 178.593 252.542 178.262C252.215 178.428 251.888 178.593 251.642 178.676C243.215 183.811 234.706 188.864 226.279 193.999C224.561 195.076 224.398 195.655 225.461 197.477C229.307 204.021 233.234 210.647 237.079 217.19C237.897 218.515 238.552 218.764 239.942 217.935C240.679 217.438 241.497 217.024 242.233 216.527C243.133 216.03 243.951 216.196 244.361 216.941C244.77 217.687 244.524 218.515 243.706 219.095C242.806 219.675 241.824 220.254 240.924 220.751C239.452 221.58 237.815 221.663 236.424 220.669C235.443 219.923 234.788 220.089 233.97 220.834C235.361 222.988 235.77 225.224 234.215 227.377C232.661 229.531 230.452 229.945 227.997 229.282C227.67 230.856 227.016 232.181 225.707 233.175C224.398 234.086 223.007 234.335 221.37 233.921C221.043 235.909 220.225 237.399 218.425 238.31C216.707 239.222 214.989 239.056 213.271 238.145C212.698 240.795 211.307 242.535 208.689 242.783C207.625 242.866 206.398 242.535 205.335 242.12C204.189 241.623 203.126 240.795 201.98 240.215C201.735 240.05 201.244 240.133 200.998 240.298C197.971 242.866 194.371 242.12 192.49 238.642C192.408 238.559 192.408 238.476 192.326 238.393C188.317 239.553 185.781 237.482 184.963 234.335C181.772 234.5 179.727 233.092 178.908 229.945C175.472 229.697 173.754 228.537 173.018 226.135C172.118 223.319 173.836 221.414 175.309 219.343C175.227 219.261 175.145 219.178 175.063 219.178C174.899 219.343 174.654 219.426 174.49 219.592C172.609 221.497 170.563 221.828 168.272 220.42C164.509 218.184 160.827 215.948 157.146 213.711C155.018 212.717 153.955 210.812 153.955 208.41C153.955 198.554 153.955 188.698 153.955 178.842C153.955 175.86 156.491 174.369 159.027 175.943C167.7 181.161 176.372 186.462 185.126 191.68C186.844 192.674 187.744 194.164 187.744 196.152C187.744 196.401 187.908 196.732 188.072 196.898C189.626 197.974 191.262 198.389 193.062 197.726C193.962 197.395 194.944 197.063 195.844 196.649C198.626 195.407 201.326 195.572 204.026 197.146C204.435 197.395 205.089 197.477 205.58 197.312C207.216 196.981 208.853 196.484 210.489 196.069C212.044 195.655 213.598 195.738 215.152 196.401C216.216 196.815 217.362 197.312 218.507 197.726C219.734 198.223 220.88 198.223 222.107 197.726C222.025 197.477 222.025 197.229 221.943 196.898C221.616 194.827 222.434 193.005 224.316 191.845C231.27 187.621 238.306 183.397 245.26 179.173C246.815 178.179 248.451 177.268 250.006 176.274C252.624 174.7 254.097 175.115 255.569 177.765C255.651 188.367 255.651 198.968 255.651 209.653ZM203.207 237.565C203.371 237.648 203.371 237.731 203.453 237.813C204.435 238.393 205.498 239.056 206.48 239.636C207.789 240.381 209.18 240.133 209.835 238.973C210.489 237.813 210.08 236.488 208.771 235.66C207.871 235.08 206.889 234.583 205.989 233.921C205.253 233.424 205.089 232.595 205.498 231.933C205.989 231.187 206.644 231.022 207.38 231.353C207.625 231.436 207.871 231.602 208.198 231.767C210.407 233.092 212.616 234.418 214.825 235.743C215.971 236.405 217.28 235.991 217.934 234.915C218.507 233.838 218.261 232.595 217.116 231.85C216.543 231.436 215.971 231.105 215.316 230.773C213.353 229.614 211.471 228.454 209.507 227.295C208.525 226.715 208.198 225.887 208.689 225.058C209.18 224.313 209.998 224.147 211.062 224.727C211.225 224.81 211.307 224.893 211.471 224.976C214.662 226.881 217.852 228.786 221.043 230.69C221.616 231.022 222.27 231.187 222.925 231.187C223.907 231.105 224.561 230.442 224.807 229.448C225.052 228.371 224.643 227.46 223.579 226.881C220.307 224.893 217.034 222.988 213.762 221C213.516 220.834 213.189 220.669 212.943 220.42C212.371 219.923 212.207 219.178 212.616 218.515C213.025 217.77 213.68 217.604 214.416 217.853C214.743 217.935 214.989 218.184 215.316 218.349C219.734 221 224.07 223.568 228.488 226.218C229.879 227.046 231.27 226.798 231.925 225.555C232.579 224.396 232.17 223.071 230.779 222.242C224.888 218.681 218.916 215.119 213.025 211.641C212.044 211.061 211.062 210.481 210.08 209.901C209.998 210.067 209.916 210.067 209.916 210.067C209.835 210.315 209.671 210.564 209.589 210.812C208.362 213.214 206.48 214.54 203.78 214.705C201.571 214.871 200.098 213.463 200.098 211.227C200.098 209.487 200.18 207.831 200.098 206.091C200.017 203.689 200.18 201.37 201.98 199.382C200.589 198.554 199.28 198.471 197.889 198.968C196.662 199.465 195.435 199.962 194.208 200.376C192.244 201.122 190.281 201.039 188.317 200.211C187.744 199.962 187.172 199.631 186.599 199.3C183.245 205.097 179.89 210.812 176.536 216.445C177.108 217.107 177.599 217.19 178.336 216.776C178.499 216.776 178.908 216.693 179.317 216.693C181.69 216.362 183.49 217.273 184.799 219.261C188.644 216.362 191.753 217.356 193.962 222.159C195.844 221.994 197.562 222.574 198.789 224.064C200.099 225.638 200.18 227.46 199.689 229.365C203.862 230.442 205.007 234.418 203.207 237.565ZM156.9 178.179C156.9 178.759 156.9 179.09 156.9 179.422C156.9 189.029 156.9 198.554 156.9 208.162C156.9 209.736 157.473 210.73 158.782 211.558C162.382 213.628 165.9 215.865 169.418 217.935C170.972 218.929 171.709 218.681 172.609 217.107C176.454 210.564 180.299 204.021 184.145 197.395C185.045 195.821 184.881 195.076 183.326 194.164C175.881 189.609 168.436 185.054 160.991 180.581C159.682 179.836 158.455 179.09 156.9 178.179ZM233.725 217.604C230.288 211.806 226.934 206.091 223.579 200.294C221.043 201.453 218.671 201.205 216.298 200.128C215.48 199.797 214.743 199.465 213.925 199.217C213.271 199.051 212.453 198.803 211.798 198.968C209.753 199.382 207.789 199.879 205.826 200.459C204.189 200.956 203.044 202.447 203.044 204.186C202.962 206.423 203.044 208.742 203.044 210.978C203.044 211.641 203.289 211.806 203.862 211.723C205.089 211.558 206.071 210.978 206.644 209.901C207.053 209.156 207.216 208.328 207.298 207.499C207.462 206.174 208.444 205.594 209.671 206.174C209.916 206.257 210.08 206.423 210.244 206.505C216.952 210.564 223.743 214.622 230.452 218.598C230.779 218.764 231.27 218.929 231.597 218.764C232.334 218.515 232.906 218.101 233.725 217.604ZM184.226 231.684C184.717 231.436 185.372 231.27 185.699 230.773C187.335 228.537 188.972 226.301 190.526 223.982C191.181 222.988 190.853 221.745 189.872 221.083C188.972 220.42 187.663 220.42 186.926 221.414C185.29 223.65 183.654 225.887 182.181 228.206C181.281 229.697 182.426 231.602 184.226 231.684ZM190.281 236.157C190.772 235.909 191.508 235.743 191.753 235.329C193.471 233.092 195.026 230.773 196.58 228.454C197.235 227.46 196.826 226.218 195.844 225.555C194.944 224.893 193.635 224.976 192.981 225.887C191.344 228.123 189.626 230.359 188.153 232.761C187.335 234.169 188.563 235.991 190.281 236.157ZM182.426 221.58C182.426 220.917 181.936 220.172 181.036 219.758C180.136 219.426 179.236 219.509 178.581 220.254C177.681 221.414 176.781 222.574 176.045 223.816C175.554 224.644 175.718 225.555 176.372 226.301C177.027 227.046 177.845 227.212 178.745 226.963C179.808 226.715 182.345 222.988 182.426 221.58ZM201.08 234.832C200.998 233.589 200.589 232.927 199.689 232.513C198.789 232.099 197.889 232.347 197.235 233.092C196.58 233.838 196.008 234.666 195.517 235.494C194.862 236.571 195.108 237.813 196.008 238.559C196.99 239.304 198.299 239.139 199.117 238.145C199.689 237.399 200.262 236.654 200.753 235.826C200.917 235.494 200.998 235.08 201.08 234.832Z" fill="#1C7B43"/>
<path d="M204.803 135.99C242.651 135.99 273.334 166.736 273.334 204.666C273.334 242.595 242.651 273.341 204.803 273.341C166.954 273.341 136.271 242.595 136.271 204.666C136.271 166.736 166.954 135.99 204.803 135.99Z" stroke="#164630"/>
<g filter="url(#filter0_d_1_21180)">
<ellipse cx="204.789" cy="34.1317" rx="28.6231" ry="28.3453" fill="white"/>
<path d="M204.79 6.07581C220.44 6.07605 233.123 18.6396 233.123 34.1315C233.123 49.6235 220.441 62.1879 204.79 62.1881C189.139 62.1881 176.456 49.6237 176.456 34.1315C176.456 18.6394 189.139 6.07581 204.79 6.07581Z" stroke="#164630" stroke-width="0.578231"/>
</g>
<g filter="url(#filter1_d_1_21180)">
<ellipse cx="204.789" cy="375.597" rx="28.6231" ry="28.3453" fill="white"/>
<path d="M204.79 347.541C220.44 347.541 233.123 360.105 233.123 375.597C233.123 391.089 220.441 403.653 204.79 403.653C189.139 403.653 176.456 391.089 176.456 375.597C176.456 360.105 189.139 347.541 204.79 347.541Z" stroke="#164630" stroke-width="0.578231"/>
</g>
<g filter="url(#filter2_d_1_21180)">
<ellipse cx="325.16" cy="84.482" rx="28.2864" ry="28.3453" fill="white"/>
<path d="M325.159 56.4261C340.621 56.4261 353.156 68.9864 353.156 84.4817C353.156 99.9771 340.621 112.538 325.159 112.538C309.698 112.538 297.162 99.9771 297.162 84.4817C297.163 68.9865 309.698 56.4261 325.159 56.4261Z" stroke="#164630" stroke-width="0.578231"/>
</g>
<g filter="url(#filter3_d_1_21180)">
<ellipse cx="374.829" cy="204.045" rx="28.2864" ry="28.6827" fill="white"/>
<path d="M374.829 175.651C390.288 175.651 402.826 188.36 402.826 204.045C402.826 219.73 390.288 232.438 374.829 232.438C359.371 232.438 346.833 219.73 346.832 204.045C346.832 188.36 359.371 175.651 374.829 175.651Z" stroke="#164630" stroke-width="0.578231"/>
</g>
<g filter="url(#filter4_d_1_21180)">
<ellipse cx="325.16" cy="325.825" rx="28.2864" ry="28.3453" fill="white"/>
<path d="M325.159 297.769C340.621 297.769 353.156 310.33 353.156 325.825C353.156 341.321 340.621 353.882 325.159 353.882C309.698 353.882 297.162 341.321 297.162 325.825C297.163 310.33 309.698 297.769 325.159 297.769Z" stroke="#164630" stroke-width="0.578231"/>
</g>
<g filter="url(#filter5_d_1_21180)">
<ellipse cx="83.7711" cy="325.85" rx="28.2864" ry="28.3453" transform="rotate(-180 83.7711 325.85)" fill="white"/>
<path d="M83.7711 353.906C68.3095 353.906 55.7743 341.346 55.7741 325.851C55.7741 310.355 68.3094 297.794 83.7711 297.794C99.2329 297.794 111.768 310.355 111.768 325.851C111.768 341.346 99.2328 353.906 83.7711 353.906Z" stroke="#164630" stroke-width="0.578231"/>
</g>
<g filter="url(#filter6_d_1_21180)">
<ellipse cx="34.0738" cy="205.134" rx="28.2864" ry="28.6827" transform="rotate(-180 34.0738 205.134)" fill="white"/>
<path d="M34.0738 233.528C18.6153 233.528 6.07679 220.819 6.07679 205.134C6.07705 189.449 18.6154 176.741 34.0738 176.741C49.5322 176.741 62.0706 189.449 62.0708 205.134C62.0708 220.819 49.5323 233.528 34.0738 233.528Z" stroke="#164630" stroke-width="0.578231"/>
</g>
<g filter="url(#filter7_d_1_21180)">
<ellipse cx="83.7711" cy="84.5108" rx="28.2864" ry="28.3453" transform="rotate(-180 83.7711 84.5108)" fill="white"/>
<path d="M83.7711 112.567C68.3095 112.567 55.7743 100.006 55.7741 84.511C55.7741 69.0156 68.3094 56.4544 83.7711 56.4544C99.2329 56.4544 111.768 69.0157 111.768 84.511C111.768 100.006 99.2328 112.567 83.7711 112.567Z" stroke="#164630" stroke-width="0.578231"/>
</g>
<mask id="mask0_1_21180" style="mask-type:alpha" maskUnits="userSpaceOnUse" x="345" y="175" width="59" height="58">
<path d="M374.59 175.651C390.238 175.651 402.923 188.348 402.923 204.01C402.923 219.672 390.238 232.369 374.59 232.369C358.942 232.369 346.256 219.672 346.256 204.01C346.256 188.348 358.942 175.651 374.59 175.651Z" fill="white" stroke="#E84B3E" stroke-width="0.578231"/>
</mask>
<g mask="url(#mask0_1_21180)">
<path d="M332.02 175.362H426.911V233.271H332.02V175.362Z" fill="#006A4E"/>
<path d="M374.719 223.621C385.2 223.621 393.697 214.979 393.697 204.318C393.697 193.657 385.2 185.015 374.719 185.015C364.238 185.015 355.741 193.657 355.741 204.318C355.741 214.979 364.238 223.621 374.719 223.621Z" fill="#F42A41"/>
</g>
<mask id="mask1_1_21180" style="mask-type:alpha" maskUnits="userSpaceOnUse" x="176" y="5" width="58" height="58">
<path d="M205.029 6.07581C220.491 6.07581 233.026 18.6362 233.026 34.1315C233.026 49.6269 220.491 62.1881 205.029 62.1881C189.568 62.1881 177.032 49.6269 177.032 34.1315C177.032 18.6362 189.568 6.07583 205.029 6.07581Z" fill="white" stroke="#E84B3E" stroke-width="0.578231"/>
</mask>
<g mask="url(#mask1_1_21180)">
<path d="M146.708 4.62919V63.0834H263.374V4.62919H146.708Z" fill="#012169"/>
<mask id="mask2_1_21180" style="mask-type:alpha" maskUnits="userSpaceOnUse" x="146" y="4" width="118" height="60">
<path d="M146.708 4.62919V63.0834H263.374V4.62919H146.708Z" fill="#012169"/>
</mask>
<g mask="url(#mask2_1_21180)">
<path d="M146.708 4.62919L263.374 63.0834L146.708 4.62919ZM263.374 4.62919L146.708 63.0834L263.374 4.62919Z" fill="white"/>
<path d="M263.374 4.62919L146.708 63.0834M146.708 4.62919L263.374 63.0834L146.708 4.62919Z" stroke="white" stroke-width="11.6909"/>
<path d="M146.708 4.62919L263.374 63.0834L146.708 4.62919ZM263.374 4.62919L146.708 63.0834L263.374 4.62919Z" fill="white"/>
<path d="M263.374 4.62919L146.708 63.0834M146.708 4.62919L263.374 63.0834L146.708 4.62919Z" stroke="#C8102E" stroke-width="7.7939"/>
<path d="M205.041 4.62919V63.0834V4.62919ZM146.708 33.8563H263.374H146.708Z" fill="white"/>
<path d="M146.708 33.8563H263.374M205.041 4.62919V63.0834V4.62919Z" stroke="white" stroke-width="19.4847"/>
<path d="M205.041 4.62919V63.0834V4.62919ZM146.708 33.8563H263.374H146.708Z" fill="white"/>
<path d="M146.708 33.8563H263.374M205.041 4.62919V63.0834V4.62919Z" stroke="#C8102E" stroke-width="11.6909"/>
</g>
</g>
<mask id="mask3_1_21180" style="mask-type:alpha" maskUnits="userSpaceOnUse" x="176" y="347" width="58" height="57">
<path d="M205.031 403.654C189.57 403.654 177.034 391.094 177.034 375.599C177.034 360.103 189.569 347.542 205.031 347.542C220.493 347.542 233.028 360.103 233.028 375.599C233.028 391.094 220.493 403.654 205.031 403.654Z" fill="white" stroke="#E84B3E" stroke-width="0.578231"/>
</mask>
<g mask="url(#mask3_1_21180)">
<path d="M149.572 347.224H262.772V403.942H149.572V347.224Z" fill="#012169"/>
<mask id="mask4_1_21180" style="mask-type:alpha" maskUnits="userSpaceOnUse" x="149" y="347" width="114" height="57">
<path d="M149.572 347.224H262.772V403.942H149.572V347.224Z" fill="#012169"/>
</mask>
<g mask="url(#mask4_1_21180)">
<path d="M149.572 347.224L206.172 375.583L149.572 347.224ZM206.172 347.224L149.572 375.583L206.172 347.224Z" fill="white"/>
<path d="M206.172 347.224L149.572 375.583M149.572 347.224L206.172 375.583L149.572 347.224Z" stroke="white" stroke-width="5.6718"/>
<path d="M149.572 347.224L206.172 375.583L149.572 347.224ZM206.172 347.224L149.572 375.583L206.172 347.224Z" fill="white"/>
<path d="M206.172 347.224L149.572 375.583M149.572 347.224L206.172 375.583L149.572 347.224Z" stroke="#E4002B" stroke-width="3.7812"/>
<path d="M177.872 347.224V380.31V347.224ZM149.572 361.404H215.605H149.572Z" fill="white"/>
<path d="M149.572 361.404H215.605M177.872 347.224V380.31V347.224Z" stroke="white" stroke-width="9.453"/>
<path d="M177.872 347.224V380.31V347.224ZM149.572 361.404H215.605H149.572Z" fill="white"/>
<path d="M149.572 361.404H215.605M177.872 347.224V380.31V347.224Z" stroke="#E4002B" stroke-width="5.6718"/>
<path d="M149.572 375.583H206.172V347.224H225.039V385.036H149.572V375.583Z" fill="#012169"/>
<path d="M234.475 390.439L235.255 392.868L237.636 391.965L236.227 394.09L238.417 395.392L235.88 395.613L236.229 398.141L234.475 396.291L232.721 398.141L233.07 395.613L230.534 395.392L232.724 394.09L231.314 391.965L233.696 392.868L234.475 390.439Z" fill="white"/>
<path d="M220.326 367.989L221.105 370.418L223.487 369.515L222.078 371.64L224.267 372.942L221.731 373.163L222.08 375.691L220.326 373.841L218.572 375.691L218.921 373.163L216.384 372.942L218.574 371.64L217.165 369.515L219.546 370.418L220.326 367.989Z" fill="white"/>
<path d="M234.475 352.628L235.255 355.057L237.636 354.153L236.227 356.278L238.417 357.58L235.88 357.802L236.229 360.329L234.475 358.48L232.721 360.329L233.07 357.802L230.534 357.58L232.724 356.278L231.314 354.153L233.696 355.057L234.475 352.628Z" fill="white"/>
</g>
</g>
<mask id="mask5_1_21180" style="mask-type:alpha" maskUnits="userSpaceOnUse" x="5" y="176" width="58" height="58">
<path d="M34.0738 233.528C18.6153 233.528 6.07679 220.819 6.07679 205.134C6.07705 189.449 18.6154 176.741 34.0738 176.741C49.5322 176.741 62.0706 189.449 62.0708 205.134C62.0708 220.819 49.5323 233.528 34.0738 233.528Z" fill="white" stroke="#E84B3E" stroke-width="0.578231"/>
</mask>
<g mask="url(#mask5_1_21180)">
<path d="M-22.3982 175.94H89.9935V235.217H-22.3982V175.94Z" fill="#B22234"/>
<path d="M-22.3982 182.779H89.9935H-22.3982ZM89.9935 191.898H-22.3982H89.9935ZM-22.3982 201.018H89.9935H-22.3982ZM89.9935 210.137H-22.3982H89.9935ZM-22.3982 219.257H89.9935H-22.3982ZM89.9935 228.376H-22.3982H89.9935Z" fill="white"/>
<path d="M89.9935 228.376H-22.3982M-22.3982 182.779H89.9935H-22.3982ZM89.9935 191.898H-22.3982H89.9935ZM-22.3982 201.018H89.9935H-22.3982ZM89.9935 210.137H-22.3982H89.9935ZM-22.3982 219.257H89.9935H-22.3982Z" stroke="white" stroke-width="4.55975"/>
<path d="M-22.3982 175.94H22.5585V207.859H-22.3982V175.94Z" fill="#3C3B6E"/>
</g>
<mask id="mask6_1_21180" style="mask-type:alpha" maskUnits="userSpaceOnUse" x="55" y="56" width="58" height="57">
<path d="M83.7438 112.539C68.2821 112.539 55.7469 99.979 55.7467 84.4837C55.7467 68.9883 68.282 56.427 83.7438 56.427C99.2055 56.4271 111.741 68.9883 111.741 84.4837C111.741 99.9789 99.2054 112.539 83.7438 112.539Z" fill="white" stroke="#E84B3E" stroke-width="0.578231"/>
</mask>
<g mask="url(#mask6_1_21180)">
<path d="M27.131 56.1094H55.4311L56.5985 57.2792H110.864L112.031 56.1094H140.331V112.827H112.031L110.864 111.658H56.5985L55.4311 112.827H27.131V56.1094Z" fill="#FF0000"/>
<path d="M55.432 56.1094H112.032V112.827H55.432V56.1094ZM84.7933 108.455L84.2627 98.2579C84.255 98.0902 84.2849 97.9229 84.3503 97.7683C84.4156 97.6138 84.5147 97.4758 84.6403 97.3647C84.7659 97.2536 84.9148 97.1722 85.0759 97.1263C85.2371 97.0805 85.4065 97.0715 85.5716 97.0999L95.7007 98.8842L94.3328 95.103C94.2773 94.9525 94.2702 94.7884 94.3125 94.6337C94.3548 94.479 94.4444 94.3415 94.5686 94.2404L105.665 85.2364L103.165 84.0666C102.996 83.9867 102.862 83.8477 102.788 83.6758C102.714 83.5039 102.706 83.311 102.764 83.1331L104.957 76.3742L98.566 77.7331C98.3929 77.7693 98.2126 77.7443 98.0557 77.6625C97.8988 77.5807 97.775 77.447 97.7052 77.2841L96.4671 74.3655L91.4792 79.7301C91.3652 79.8506 91.2152 79.9308 91.0518 79.9588C90.8884 79.9867 90.7203 79.9607 90.5729 79.8849C90.4254 79.809 90.3065 79.6872 90.2339 79.5379C90.1613 79.3885 90.139 79.2196 90.1703 79.0565L92.5759 66.6258L88.72 68.8591C88.6294 68.9123 88.529 68.9462 88.4248 68.9589C88.3206 68.9716 88.215 68.9627 88.1144 68.9328C88.0138 68.9029 87.9204 68.8526 87.84 68.785C87.7596 68.7175 87.6939 68.6341 87.6469 68.5401L83.7321 60.8359L79.8172 68.5401C79.7703 68.6341 79.7046 68.7175 79.6242 68.785C79.5438 68.8526 79.4504 68.9029 79.3498 68.9328C79.2492 68.9627 79.1435 68.9716 79.0393 68.9589C78.9352 68.9462 78.8347 68.9123 78.7442 68.8591L74.8883 66.6258L77.2938 79.0565C77.3251 79.2196 77.3028 79.3885 77.2302 79.5379C77.1577 79.6872 77.0387 79.809 76.8913 79.8849C76.7438 79.9607 76.5758 79.9867 76.4124 79.9588C76.249 79.9308 76.099 79.8506 75.9849 79.7301L70.997 74.3655L69.7589 77.2841C69.6892 77.447 69.5653 77.5807 69.4085 77.6625C69.2516 77.7443 69.0713 77.7693 68.8981 77.7331L62.507 76.3742L64.7003 83.1331C64.7584 83.311 64.7497 83.5039 64.6759 83.6758C64.6021 83.8477 64.4682 83.9867 64.2994 84.0666L61.7995 85.2364L72.8955 94.2404C73.0198 94.3415 73.1093 94.479 73.1516 94.6337C73.1939 94.7884 73.1868 94.9525 73.1313 95.103L71.7635 98.8842L81.8926 97.0999C82.0577 97.0715 82.2271 97.0805 82.3882 97.1263C82.5494 97.1722 82.6982 97.2536 82.8238 97.3647C82.9494 97.4758 83.0485 97.6138 83.1139 97.7683C83.1792 97.9229 83.2092 98.0902 83.2014 98.2579L82.6708 108.455H84.7933Z" fill="white"/>
</g>
<mask id="mask7_1_21180" style="mask-type:alpha" maskUnits="userSpaceOnUse" x="296" y="297" width="58" height="58">
<path d="M325.159 297.769C340.621 297.769 353.156 310.33 353.156 325.825C353.156 341.321 340.621 353.882 325.159 353.882C309.698 353.882 297.162 341.321 297.162 325.825C297.163 310.33 309.698 297.769 325.159 297.769Z" fill="white" stroke="#E84B3E" stroke-width="0.578231"/>
</mask>
<g mask="url(#mask7_1_21180)">
<path d="M290.23 297.48H375.131V354.198H290.23V297.48Z" fill="#E30A17"/>
<path d="M320.299 340.02C328.114 340.02 334.449 333.672 334.449 325.84C334.449 318.009 328.114 311.661 320.299 311.661C312.484 311.661 306.149 318.009 306.149 325.84C306.149 333.672 312.484 340.02 320.299 340.02Z" fill="white"/>
<path d="M323.838 337.183C330.09 337.183 335.158 332.104 335.158 325.839C335.158 319.574 330.09 314.496 323.838 314.496C317.586 314.496 312.518 319.574 312.518 325.839C312.518 332.104 317.586 337.183 323.838 337.183Z" fill="#E30A17"/>
<path d="M331.502 325.84L344.301 330.007L336.391 319.097V332.583L344.301 321.673L331.502 325.84Z" fill="white"/>
</g>
<mask id="mask8_1_21180" style="mask-type:alpha" maskUnits="userSpaceOnUse" x="55" y="297" width="58" height="58">
<path d="M84.081 297.769C99.7316 297.77 112.414 310.333 112.414 325.825C112.414 341.317 99.7317 353.882 84.081 353.882C68.43 353.882 55.7467 341.317 55.7467 325.825C55.7469 310.333 68.4301 297.769 84.081 297.769Z" fill="white" stroke="#E84B3E" stroke-width="0.578231"/>
</mask>
<g mask="url(#mask8_1_21180)">
<path d="M45.1336 297.48H123.536V354.619H45.1336V297.48Z" fill="#EF2B2D"/>
<path d="M66.5182 297.48H80.7733V354.619H66.5182V297.48Z" fill="white"/>
<path d="M45.1336 318.906H123.536V333.191H45.1336V318.906Z" fill="white"/>
<path d="M70.08 297.48H77.2075V354.619H70.08V297.48Z" fill="#002868"/>
<path d="M45.1336 322.479H123.536V329.622H45.1336V322.479Z" fill="#002868"/>
</g>
<mask id="mask9_1_21180" style="mask-type:alpha" maskUnits="userSpaceOnUse" x="296" y="55" width="58" height="58">
<path d="M325.159 55.8474C340.618 55.8474 353.156 68.5563 353.156 84.2413C353.156 99.9261 340.618 112.634 325.159 112.634C309.701 112.634 297.163 99.9261 297.162 84.2413C297.162 68.5563 309.701 55.8474 325.159 55.8474Z" fill="white" stroke="#E84B3E" stroke-width="0.578231"/>
</mask>
<g mask="url(#mask9_1_21180)">
<path d="M266.261 54.4008H384.082V113.434H266.261V54.4008Z" fill="white"/>
<path d="M384.083 81.808H270.47M270.47 56.5082H384.083H270.47ZM384.083 64.9415H270.47H384.083ZM270.47 73.3747H384.083H270.47Z" stroke="#CC0000" stroke-width="4.21664"/>
<path d="M266.261 54.4008H325.172V90.2423H266.261V54.4008Z" fill="#000066"/>
<path d="M266.261 107.108H384.082M266.261 90.2418H384.082H266.261ZM384.082 98.6751H266.261H384.082Z" stroke="#CC0000" stroke-width="4.21664"/>
<path d="M303.081 60.7239L304.019 67.1543L307.648 61.7692L305.702 67.9712L311.304 64.6945L306.868 69.4383L313.338 68.92L307.289 71.2655L313.338 73.611L306.868 73.0927L311.304 77.8364L305.702 74.5597L307.648 80.7617L304.019 75.3767L303.081 81.8071L302.143 75.3767L298.514 80.7617L300.46 74.5597L294.858 77.8364L299.294 73.0927L292.824 73.611L298.873 71.2655L292.824 68.92L299.294 69.4383L294.858 64.6945L300.46 67.9712L298.514 61.7692L302.143 67.1543L303.081 60.7239ZM297.821 60.9874C296.113 60.2278 294.242 59.9079 292.379 60.0566C290.516 60.2053 288.72 60.818 287.153 61.839C285.586 62.8601 284.298 64.2571 283.407 65.9033C282.516 67.5494 282.049 69.3926 282.049 71.2655C282.049 73.1383 282.516 74.9815 283.407 76.6277C284.298 78.2739 285.586 79.6709 287.153 80.6919C288.72 81.7129 290.516 82.3256 292.379 82.4744C294.242 82.6231 296.113 82.3031 297.821 81.5435C295.935 82.8998 293.712 83.7085 291.396 83.8807C289.081 84.0529 286.763 83.5819 284.698 82.5195C282.632 81.4571 280.899 79.8445 279.689 77.859C278.479 75.8735 277.838 73.592 277.838 71.2655C277.838 68.9389 278.479 66.6575 279.689 64.672C280.899 62.6865 282.632 61.0738 284.698 60.0114C286.763 58.9491 289.081 58.4781 291.396 58.6502C293.712 58.8224 295.935 59.6311 297.821 60.9874Z" fill="#FFCC00"/>
</g>
<defs>
<filter id="filter0_d_1_21180" x="170.379" y="-0.00106383" width="68.8212" height="68.267" filterUnits="userSpaceOnUse" color-interpolation-filters="sRGB">
<feFlood flood-opacity="0" result="BackgroundImageFix"/>
<feColorMatrix in="SourceAlpha" type="matrix" values="0 0 0 0 0 0 0 0 0 0 0 0 0 0 0 0 0 0 127 0" result="hardAlpha"/>
<feOffset/>
<feGaussianBlur stdDeviation="2.89116"/>
<feComposite in2="hardAlpha" operator="out"/>
<feColorMatrix type="matrix" values="0 0 0 0 0 0 0 0 0 0 0 0 0 0 0 0 0 0 0.15 0"/>
<feBlend mode="normal" in2="BackgroundImageFix" result="effect1_dropShadow_1_21180"/>
<feBlend mode="normal" in="SourceGraphic" in2="effect1_dropShadow_1_21180" result="shape"/>
</filter>
<filter id="filter1_d_1_21180" x="170.379" y="341.464" width="68.8212" height="68.267" filterUnits="userSpaceOnUse" color-interpolation-filters="sRGB">
<feFlood flood-opacity="0" result="BackgroundImageFix"/>
<feColorMatrix in="SourceAlpha" type="matrix" values="0 0 0 0 0 0 0 0 0 0 0 0 0 0 0 0 0 0 127 0" result="hardAlpha"/>
<feOffset/>
<feGaussianBlur stdDeviation="2.89116"/>
<feComposite in2="hardAlpha" operator="out"/>
<feColorMatrix type="matrix" values="0 0 0 0 0 0 0 0 0 0 0 0 0 0 0 0 0 0 0.15 0"/>
<feBlend mode="normal" in2="BackgroundImageFix" result="effect1_dropShadow_1_21180"/>
<feBlend mode="normal" in="SourceGraphic" in2="effect1_dropShadow_1_21180" result="shape"/>
</filter>
<filter id="filter2_d_1_21180" x="291.086" y="50.3492" width="68.1478" height="68.267" filterUnits="userSpaceOnUse" color-interpolation-filters="sRGB">
<feFlood flood-opacity="0" result="BackgroundImageFix"/>
<feColorMatrix in="SourceAlpha" type="matrix" values="0 0 0 0 0 0 0 0 0 0 0 0 0 0 0 0 0 0 127 0" result="hardAlpha"/>
<feOffset/>
<feGaussianBlur stdDeviation="2.89116"/>
<feComposite in2="hardAlpha" operator="out"/>
<feColorMatrix type="matrix" values="0 0 0 0 0 0 0 0 0 0 0 0 0 0 0 0 0 0 0.15 0"/>
<feBlend mode="normal" in2="BackgroundImageFix" result="effect1_dropShadow_1_21180"/>
<feBlend mode="normal" in="SourceGraphic" in2="effect1_dropShadow_1_21180" result="shape"/>
</filter>
<filter id="filter3_d_1_21180" x="340.756" y="169.574" width="68.1478" height="68.9395" filterUnits="userSpaceOnUse" color-interpolation-filters="sRGB">
<feFlood flood-opacity="0" result="BackgroundImageFix"/>
<feColorMatrix in="SourceAlpha" type="matrix" values="0 0 0 0 0 0 0 0 0 0 0 0 0 0 0 0 0 0 127 0" result="hardAlpha"/>
<feOffset/>
<feGaussianBlur stdDeviation="2.89116"/>
<feComposite in2="hardAlpha" operator="out"/>
<feColorMatrix type="matrix" values="0 0 0 0 0 0 0 0 0 0 0 0 0 0 0 0 0 0 0.15 0"/>
<feBlend mode="normal" in2="BackgroundImageFix" result="effect1_dropShadow_1_21180"/>
<feBlend mode="normal" in="SourceGraphic" in2="effect1_dropShadow_1_21180" result="shape"/>
</filter>
<filter id="filter4_d_1_21180" x="291.086" y="291.693" width="68.1478" height="68.267" filterUnits="userSpaceOnUse" color-interpolation-filters="sRGB">
<feFlood flood-opacity="0" result="BackgroundImageFix"/>
<feColorMatrix in="SourceAlpha" type="matrix" values="0 0 0 0 0 0 0 0 0 0 0 0 0 0 0 0 0 0 127 0" result="hardAlpha"/>
<feOffset/>
<feGaussianBlur stdDeviation="2.89116"/>
<feComposite in2="hardAlpha" operator="out"/>
<feColorMatrix type="matrix" values="0 0 0 0 0 0 0 0 0 0 0 0 0 0 0 0 0 0 0.15 0"/>
<feBlend mode="normal" in2="BackgroundImageFix" result="effect1_dropShadow_1_21180"/>
<feBlend mode="normal" in="SourceGraphic" in2="effect1_dropShadow_1_21180" result="shape"/>
</filter>
<filter id="filter5_d_1_21180" x="49.6972" y="291.716" width="68.1478" height="68.267" filterUnits="userSpaceOnUse" color-interpolation-filters="sRGB">
<feFlood flood-opacity="0" result="BackgroundImageFix"/>
<feColorMatrix in="SourceAlpha" type="matrix" values="0 0 0 0 0 0 0 0 0 0 0 0 0 0 0 0 0 0 127 0" result="hardAlpha"/>
<feOffset/>
<feGaussianBlur stdDeviation="2.89116"/>
<feComposite in2="hardAlpha" operator="out"/>
<feColorMatrix type="matrix" values="0 0 0 0 0 0 0 0 0 0 0 0 0 0 0 0 0 0 0.15 0"/>
<feBlend mode="normal" in2="BackgroundImageFix" result="effect1_dropShadow_1_21180"/>
<feBlend mode="normal" in="SourceGraphic" in2="effect1_dropShadow_1_21180" result="shape"/>
</filter>
<filter id="filter6_d_1_21180" x="-8.63857e-05" y="170.665" width="68.1478" height="68.9395" filterUnits="userSpaceOnUse" color-interpolation-filters="sRGB">
<feFlood flood-opacity="0" result="BackgroundImageFix"/>
<feColorMatrix in="SourceAlpha" type="matrix" values="0 0 0 0 0 0 0 0 0 0 0 0 0 0 0 0 0 0 127 0" result="hardAlpha"/>
<feOffset/>
<feGaussianBlur stdDeviation="2.89116"/>
<feComposite in2="hardAlpha" operator="out"/>
<feColorMatrix type="matrix" values="0 0 0 0 0 0 0 0 0 0 0 0 0 0 0 0 0 0 0.15 0"/>
<feBlend mode="normal" in2="BackgroundImageFix" result="effect1_dropShadow_1_21180"/>
<feBlend mode="normal" in="SourceGraphic" in2="effect1_dropShadow_1_21180" result="shape"/>
</filter>
<filter id="filter7_d_1_21180" x="49.6972" y="50.3766" width="68.1478" height="68.267" filterUnits="userSpaceOnUse" color-interpolation-filters="sRGB">
<feFlood flood-opacity="0" result="BackgroundImageFix"/>
<feColorMatrix in="SourceAlpha" type="matrix" values="0 0 0 0 0 0 0 0 0 0 0 0 0 0 0 0 0 0 127 0" result="hardAlpha"/>
<feOffset/>
<feGaussianBlur stdDeviation="2.89116"/>
<feComposite in2="hardAlpha" operator="out"/>
<feColorMatrix type="matrix" values="0 0 0 0 0 0 0 0 0 0 0 0 0 0 0 0 0 0 0.15 0"/>
<feBlend mode="normal" in2="BackgroundImageFix" result="effect1_dropShadow_1_21180"/>
<feBlend mode="normal" in="SourceGraphic" in2="effect1_dropShadow_1_21180" result="shape"/>
</filter>
</defs>
</svg>
