<svg width="157" height="60" viewBox="0 0 157 60" fill="none" xmlns="http://www.w3.org/2000/svg">
<path d="M22.8145 42.3198C22.6646 41.794 22.8645 41.3182 22.9394 40.8174C23.0394 40.3166 23.1643 39.8158 23.2893 39.3149C23.4142 38.8141 23.5391 38.3384 23.6641 37.8376C23.6891 37.7624 23.7141 37.6623 23.7141 37.5872C23.814 36.9361 23.839 36.26 24.0389 35.659C24.2888 34.9579 24.2638 34.1816 24.5137 33.5055C24.7886 32.7543 24.7386 31.928 25.0385 31.2018C25.2384 30.676 25.2883 30.1501 25.2633 29.5992C25.2633 29.5742 25.2633 29.5492 25.2633 29.5492C25.5382 29.2737 25.4882 28.8981 25.5632 28.5726C25.6132 28.3472 25.7131 28.1469 25.7381 27.9215C25.8381 27.3706 25.913 26.8448 25.988 26.2939C26.013 26.0936 26.038 25.8932 25.988 25.6929C25.963 25.5427 25.8381 25.3924 25.7631 25.2422C25.7131 25.1671 25.6132 25.117 25.5632 25.0168C25.3133 24.6162 25.0884 24.2406 24.8635 23.8399C24.5637 23.3391 24.2388 22.8633 23.9639 22.3625C23.5891 21.7365 23.2393 21.0855 22.9144 20.4344C22.7645 20.159 22.5896 19.9336 22.2397 19.9586C22.0398 19.9837 21.9649 20.0588 21.9399 20.2591C21.9149 20.4845 21.8649 20.7099 21.8399 20.9352C21.8399 21.1105 21.8399 21.2858 21.8649 21.4611C21.9649 21.8868 22.0149 22.2874 21.79 22.6881C21.74 22.7632 21.74 22.8633 21.715 22.9385C21.615 23.5895 21.5401 24.2656 21.4151 24.9167C21.3651 25.1671 21.2402 25.3924 21.1403 25.6178C20.9403 26.0435 20.7404 26.4692 20.4905 26.8949C20.2407 27.3456 19.9908 27.7713 19.6659 28.1719C19.1912 28.7729 18.7164 29.3488 18.1666 29.8496C17.7918 30.2002 17.4669 30.701 16.8672 30.7511C16.8172 30.7511 16.7923 30.8012 16.7423 30.8262C16.1925 31.2519 15.6428 31.6776 14.9181 31.7277C14.7932 31.7277 14.6682 31.8028 14.5683 31.8779C14.3184 32.0532 14.0685 32.2535 13.7187 32.2034H13.6937C12.8691 32.6542 11.9695 32.4789 11.0949 32.529C10.4202 32.5791 9.74551 32.4789 9.07082 32.4538C9.02084 32.4538 8.97087 32.4538 8.92089 32.4288C8.39613 32.0532 7.72144 32.2034 7.1717 31.928C6.74689 31.7277 6.32209 31.5023 5.92227 31.2769C5.74735 31.1768 5.54744 31.1267 5.39751 31.0015C5.07266 30.7761 4.79779 30.4506 4.44795 30.3004C3.79825 30.0249 3.57335 29.3488 2.99862 29.0483C2.99862 29.0483 2.97363 29.0483 2.97363 29.0233C2.5988 28.5475 2.174 28.1218 1.84915 27.596C1.67423 27.3205 1.57427 27.0701 1.34938 26.8197C1.17446 26.6194 1.12448 26.2939 1.02453 26.0184C0.949564 25.7931 0.899587 25.5677 0.774644 25.3674C0.499771 24.9417 0.499769 24.4659 0.374827 23.9902C0.0749654 22.7131 0 21.436 0 20.1339C0.0249885 15.852 0 11.5701 0 7.26311C0 6.83742 0.199906 6.56198 0.599722 6.46181C0.674687 6.43677 0.799631 6.46181 0.874597 6.5119C1.24942 6.7623 1.59926 6.78734 1.97409 6.53694C2.02406 6.5119 2.09903 6.5119 2.14901 6.53694C2.62379 6.7623 3.0486 6.71222 3.52338 6.53694C3.84823 6.41173 4.27303 6.5119 4.64786 6.56198C4.79779 6.56198 4.94772 6.68718 5.12264 6.68718C5.49746 6.68718 5.52245 6.73726 5.49746 7.11287C5.44749 7.53856 5.47247 7.96424 5.47247 8.38993C5.47247 12.772 5.49747 17.1541 5.52245 21.5112C5.52245 22.037 5.57243 22.5879 5.69738 23.0887C5.77234 23.4393 6.02223 23.7398 6.17216 24.0653C6.44703 24.6412 6.82186 25.142 7.27165 25.5928C7.3716 25.6929 7.52153 25.718 7.62148 25.7931C8.09627 26.0685 8.59604 26.369 9.07082 26.6445C9.1208 26.6695 9.19576 26.6945 9.27073 26.6945C9.79548 26.7446 10.3202 26.8698 10.845 26.8698C11.3947 26.8698 11.9945 26.8698 12.4942 26.6695C13.1189 26.4191 13.8436 26.3189 14.2934 25.768C14.6183 25.3674 15.143 25.117 15.268 24.5661C15.268 24.5411 15.3179 24.491 15.3429 24.4659C15.9676 24.0152 16.1176 23.3391 16.2425 22.638C16.2925 22.3625 16.3924 22.1121 16.4174 21.8617C16.4424 21.2607 16.3924 20.6598 16.3924 20.0588C16.3924 16.3779 16.3924 12.6969 16.3924 8.9909C16.3924 8.31481 16.4424 7.63872 16.4424 6.93758C16.4424 6.68718 16.5424 6.61206 16.7673 6.6371C17.0421 6.66214 17.317 6.71222 17.5419 6.46181C17.5919 6.41173 17.7168 6.41173 17.7918 6.41173C19.0412 6.41173 20.3156 6.41173 21.5651 6.41173C21.8149 6.41173 21.8649 6.5119 21.9149 6.73726C22.0149 7.18799 22.1648 7.63872 22.3147 8.08945C22.4147 8.38993 22.5146 8.71546 22.6396 9.01595C22.8395 9.51676 23.0144 10.0176 23.2143 10.5184C23.4142 10.9941 23.6391 11.4699 23.864 11.9457C24.0889 12.4465 24.3388 12.9223 24.5637 13.4231C24.6886 13.6735 24.7386 13.9489 24.8635 14.1993C25.1134 14.7001 25.3633 15.1759 25.6382 15.6517C25.913 16.1525 26.2379 16.6533 26.5128 17.1791C26.6377 17.4045 26.7627 17.6549 26.8626 17.9053C26.8876 17.9554 26.8876 18.0305 26.9376 18.0806C27.0875 18.2809 27.1875 18.5313 27.5123 18.4813C27.8122 18.4312 27.8871 18.1808 27.9621 17.9554C28.212 17.2543 28.4619 16.5531 28.7617 15.877C28.9367 15.5014 29.2115 15.1759 29.4364 14.8253C29.6613 14.4748 29.8862 14.1242 30.1361 13.7987C30.261 13.6234 30.411 13.4982 30.5359 13.348C30.8358 13.0475 31.1356 12.7219 31.4605 12.4465C31.7603 12.171 32.1102 11.9457 32.435 11.7203C32.635 11.5701 32.8099 11.3948 33.0348 11.2696C33.4346 11.0192 33.8594 10.7688 34.2842 10.5434C34.4841 10.4433 34.734 10.3932 34.9589 10.3431C36.0334 10.1428 37.0829 9.667 38.2324 9.74212C39.107 9.81724 39.9816 9.69204 40.8562 9.94244C40.9811 9.96748 41.106 9.96748 41.231 9.99252C41.5309 9.99252 41.7557 10.0176 42.0056 10.268C42.2555 10.5184 42.6553 10.5935 42.9802 10.7437C43.305 10.894 43.6299 11.0192 43.9547 11.1945C44.3296 11.3948 44.7294 11.5951 45.0792 11.8455C45.479 12.146 45.9538 12.3964 46.2537 12.8221C46.4786 13.1226 46.7784 13.398 47.0033 13.6735C47.3032 14.0491 47.628 14.4497 47.8779 14.8754C48.2777 15.5515 48.6775 16.2526 49.0274 16.9788C49.2023 17.3544 49.3023 17.7551 49.4022 18.1557C49.6521 19.0321 49.6271 19.9336 49.6271 20.81C49.6271 21.6864 49.6271 22.5629 49.4772 23.4393C49.3772 24.1154 49.1273 24.7915 48.8775 25.4175C48.7025 25.8932 48.4027 26.3189 48.1528 26.7697C47.9279 27.1453 47.728 27.5459 47.4531 27.8965C47.2532 28.1719 47.0033 28.4223 46.7784 28.6727C46.7534 28.6978 46.7284 28.6978 46.7035 28.7228C46.4786 29.3238 45.8289 29.5492 45.454 30.0249C45.2041 30.3504 44.7044 30.4757 44.3046 30.701C44.2796 30.701 44.2546 30.701 44.2546 30.7261C43.9547 31.1017 43.48 31.1517 43.1051 31.4021C42.9052 31.5274 42.6803 31.6025 42.4554 31.6776C42.3805 31.7026 42.2555 31.7026 42.2055 31.7527C41.8057 32.1033 41.306 32.1283 40.8062 32.1784C40.4563 32.2034 40.0815 32.1283 39.7816 32.4038C39.7317 32.4539 39.6317 32.4288 39.5568 32.4288C38.7072 32.4288 37.8326 32.4288 36.9829 32.4288C36.908 32.4288 36.783 32.4288 36.758 32.3787C36.5581 32.1283 36.2583 32.2285 36.0084 32.1534C35.5086 32.0532 35.0088 31.8779 34.5341 31.7527C34.4841 31.7277 34.4091 31.7026 34.3592 31.7026C33.7095 31.7527 33.2597 31.327 32.7099 31.1017C32.6849 31.1017 32.6849 31.0766 32.6599 31.0766C32.1852 30.9765 31.7853 30.676 31.3605 30.4756C30.8858 30.2503 30.6858 30.4506 30.5859 30.9514C30.5109 31.3521 30.361 31.7277 30.261 32.1283C30.2361 32.2535 30.1611 32.3537 30.1611 32.4789C30.0611 33.1049 29.9862 33.7059 29.8612 34.3319C29.7613 34.9329 29.6113 35.5088 29.4864 36.1098C29.4364 36.3351 29.4364 36.5355 29.3864 36.7608C29.3615 36.9111 29.2865 37.0363 29.2365 37.1865C29.1865 37.3117 29.1366 37.4619 29.1366 37.5872C29.1616 38.2132 28.9117 38.7891 28.7617 39.3901C28.6368 39.9159 28.5618 40.4418 28.4619 40.9426C28.4119 41.218 28.4119 41.4684 28.3619 41.7439C28.3369 41.844 28.287 41.9442 28.212 42.0694C28.162 42.1445 28.137 42.2196 28.087 42.2948C26.3878 42.3198 24.5887 42.3198 22.8145 42.3198ZM38.4323 26.8197C38.9071 26.7446 39.4568 26.995 39.8816 26.5443C39.8816 26.5443 39.9316 26.5443 39.9316 26.5193C40.3314 26.4441 40.7312 26.369 41.0811 26.2438C41.3309 26.1436 41.6058 25.9934 41.7308 25.768C41.9057 25.4926 42.0806 25.3674 42.3805 25.2923C42.6054 25.2422 42.7303 25.142 42.8053 24.9417C42.8802 24.7414 43.0052 24.5411 43.1551 24.3908C43.43 24.0903 43.6799 23.7898 43.8048 23.3641C43.8548 23.1388 43.9547 22.9385 44.0297 22.7131C44.3545 21.9118 44.5045 21.0855 44.4045 20.184C44.2796 19.2575 43.9297 18.4312 43.455 17.6549C43.38 17.5047 43.33 17.3294 43.2051 17.2292C42.8302 16.9037 42.4804 16.5531 42.0806 16.2777C41.6558 15.9772 41.256 15.6266 40.6812 15.6016C40.2814 15.5766 39.8816 15.5014 39.5318 15.3512C38.9071 15.0757 38.2574 15.1008 37.6826 15.2761C37.0079 15.4764 36.3083 15.6767 35.7335 16.1274C35.4587 16.3528 35.1088 16.5281 34.8839 16.8035C34.4841 17.3294 34.0843 17.8803 33.7844 18.4813C33.5095 19.0321 33.2846 19.6081 33.1347 20.209C32.8349 21.2607 32.61 22.3124 32.3851 23.3892C32.2851 23.8149 32.3601 24.2155 32.6849 24.516C32.8598 24.6913 33.0598 24.8666 33.2597 24.9667C33.9843 25.3924 34.734 25.7931 35.4836 26.2188C35.5336 26.2438 35.6086 26.2438 35.6835 26.2688C35.9334 26.3189 36.1833 26.344 36.4082 26.4441C37.0579 26.7947 37.7326 26.8698 38.4323 26.8197Z" fill="#72DC40"/>
<path d="M52.5508 10.5159C53.2005 10.5159 53.8252 10.5159 54.4749 10.5159C54.7748 10.5159 54.8747 10.616 54.9247 10.9416C54.9747 11.3422 55.1246 11.7429 55.2496 12.1435C55.3995 12.6694 55.5494 13.1952 55.6993 13.7211C55.8243 14.1467 55.9742 14.5724 56.0992 14.9981C56.1991 15.3737 56.2991 15.7493 56.424 16.1249C56.549 16.6007 56.6989 17.0765 56.8238 17.5523C56.9488 18.003 57.0737 18.4788 57.1987 18.9295C57.3236 19.3552 57.4735 19.7809 57.5985 20.2316C57.7234 20.6573 57.8234 21.083 57.9483 21.5086C58.0732 21.9594 58.2232 22.4101 58.3481 22.8859C58.4481 23.2364 58.573 23.6121 58.673 23.9626C58.7479 24.2631 58.8229 24.5636 58.8979 24.8641C58.9229 24.9642 59.0478 25.0143 59.1228 25.0894C59.1977 25.0143 59.2977 24.9392 59.3227 24.8641C59.4976 24.1629 59.6225 23.4368 59.7975 22.7356C59.9224 22.2348 60.0723 21.734 60.1973 21.2332C60.2223 21.133 60.2223 21.0329 60.2472 20.9327C60.2972 20.6823 60.3722 20.4319 60.4222 20.1815C60.4222 20.1565 60.4472 20.1314 60.4472 20.1064C60.5471 19.6306 60.6471 19.1298 60.747 18.654C60.872 18.1532 60.9969 17.6775 61.1218 17.1766C61.1468 17.1015 61.1718 17.0264 61.1968 16.9513C61.3967 16.0498 61.5716 15.1734 61.7715 14.2719C61.8965 13.7711 62.0464 13.2703 62.1714 12.7695C62.2963 12.2687 62.3713 11.7679 62.4962 11.2671C62.5462 11.0668 62.5962 10.8664 62.6961 10.7162C62.7461 10.6411 62.871 10.591 62.971 10.591C64.2954 10.591 65.6198 10.591 66.9192 10.591C67.269 10.591 67.294 10.9165 67.344 11.1168C67.4689 11.6177 67.5439 12.1185 67.6688 12.6193C67.7938 13.095 67.9437 13.5708 68.0686 14.0466C68.1936 14.5224 68.2685 15.0232 68.3935 15.4989C68.4934 15.9497 68.6184 16.3753 68.7183 16.8261C68.8683 17.402 68.9932 17.9779 69.1431 18.5539C69.2681 19.0547 69.418 19.5555 69.543 20.0563C69.568 20.1314 69.5929 20.1815 69.6179 20.2566C69.7679 20.8826 69.9428 21.5337 70.0927 22.1597C70.2177 22.6605 70.2926 23.1613 70.3926 23.6371C70.4675 23.9877 70.5425 24.3382 70.6674 24.6638C70.6924 24.7639 70.8674 24.839 70.9923 24.839C71.0922 24.839 71.2172 24.7138 71.2422 24.6137C71.3921 24.0628 71.542 23.5369 71.692 22.986C71.8169 22.5103 71.8919 22.0095 72.0168 21.5337C72.1418 21.083 72.2667 20.6573 72.4166 20.2316C72.4416 20.1815 72.4666 20.1314 72.4666 20.0813C72.5666 19.6306 72.6665 19.1799 72.7915 18.7292C72.9164 18.2534 73.0663 17.7776 73.2163 17.3018C73.3412 16.8511 73.4162 16.4254 73.5411 15.9747C73.6661 15.524 73.791 15.0732 73.9409 14.6225C74.0409 14.297 74.1408 13.9965 74.2158 13.671C74.3408 13.2202 74.4157 12.7445 74.5407 12.2937C74.6906 11.7679 74.8405 11.217 75.0154 10.6912C75.0404 10.616 75.1904 10.5409 75.2653 10.5409C76.6647 10.5409 78.039 10.5409 79.4384 10.5409C79.6633 10.5409 79.7133 10.6661 79.6633 10.8414C79.5384 11.2671 79.3884 11.6677 79.2635 12.0934C79.1635 12.444 79.0636 12.7695 78.9636 13.1201C78.7137 13.9464 78.4638 14.7728 78.239 15.5991C78.114 16.0498 78.039 16.4755 77.9141 16.9262C77.7892 17.3519 77.6392 17.7776 77.5143 18.2033C77.4143 18.5038 77.3394 18.7792 77.2644 19.0797C77.1395 19.5305 77.0645 19.9812 76.9395 20.4069C76.8146 20.8326 76.6647 21.2582 76.5397 21.6839C76.4398 22.0095 76.3398 22.335 76.2399 22.6856C76.1399 23.1112 76.04 23.5369 75.94 23.9626C75.865 24.213 75.7901 24.4634 75.7151 24.6888C75.5902 25.1145 75.4402 25.5652 75.3153 25.9909C75.2153 26.2914 75.1154 26.5919 75.0404 26.8924C74.9155 27.293 74.8405 27.7187 74.7156 28.1193C74.5906 28.545 74.4657 28.9707 74.3408 29.3964C74.3158 29.4465 74.2908 29.4966 74.2658 29.5717C74.0909 30.2728 73.9159 30.974 73.691 31.6751C73.6661 31.7753 73.4911 31.9005 73.3662 31.9005C72.9914 31.9255 72.5916 31.9255 72.1917 31.9255C71.2672 31.9255 70.3426 31.9255 69.393 31.9505C69.0682 31.9505 68.8933 31.7753 68.8183 31.4497C68.6934 30.8738 68.5184 30.2728 68.3685 29.6969C68.2436 29.2462 68.1686 28.7704 68.0437 28.2946C67.9187 27.7688 67.7688 27.2429 67.6438 26.7171C67.6188 26.667 67.5939 26.6169 67.5689 26.5418C67.4689 26.041 67.369 25.5402 67.244 25.0644C67.1191 24.6137 66.9692 24.1629 66.8442 23.6872C66.7443 23.2865 66.6443 22.8608 66.5443 22.4351C66.3944 21.8592 66.2445 21.2833 66.0946 20.7074C65.9696 20.2566 65.8696 19.7809 65.7697 19.3051C65.6448 18.7792 65.4948 18.2784 65.3699 17.7526C65.3449 17.6524 65.3449 17.5272 65.2949 17.427C65.2449 17.3269 65.17 17.2017 65.095 17.2017C64.9951 17.2017 64.8701 17.2768 64.7702 17.3519C64.7452 17.377 64.7202 17.4521 64.7202 17.4771C64.6202 17.8778 64.5453 18.2784 64.4453 18.654C64.2954 19.28 64.1455 19.881 63.9705 20.507C63.8956 20.8075 63.8206 21.108 63.7706 21.4085C63.6457 21.9343 63.5457 22.4602 63.4208 22.986C63.3208 23.4368 63.1709 23.8875 63.046 24.3382C63.021 24.4133 62.971 24.5135 62.946 24.5886C62.7711 25.2397 62.6212 25.8657 62.4712 26.5167C62.3463 26.9925 62.2713 27.4933 62.1714 27.9691C62.0464 28.4198 61.8965 28.8706 61.7715 29.3463C61.6716 29.747 61.5716 30.1476 61.4717 30.5232C61.3717 30.8738 61.2968 31.2494 61.1968 31.625C61.1468 31.8003 61.0719 31.9005 60.872 31.9005C59.4976 31.9005 58.1232 31.9005 56.7738 31.9005C56.474 31.9005 56.424 31.5749 56.374 31.3746C56.2241 30.974 56.1741 30.5232 56.0492 30.0975C55.9242 29.6969 55.7743 29.2962 55.6494 28.8956C55.5244 28.545 55.4245 28.1694 55.3245 27.8189C55.1746 27.318 55.0247 26.8172 54.8747 26.3164C54.7498 25.9158 54.6498 25.4901 54.5499 25.0894C54.4749 24.814 54.375 24.5135 54.3 24.2381C54.1751 23.8374 54.0501 23.4117 53.9252 23.0111C53.8002 22.5604 53.6753 22.1096 53.5503 21.6589C53.4254 21.2582 53.3004 20.8576 53.1505 20.4569C53.0506 20.1565 52.9506 19.8309 52.8507 19.5304C52.7507 19.1298 52.6508 18.7542 52.5508 18.3535C52.4259 17.9028 52.3009 17.4771 52.176 17.0264C52.051 16.6007 51.9261 16.2001 51.8261 15.7744C51.7012 15.3737 51.5762 14.948 51.4513 14.5474C51.4263 14.4472 51.3763 14.3721 51.3514 14.2719C51.2014 13.7461 51.0265 13.2202 50.8766 12.6944C50.7766 12.3188 50.6767 11.9181 50.5767 11.5425C50.5267 11.3672 50.4518 11.217 50.3768 11.0417C50.2269 10.6661 50.3018 10.5409 50.7016 10.5409C51.2764 10.5159 51.9011 10.5159 52.5508 10.5159Z" fill="white"/>
<path d="M121.717 15.9508C121.717 10.7424 121.717 5.53395 121.717 0.325526C121.717 0.0751215 121.817 0 122.042 0C123.391 0 124.716 0 126.065 0C126.29 0 126.39 0.0751215 126.39 0.325526C126.39 5.50891 126.39 10.6923 126.365 15.9007C126.365 16.1511 126.365 16.4266 126.365 16.677C126.365 16.9274 126.465 17.0776 126.74 17.0776C127.315 17.0776 127.914 17.1027 128.464 17.0025C128.989 16.9023 129.539 16.702 130.013 16.4516C130.613 16.1261 131.213 15.7254 131.713 15.2747C132.187 14.824 132.587 14.2731 132.912 13.7222C133.237 13.1963 133.462 12.5954 133.637 12.0194C133.762 11.6689 133.787 11.2432 133.787 10.8676C133.787 10.5921 133.912 10.517 134.136 10.517C134.511 10.517 134.886 10.517 135.236 10.517C136.235 10.517 137.21 10.517 138.21 10.517C138.559 10.517 138.584 10.542 138.534 10.8926C138.459 11.4936 138.409 12.0946 138.285 12.6705C138.11 13.3466 137.885 13.9976 137.635 14.6487C137.435 15.1495 137.185 15.6503 136.91 16.1261C136.31 17.2028 135.461 18.1043 134.536 18.9056C134.061 19.3062 133.537 19.6318 133.037 19.9823C132.812 20.1326 132.787 20.3078 132.962 20.5332C133.212 20.8838 133.462 21.2343 133.687 21.5849C134.111 22.1859 134.511 22.7869 134.936 23.3628C135.461 24.114 135.986 24.8402 136.51 25.5914C137.035 26.3426 137.56 27.1189 138.085 27.8701C138.734 28.7966 139.384 29.698 140.034 30.6245C140.259 30.9501 140.508 31.2756 140.733 31.6011C140.783 31.6512 140.808 31.7514 140.783 31.8265C140.758 31.8766 140.658 31.9016 140.583 31.9016C139.059 31.9016 137.535 31.8515 136.036 31.8766C135.486 31.9016 135.186 31.6762 134.911 31.2756C134.511 30.7247 134.111 30.1488 133.712 29.5979C133.312 29.047 132.937 28.5211 132.537 27.9702C131.937 27.1439 131.313 26.3426 130.713 25.5413C130.138 24.74 129.564 23.9387 128.989 23.1374C128.789 22.862 128.589 22.5615 128.389 22.286C128.039 21.7852 127.265 21.5348 126.69 21.66C126.465 21.7101 126.39 21.8604 126.39 22.0607C126.39 22.3862 126.39 22.7117 126.39 23.0623C126.39 25.8668 126.39 28.6714 126.39 31.4759C126.39 31.8515 126.315 31.8766 125.94 31.8766C125.365 31.8515 124.791 31.8515 124.241 31.8515C123.491 31.8515 122.742 31.8766 121.992 31.8766C121.892 31.8766 121.792 31.7513 121.742 31.6762C121.692 31.6011 121.717 31.5009 121.717 31.4008C121.742 26.2675 121.742 21.1091 121.717 15.9508C121.742 15.9508 121.717 15.9508 121.717 15.9508Z" fill="white"/>
<path d="M91.5579 9.71391C92.1327 9.81408 92.7074 9.8892 93.2822 9.98936C93.8069 10.0895 94.3317 10.1646 94.8564 10.2898C95.3062 10.415 95.781 10.6154 96.1808 10.8407C96.9305 11.2664 97.6551 11.7172 98.3298 12.218C99.1295 12.7939 99.8041 13.495 100.329 14.2963C100.779 14.9724 101.203 15.6485 101.553 16.3496C101.828 16.9005 101.953 17.5015 102.128 18.1025C102.453 19.1792 102.603 20.256 102.553 21.3828C102.528 22.2842 102.403 23.1857 102.128 24.0621C101.953 24.6381 101.803 25.2641 101.553 25.815C101.203 26.5411 100.779 27.2172 100.329 27.8933C99.6292 28.945 98.7046 29.7714 97.6801 30.4725C97.0804 30.8731 96.4057 31.1987 95.756 31.4991C95.1813 31.7746 94.5566 32.0751 93.9318 32.1752C92.5325 32.4256 91.1081 32.6761 89.6838 32.3004C89.5089 32.2504 89.309 32.2504 89.1341 32.2253C88.9341 32.2003 88.7592 32.1252 88.5593 32.0751C88.4844 32.05 88.4344 32.025 88.3594 32C87.5098 31.8247 86.7602 31.4491 86.0105 31.0484C85.1859 30.6227 84.4612 30.0718 83.7865 29.4458C83.1118 28.8449 82.5121 28.1437 82.0373 27.3675C81.6875 26.8416 81.4376 26.2406 81.1877 25.6647C80.9378 25.0888 80.7379 24.5128 80.538 23.9119C80.513 23.8117 80.488 23.6865 80.488 23.5864C80.4631 23.386 80.4631 23.1857 80.4131 22.9854C80.0882 21.8335 80.2132 20.6817 80.3131 19.5298C80.3631 18.9789 80.588 18.4781 80.688 17.9272C80.8629 17.0508 81.2627 16.2745 81.6875 15.4732C82.2372 14.4215 82.9869 13.5451 83.8365 12.7188C84.5362 12.0427 85.3108 11.4918 86.1604 11.0411C86.6102 10.7907 87.085 10.6404 87.5598 10.4401C87.9846 10.2898 88.3844 10.0895 88.8092 10.0144C89.6088 9.86416 90.4085 9.81408 91.2081 9.71391C91.3081 9.71391 91.433 9.71391 91.533 9.71391C91.5579 9.76399 91.5579 9.73895 91.5579 9.71391ZM84.7111 21.2325C84.7861 25.1889 87.9346 28.0436 91.5829 27.9434C93.557 27.8933 95.1813 26.9919 96.4807 25.4894C97.8301 23.9369 98.3048 22.109 98.005 20.1057C97.5802 17.3012 94.9814 14.5467 91.383 14.5718C87.4099 14.5968 84.7361 17.8521 84.7111 21.2325Z" fill="white"/>
<path d="M105.975 21.1856C105.975 17.8051 105.975 14.4247 105.975 11.0692C105.975 10.9941 105.975 10.919 105.975 10.8689C105.925 10.6436 106.025 10.5434 106.275 10.5434C107.624 10.5434 108.999 10.5434 110.348 10.5434C110.573 10.5434 110.673 10.6185 110.673 10.8439C110.648 11.6201 110.648 12.3964 110.673 13.1977C110.673 13.2978 110.748 13.4982 110.823 13.5232C110.923 13.5483 111.098 13.4982 111.198 13.4481C111.323 13.373 111.398 13.2728 111.498 13.1476C111.997 12.4715 112.647 11.9957 113.372 11.5951C113.871 11.3196 114.371 11.0442 114.921 10.8689C115.446 10.7187 115.996 10.4933 116.57 10.5684C117.095 10.6185 117.62 10.5684 118.17 10.5684C118.369 10.5684 118.444 10.6436 118.444 10.8439C118.444 12.146 118.444 13.423 118.444 14.7252C118.444 15.1508 118.444 15.1008 118.02 15.1258C117.295 15.1258 116.57 15.1508 115.846 15.226C114.446 15.3512 113.347 16.0022 112.372 17.0038C111.822 17.5547 111.448 18.2058 111.148 18.932C110.823 19.7082 110.673 20.5345 110.698 21.3859C110.698 24.7664 110.698 28.1469 110.698 31.5273C110.698 31.9781 110.673 32.0031 110.223 32.0031C109.124 32.0031 107.999 31.9781 106.9 31.9781C106.725 31.9781 106.55 32.0031 106.35 32.0031C106.125 32.0281 106.025 31.928 106.025 31.7276C106.025 31.5023 106.025 31.2769 106.025 31.0265C105.975 27.6961 105.975 24.4409 105.975 21.1856Z" fill="white"/>
<path d="M147.284 13.697C147.159 13.5468 147.059 13.4466 146.984 13.3214C146.635 12.7705 146.285 12.1946 145.91 11.6437C145.86 11.5686 145.735 11.4935 145.685 11.5185C145.61 11.5436 145.535 11.6437 145.51 11.7188C145.485 11.794 145.485 11.8691 145.485 11.9442C145.51 12.9458 145.51 13.9474 145.51 14.9491C145.51 15.0242 145.41 15.0993 145.335 15.1744C145.285 15.0993 145.16 15.0242 145.16 14.9491C145.16 13.8473 145.16 12.7455 145.185 11.6437C145.185 11.3933 145.16 11.1679 145.185 10.9175C145.185 10.7923 145.31 10.6922 145.36 10.567C145.435 10.6421 145.56 10.6922 145.61 10.7673C146.11 11.5185 146.585 12.2697 147.084 13.0209C147.234 13.2463 147.334 13.2463 147.484 13.0209C147.834 12.4951 148.159 11.9442 148.509 11.4184C148.684 11.1679 148.859 10.9175 149.059 10.6671C149.108 10.6171 149.233 10.567 149.258 10.592C149.333 10.6421 149.408 10.7423 149.408 10.8174C149.433 11.218 149.433 11.5936 149.433 11.9943C149.433 12.9709 149.433 13.9474 149.433 14.899C149.433 14.9991 149.308 15.0743 149.233 15.1744C149.183 15.0743 149.084 14.9741 149.084 14.8739C149.084 14.2229 149.084 13.5969 149.084 12.9458C149.084 12.5953 149.108 12.2196 149.108 11.8691C149.108 11.7439 149.009 11.5936 148.959 11.4684C148.859 11.5436 148.709 11.5936 148.634 11.7188C148.259 12.2697 147.909 12.8457 147.534 13.3966C147.484 13.4967 147.384 13.5718 147.284 13.697Z" fill="white"/>
<path d="M142.01 13.1728C142.01 12.5718 142.01 11.9709 142.01 11.3699C142.01 11.0444 141.935 10.9442 141.61 10.9442C141.285 10.9442 140.961 10.9442 140.661 10.9442C140.561 10.9442 140.461 10.844 140.386 10.794C140.486 10.7188 140.561 10.5936 140.661 10.5936C141.41 10.5936 142.16 10.6187 142.91 10.6187C143.135 10.6187 143.36 10.5686 143.559 10.5936C143.684 10.6187 143.884 10.6938 143.884 10.7689C143.909 10.9693 143.709 10.9442 143.584 10.9442C143.385 10.9442 143.21 10.9442 143.01 10.9442C142.51 10.9192 142.36 11.0694 142.36 11.5702C142.36 12.697 142.36 13.8239 142.36 14.9507C142.36 15.1009 142.26 15.3764 142.21 15.3764C141.935 15.3513 141.985 15.126 141.985 14.9507C141.985 14.3497 141.985 13.7487 142.01 13.1728Z" fill="white"/>
<path d="M0.192546 50.6098C0.228649 50.6336 0.264751 50.681 0.312888 50.681C0.397126 50.6929 0.481365 50.6929 0.55357 50.6929C3.09277 50.6929 5.63196 50.6929 8.18319 50.6929C8.2193 50.6929 8.2554 50.6929 8.27947 50.681C8.42388 50.6692 8.48405 50.7166 8.48405 50.859C8.48405 51.3099 8.48405 51.7726 8.48405 52.2235C8.48405 53.5167 8.49608 54.81 8.49608 56.1151C8.49608 56.2338 8.48405 56.3643 8.45998 56.483C8.44795 56.5304 8.42388 56.5897 8.38778 56.6253C8.2193 56.7558 8.03878 56.8745 7.87031 56.9931C7.8342 57.0169 7.7981 57.0287 7.77403 57.0525C7.61759 57.1711 7.48521 57.3016 7.32877 57.4203C7.16029 57.5389 6.97978 57.6457 6.81131 57.7525C6.69097 57.8355 6.58266 57.9186 6.46232 58.0017C6.30587 58.1203 6.14943 58.2508 5.99299 58.3695C5.82451 58.4881 5.65603 58.5949 5.48755 58.7017C5.43942 58.7373 5.40331 58.7729 5.35518 58.8085C5.30704 58.8441 5.25891 58.8797 5.21077 58.9153C5.1506 58.9627 5.0784 59.0102 5.01822 59.0576C4.97009 59.0932 4.92195 59.117 4.87381 59.1525C4.82568 59.1881 4.76551 59.2 4.72941 59.2475C4.66924 59.3305 4.6211 59.3898 4.51279 59.4136C4.46465 59.4254 4.42855 59.4848 4.40448 59.5322C4.32025 59.6509 4.23601 59.6509 4.11567 59.556C3.93516 59.4136 3.73057 59.2831 3.53803 59.1407C3.48989 59.1051 3.45379 59.0695 3.41769 59.0458C3.35752 58.9983 3.28531 58.9627 3.22514 58.9153C3.21311 58.9034 3.18904 58.9034 3.177 58.8915C2.90022 58.6898 2.62344 58.4881 2.34665 58.2745C2.23834 58.1915 2.14207 58.061 2.02173 58.0135C1.85325 57.9542 1.74494 57.8355 1.61257 57.7406C1.42002 57.5983 1.23951 57.4559 1.04697 57.3254C0.734082 57.0999 0.409162 56.8864 0.0962751 56.6728C0.0481386 56.6372 0.0120348 56.5541 0.0120348 56.4948C0.0120348 55.4388 0.0120341 54.3829 0 53.315C0 52.5082 0 51.6895 0 50.8827C0 50.7997 0.0361023 50.7048 0.0601705 50.6217C0.120341 50.6098 0.156444 50.6098 0.192546 50.6098ZM5.48755 55.3558C5.644 55.3321 5.84858 55.2965 6.05316 55.2609C6.1013 55.249 6.14943 55.1897 6.1735 55.1422C6.32994 54.7388 6.48639 54.3235 6.64283 53.9201C6.69097 53.8015 6.72707 53.6828 6.76317 53.5642C6.79927 53.4455 6.7391 53.3506 6.64283 53.3744C6.49842 53.3981 6.34198 53.4218 6.23367 53.493C6.00502 53.6473 5.74027 53.6591 5.47552 53.7066C5.40331 53.7184 5.29501 53.671 5.23484 53.6117C5.05433 53.3981 4.88585 53.1727 4.70534 52.9472C4.63313 52.8523 4.5489 52.7693 4.48872 52.6625C4.44059 52.5675 4.39245 52.4964 4.28414 52.4964C4.15177 52.4964 4.0555 52.532 3.98329 52.6506C3.89905 52.7811 3.77871 52.8998 3.68244 53.0303C3.53803 53.2083 3.38159 53.3625 3.27328 53.5523C3.18904 53.6947 3.08073 53.7303 2.93632 53.7066C2.84005 53.6947 2.73174 53.671 2.63547 53.6354C2.38275 53.5642 2.13004 53.4811 1.87732 53.3981C1.75698 53.3625 1.68478 53.3981 1.70884 53.5049C1.74495 53.6591 1.79308 53.8134 1.85325 53.9676C1.93749 54.1693 2.05783 54.371 2.13004 54.5727C2.19021 54.7388 2.21428 54.9168 2.25038 55.0829C2.27445 55.1778 2.32258 55.249 2.41886 55.2727C2.65954 55.3321 2.90022 55.3795 3.15294 55.3558C3.65837 55.3202 4.1638 55.3914 4.66924 55.2965C4.92195 55.2371 5.1867 55.3321 5.48755 55.3558ZM4.24804 55.8185C3.73058 55.8185 3.22514 55.8185 2.70767 55.8185C2.35869 55.8185 2.40682 55.8185 2.39479 56.127C2.38275 56.3168 2.41886 56.3524 2.6114 56.3524C3.68244 56.3524 4.74144 56.3524 5.81248 56.3524C6.12536 56.3524 6.12536 56.3406 6.1374 56.0321C6.1374 55.8304 6.12536 55.8067 5.92078 55.8067C5.36721 55.8185 4.80161 55.8185 4.24804 55.8185Z" fill="#39C1F0"/>
<path d="M16.8815 52.0693V52.9748H15.3911V57.6624H14.2693V52.9748H12.7789V52.0693H16.8815ZM20.2962 57.7184C19.7727 57.7184 19.292 57.5956 18.8539 57.3499C18.4159 57.1041 18.0686 56.7649 17.8122 56.3322C17.5558 55.8942 17.4276 55.4 17.4276 54.8498C17.4276 54.3049 17.5558 53.8161 17.8122 53.3834C18.0686 52.9454 18.4159 52.6035 18.8539 52.3578C19.292 52.112 19.7727 51.9892 20.2962 51.9892C20.8251 51.9892 21.3059 52.112 21.7386 52.3578C22.1766 52.6035 22.5212 52.9454 22.7723 53.3834C23.0287 53.8161 23.1569 54.3049 23.1569 54.8498C23.1569 55.4 23.0287 55.8942 22.7723 56.3322C22.5212 56.7649 22.1766 57.1041 21.7386 57.3499C21.3005 57.5956 20.8198 57.7184 20.2962 57.7184ZM20.2962 56.7168C20.6328 56.7168 20.9293 56.642 21.1857 56.4925C21.4421 56.3375 21.6424 56.1185 21.7867 55.8354C21.9309 55.5523 22.003 55.2237 22.003 54.8498C22.003 54.4759 21.9309 54.15 21.7867 53.8722C21.6424 53.5891 21.4421 53.3728 21.1857 53.2232C20.9293 53.0736 20.6328 52.9988 20.2962 52.9988C19.9597 52.9988 19.6606 53.0736 19.3988 53.2232C19.1424 53.3728 18.9421 53.5891 18.7978 53.8722C18.6536 54.15 18.5815 54.4759 18.5815 54.8498C18.5815 55.2237 18.6536 55.5523 18.7978 55.8354C18.9421 56.1185 19.1424 56.3375 19.3988 56.4925C19.6606 56.642 19.9597 56.7168 20.2962 56.7168ZM28.0701 53.8001C28.0701 54.0993 27.998 54.3797 27.8537 54.6415C27.7148 54.9032 27.4931 55.1142 27.1886 55.2745C26.8895 55.4348 26.5102 55.5149 26.0508 55.5149H25.1133V57.6624H23.9915V52.0693H26.0508C26.4835 52.0693 26.8521 52.1441 27.1566 52.2937C27.4611 52.4433 27.6881 52.6489 27.8377 52.9107C27.9926 53.1724 28.0701 53.4689 28.0701 53.8001ZM26.0027 54.6094C26.3126 54.6094 26.5423 54.54 26.6918 54.4011C26.8414 54.2569 26.9162 54.0565 26.9162 53.8001C26.9162 53.2552 26.6117 52.9828 26.0027 52.9828H25.1133V54.6094H26.0027ZM33.6605 57.6624L32.4266 55.4828H31.8977V57.6624H30.7759V52.0693H32.8753C33.308 52.0693 33.6766 52.1468 33.9811 52.3017C34.2856 52.4513 34.5126 52.6569 34.6622 52.9187C34.8171 53.1751 34.8945 53.4636 34.8945 53.7841C34.8945 54.1527 34.7877 54.4866 34.574 54.7857C34.3603 55.0795 34.0425 55.2825 33.6205 55.3947L34.9586 57.6624H33.6605ZM31.8977 54.6415H32.8352C33.1397 54.6415 33.3667 54.5694 33.5163 54.4251C33.6659 54.2755 33.7407 54.0699 33.7407 53.8081C33.7407 53.5517 33.6659 53.3541 33.5163 53.2152C33.3667 53.0709 33.1397 52.9988 32.8352 52.9988H31.8977V54.6415ZM39.3387 56.5966H37.1111L36.7425 57.6624H35.5646L37.5759 52.0613H38.882L40.8932 57.6624H39.7073L39.3387 56.5966ZM39.0342 55.6992L38.2249 53.3594L37.4156 55.6992H39.0342ZM45.4512 52.0693V52.9748H43.9608V57.6624H42.839V52.9748H41.3485V52.0693H45.4512ZM47.3915 52.9748V54.377H49.2746V55.2665H47.3915V56.7489H49.5149V57.6624H46.2697V52.0613H49.5149V52.9748H47.3915ZM52.4896 52.0693C53.0772 52.0693 53.5927 52.1842 54.0361 52.4139C54.4848 52.6436 54.8293 52.9721 55.0697 53.3995C55.3155 53.8215 55.4383 54.3129 55.4383 54.8738C55.4383 55.4348 55.3155 55.9262 55.0697 56.3482C54.8293 56.7649 54.4848 57.0881 54.0361 57.3178C53.5927 57.5475 53.0772 57.6624 52.4896 57.6624H50.5344V52.0693H52.4896ZM52.4495 56.7088C53.0371 56.7088 53.4912 56.5486 53.8117 56.228C54.1322 55.9075 54.2925 55.4561 54.2925 54.8738C54.2925 54.2916 54.1322 53.8375 53.8117 53.5116C53.4912 53.1804 53.0371 53.0148 52.4495 53.0148H51.6562V56.7088H52.4495Z" fill="#39C1F0"/>
<path d="M81.1703 53.3538V52.3202H83.1014V58.1616H81.9475V53.3538H81.1703ZM84.2096 55.1648C84.2096 54.2406 84.3752 53.5168 84.7064 52.9933C85.043 52.4697 85.5985 52.208 86.3731 52.208C87.1477 52.208 87.7006 52.4697 88.0318 52.9933C88.3683 53.5168 88.5366 54.2406 88.5366 55.1648C88.5366 56.0943 88.3683 56.8235 88.0318 57.3523C87.7006 57.8812 87.1477 58.1456 86.3731 58.1456C85.5985 58.1456 85.043 57.8812 84.7064 57.3523C84.3752 56.8235 84.2096 56.0943 84.2096 55.1648ZM87.4308 55.1648C87.4308 54.7695 87.4041 54.4383 87.3507 54.1712C87.3026 53.8987 87.2011 53.677 87.0462 53.5061C86.8966 53.3351 86.6723 53.2497 86.3731 53.2497C86.074 53.2497 85.8469 53.3351 85.692 53.5061C85.5424 53.677 85.4409 53.8987 85.3875 54.1712C85.3394 54.4383 85.3154 54.7695 85.3154 55.1648C85.3154 55.5708 85.3394 55.9126 85.3875 56.1904C85.4356 56.4629 85.5371 56.6846 85.692 56.8555C85.8469 57.0211 86.074 57.1039 86.3731 57.1039C86.6723 57.1039 86.8993 57.0211 87.0542 56.8555C87.2091 56.6846 87.3106 56.4629 87.3587 56.1904C87.4068 55.9126 87.4308 55.5708 87.4308 55.1648ZM89.3899 55.1648C89.3899 54.2406 89.5555 53.5168 89.8867 52.9933C90.2232 52.4697 90.7788 52.208 91.5534 52.208C92.328 52.208 92.8808 52.4697 93.212 52.9933C93.5486 53.5168 93.7169 54.2406 93.7169 55.1648C93.7169 56.0943 93.5486 56.8235 93.212 57.3523C92.8808 57.8812 92.328 58.1456 91.5534 58.1456C90.7788 58.1456 90.2232 57.8812 89.8867 57.3523C89.5555 56.8235 89.3899 56.0943 89.3899 55.1648ZM92.6111 55.1648C92.6111 54.7695 92.5844 54.4383 92.5309 54.1712C92.4829 53.8987 92.3814 53.677 92.2265 53.5061C92.0769 53.3351 91.8525 53.2497 91.5534 53.2497C91.2542 53.2497 91.0272 53.3351 90.8723 53.5061C90.7227 53.677 90.6212 53.8987 90.5678 54.1712C90.5197 54.4383 90.4957 54.7695 90.4957 55.1648C90.4957 55.5708 90.5197 55.9126 90.5678 56.1904C90.6159 56.4629 90.7173 56.6846 90.8723 56.8555C91.0272 57.0211 91.2542 57.1039 91.5534 57.1039C91.8525 57.1039 92.0796 57.0211 92.2345 56.8555C92.3894 56.6846 92.4909 56.4629 92.539 56.1904C92.587 55.9126 92.6111 55.5708 92.6111 55.1648ZM94.4419 53.7545C94.4419 53.3485 94.5594 53.0307 94.7945 52.8009C95.0349 52.5712 95.342 52.4564 95.716 52.4564C96.0899 52.4564 96.3944 52.5712 96.6295 52.8009C96.8698 53.0307 96.99 53.3485 96.99 53.7545C96.99 54.1658 96.8698 54.4863 96.6295 54.716C96.3944 54.9457 96.0899 55.0606 95.716 55.0606C95.342 55.0606 95.0349 54.9457 94.7945 54.716C94.5594 54.4863 94.4419 54.1658 94.4419 53.7545ZM99.5862 52.5525L96.4371 58.1616H95.3474L98.4885 52.5525H99.5862ZM95.708 53.1295C95.4142 53.1295 95.2672 53.3378 95.2672 53.7545C95.2672 54.1765 95.4142 54.3875 95.708 54.3875C95.8522 54.3875 95.9644 54.3368 96.0445 54.2353C96.1246 54.1284 96.1647 53.9682 96.1647 53.7545C96.1647 53.3378 96.0125 53.1295 95.708 53.1295ZM97.9596 56.9517C97.9596 56.5403 98.0771 56.2225 98.3122 55.9981C98.5526 55.7684 98.8597 55.6536 99.2337 55.6536C99.6076 55.6536 99.9094 55.7684 100.139 55.9981C100.374 56.2225 100.492 56.5403 100.492 56.9517C100.492 57.363 100.374 57.6835 100.139 57.9132C99.9094 58.1429 99.6076 58.2578 99.2337 58.2578C98.8544 58.2578 98.5472 58.1429 98.3122 57.9132C98.0771 57.6835 97.9596 57.363 97.9596 56.9517ZM99.2257 56.3266C98.9212 56.3266 98.7689 56.535 98.7689 56.9517C98.7689 57.3737 98.9212 57.5847 99.2257 57.5847C99.5248 57.5847 99.6744 57.3737 99.6744 56.9517C99.6744 56.535 99.5248 56.3266 99.2257 56.3266ZM106.512 52.5686V56.4949C106.512 57.0398 106.355 57.4645 106.04 57.769C105.725 58.0681 105.303 58.2177 104.774 58.2177C104.239 58.2177 103.807 58.0628 103.476 57.753C103.15 57.4431 102.987 57.0104 102.987 56.4549H104.109C104.114 56.6952 104.17 56.8822 104.277 57.0158C104.389 57.1493 104.549 57.2161 104.758 57.2161C104.961 57.2161 105.116 57.152 105.222 57.0238C105.329 56.8956 105.383 56.7193 105.383 56.4949V52.5686H106.512ZM110.417 58.2177C109.894 58.2177 109.413 58.0948 108.975 57.8491C108.537 57.6034 108.19 57.2642 107.933 56.8315C107.677 56.3934 107.549 55.8993 107.549 55.3491C107.549 54.8042 107.677 54.3154 107.933 53.8827C108.19 53.4447 108.537 53.1028 108.975 52.857C109.413 52.6113 109.894 52.4884 110.417 52.4884C110.946 52.4884 111.427 52.6113 111.86 52.857C112.298 53.1028 112.642 53.4447 112.893 53.8827C113.15 54.3154 113.278 54.8042 113.278 55.3491C113.278 55.8993 113.15 56.3934 112.893 56.8315C112.642 57.2642 112.298 57.6034 111.86 57.8491C111.422 58.0948 110.941 58.2177 110.417 58.2177ZM110.417 57.2161C110.754 57.2161 111.05 57.1413 111.307 56.9917C111.563 56.8368 111.763 56.6178 111.908 56.3347C112.052 56.0515 112.124 55.723 112.124 55.3491C112.124 54.9751 112.052 54.6493 111.908 54.3715C111.763 54.0884 111.563 53.872 111.307 53.7224C111.05 53.5729 110.754 53.4981 110.417 53.4981C110.081 53.4981 109.782 53.5729 109.52 53.7224C109.263 53.872 109.063 54.0884 108.919 54.3715C108.775 54.6493 108.703 54.9751 108.703 55.3491C108.703 55.723 108.775 56.0515 108.919 56.3347C109.063 56.6178 109.263 56.8368 109.52 56.9917C109.782 57.1413 110.081 57.2161 110.417 57.2161ZM117.286 55.293C117.601 55.3517 117.86 55.5093 118.063 55.7657C118.266 56.0222 118.367 56.316 118.367 56.6472C118.367 56.9463 118.293 57.2107 118.143 57.4404C117.999 57.6648 117.788 57.8411 117.51 57.9693C117.232 58.0975 116.904 58.1616 116.524 58.1616H114.113V52.5686H116.42C116.8 52.5686 117.125 52.63 117.398 52.7529C117.676 52.8757 117.884 53.0467 118.023 53.2657C118.167 53.4847 118.239 53.7331 118.239 54.0109C118.239 54.3368 118.151 54.6092 117.975 54.8282C117.804 55.0472 117.574 55.2022 117.286 55.293ZM115.234 54.8763H116.26C116.527 54.8763 116.733 54.8175 116.877 54.7C117.021 54.5772 117.093 54.4035 117.093 54.1792C117.093 53.9548 117.021 53.7812 116.877 53.6583C116.733 53.5355 116.527 53.474 116.26 53.474H115.234V54.8763ZM116.364 57.2481C116.637 57.2481 116.848 57.184 116.997 57.0558C117.152 56.9276 117.23 56.746 117.23 56.5109C117.23 56.2706 117.149 56.0836 116.989 55.95C116.829 55.8111 116.613 55.7417 116.34 55.7417H115.234V57.2481H116.364ZM123.102 58.2177C122.712 58.2177 122.359 58.1509 122.044 58.0174C121.734 57.8838 121.489 57.6915 121.307 57.4404C121.125 57.1894 121.032 56.8929 121.027 56.551H122.229C122.245 56.7807 122.325 56.9623 122.469 57.0959C122.619 57.2294 122.821 57.2962 123.078 57.2962C123.34 57.2962 123.545 57.2348 123.695 57.1119C123.844 56.9837 123.919 56.8181 123.919 56.6151C123.919 56.4495 123.869 56.3133 123.767 56.2065C123.666 56.0996 123.537 56.0168 123.382 55.9581C123.233 55.8939 123.024 55.8245 122.757 55.7497C122.394 55.6429 122.098 55.5387 121.868 55.4372C121.644 55.3304 121.449 55.1728 121.283 54.9644C121.123 54.7508 121.043 54.4676 121.043 54.1151C121.043 53.7839 121.125 53.4954 121.291 53.2497C121.457 53.0039 121.689 52.817 121.988 52.6888C122.287 52.5552 122.629 52.4884 123.014 52.4884C123.591 52.4884 124.058 52.63 124.416 52.9131C124.779 53.1909 124.98 53.5809 125.017 54.083H123.783C123.772 53.8907 123.69 53.7331 123.535 53.6103C123.385 53.482 123.185 53.4179 122.934 53.4179C122.715 53.4179 122.538 53.474 122.405 53.5862C122.277 53.6984 122.213 53.8613 122.213 54.075C122.213 54.2246 122.261 54.3501 122.357 54.4516C122.458 54.5478 122.581 54.6279 122.725 54.692C122.875 54.7508 123.083 54.8202 123.35 54.9003C123.714 55.0072 124.01 55.114 124.24 55.2209C124.469 55.3277 124.667 55.488 124.833 55.7016C124.998 55.9153 125.081 56.1958 125.081 56.543C125.081 56.8421 125.004 57.1199 124.849 57.3763C124.694 57.6328 124.467 57.8384 124.168 57.9933C123.869 58.1429 123.513 58.2177 123.102 58.2177ZM127.16 52.5686V56.0302C127.16 56.4094 127.258 56.7006 127.456 56.9036C127.654 57.1012 127.931 57.2001 128.289 57.2001C128.653 57.2001 128.933 57.1012 129.131 56.9036C129.328 56.7006 129.427 56.4094 129.427 56.0302V52.5686H130.557V56.0222C130.557 56.4976 130.453 56.9009 130.245 57.2321C130.042 57.558 129.766 57.8037 129.419 57.9693C129.077 58.1349 128.695 58.2177 128.273 58.2177C127.857 58.2177 127.477 58.1349 127.135 57.9693C126.799 57.8037 126.532 57.558 126.334 57.2321C126.137 56.9009 126.038 56.4976 126.038 56.0222V52.5686H127.16ZM131.368 55.3571C131.368 54.8069 131.491 54.3154 131.737 53.8827C131.988 53.4447 132.327 53.1054 132.755 52.865C133.187 52.6193 133.671 52.4965 134.205 52.4965C134.83 52.4965 135.378 52.6567 135.848 52.9772C136.318 53.2977 136.646 53.7411 136.833 54.3074H135.543C135.415 54.0403 135.233 53.84 134.998 53.7064C134.769 53.5729 134.502 53.5061 134.197 53.5061C133.871 53.5061 133.58 53.5835 133.324 53.7385C133.073 53.888 132.875 54.1017 132.731 54.3795C132.592 54.6573 132.522 54.9831 132.522 55.3571C132.522 55.7257 132.592 56.0515 132.731 56.3347C132.875 56.6124 133.073 56.8288 133.324 56.9837C133.58 57.1333 133.871 57.2081 134.197 57.2081C134.502 57.2081 134.769 57.1413 134.998 57.0077C135.233 56.8689 135.415 56.6659 135.543 56.3988H136.833C136.646 56.9704 136.318 57.4164 135.848 57.7369C135.383 58.0521 134.835 58.2097 134.205 58.2097C133.671 58.2097 133.187 58.0895 132.755 57.8491C132.327 57.6034 131.988 57.2642 131.737 56.8315C131.491 56.3988 131.368 55.9073 131.368 55.3571ZM137.519 55.3571C137.519 54.8069 137.642 54.3154 137.888 53.8827C138.139 53.4447 138.478 53.1054 138.905 52.865C139.338 52.6193 139.821 52.4965 140.356 52.4965C140.981 52.4965 141.528 52.6567 141.998 52.9772C142.468 53.2977 142.797 53.7411 142.984 54.3074H141.694C141.566 54.0403 141.384 53.84 141.149 53.7064C140.919 53.5729 140.652 53.5061 140.348 53.5061C140.022 53.5061 139.731 53.5835 139.474 53.7385C139.223 53.888 139.025 54.1017 138.881 54.3795C138.742 54.6573 138.673 54.9831 138.673 55.3571C138.673 55.7257 138.742 56.0515 138.881 56.3347C139.025 56.6124 139.223 56.8288 139.474 56.9837C139.731 57.1333 140.022 57.2081 140.348 57.2081C140.652 57.2081 140.919 57.1413 141.149 57.0077C141.384 56.8689 141.566 56.6659 141.694 56.3988H142.984C142.797 56.9704 142.468 57.4164 141.998 57.7369C141.534 58.0521 140.986 58.2097 140.356 58.2097C139.821 58.2097 139.338 58.0895 138.905 57.8491C138.478 57.6034 138.139 57.2642 137.888 56.8315C137.642 56.3988 137.519 55.9073 137.519 55.3571ZM145.064 53.474V54.8763H146.947V55.7657H145.064V57.2481H147.187V58.1616H143.942V52.5606H147.187V53.474H145.064ZM150.138 58.2177C149.748 58.2177 149.395 58.1509 149.08 58.0174C148.77 57.8838 148.525 57.6915 148.343 57.4404C148.161 57.1894 148.068 56.8929 148.063 56.551H149.264C149.28 56.7807 149.361 56.9623 149.505 57.0959C149.654 57.2294 149.857 57.2962 150.114 57.2962C150.376 57.2962 150.581 57.2348 150.731 57.1119C150.88 56.9837 150.955 56.8181 150.955 56.6151C150.955 56.4495 150.904 56.3133 150.803 56.2065C150.701 56.0996 150.573 56.0168 150.418 55.9581C150.269 55.8939 150.06 55.8245 149.793 55.7497C149.43 55.6429 149.134 55.5387 148.904 55.4372C148.68 55.3304 148.485 55.1728 148.319 54.9644C148.159 54.7508 148.079 54.4676 148.079 54.1151C148.079 53.7839 148.161 53.4954 148.327 53.2497C148.493 53.0039 148.725 52.817 149.024 52.6888C149.323 52.5552 149.665 52.4884 150.05 52.4884C150.627 52.4884 151.094 52.63 151.452 52.9131C151.815 53.1909 152.016 53.5809 152.053 54.083H150.819C150.808 53.8907 150.725 53.7331 150.571 53.6103C150.421 53.482 150.221 53.4179 149.97 53.4179C149.751 53.4179 149.574 53.474 149.441 53.5862C149.313 53.6984 149.248 53.8613 149.248 54.075C149.248 54.2246 149.297 54.3501 149.393 54.4516C149.494 54.5478 149.617 54.6279 149.761 54.692C149.911 54.7508 150.119 54.8202 150.386 54.9003C150.75 55.0072 151.046 55.114 151.276 55.2209C151.505 55.3277 151.703 55.488 151.869 55.7016C152.034 55.9153 152.117 56.1958 152.117 56.543C152.117 56.8421 152.04 57.1199 151.885 57.3763C151.73 57.6328 151.503 57.8384 151.204 57.9933C150.904 58.1429 150.549 58.2177 150.138 58.2177ZM155.021 58.2177C154.631 58.2177 154.278 58.1509 153.963 58.0174C153.653 57.8838 153.407 57.6915 153.226 57.4404C153.044 57.1894 152.951 56.8929 152.945 56.551H154.147C154.163 56.7807 154.244 56.9623 154.388 57.0959C154.537 57.2294 154.74 57.2962 154.997 57.2962C155.258 57.2962 155.464 57.2348 155.614 57.1119C155.763 56.9837 155.838 56.8181 155.838 56.6151C155.838 56.4495 155.787 56.3133 155.686 56.2065C155.584 56.0996 155.456 56.0168 155.301 55.9581C155.152 55.8939 154.943 55.8245 154.676 55.7497C154.313 55.6429 154.016 55.5387 153.787 55.4372C153.562 55.3304 153.367 55.1728 153.202 54.9644C153.042 54.7508 152.961 54.4676 152.961 54.1151C152.961 53.7839 153.044 53.4954 153.21 53.2497C153.375 53.0039 153.608 52.817 153.907 52.6888C154.206 52.5552 154.548 52.4884 154.933 52.4884C155.51 52.4884 155.977 52.63 156.335 52.9131C156.698 53.1909 156.898 53.5809 156.936 54.083H155.702C155.691 53.8907 155.608 53.7331 155.453 53.6103C155.304 53.482 155.104 53.4179 154.852 53.4179C154.633 53.4179 154.457 53.474 154.324 53.5862C154.195 53.6984 154.131 53.8613 154.131 54.075C154.131 54.2246 154.179 54.3501 154.276 54.4516C154.377 54.5478 154.5 54.6279 154.644 54.692C154.794 54.7508 155.002 54.8202 155.269 54.9003C155.632 55.0072 155.929 55.114 156.159 55.2209C156.388 55.3277 156.586 55.488 156.752 55.7016C156.917 55.9153 157 56.1958 157 56.543C157 56.8421 156.923 57.1199 156.768 57.3763C156.613 57.6328 156.386 57.8384 156.086 57.9933C155.787 58.1429 155.432 58.2177 155.021 58.2177Z" fill="white"/>
<line x1="68.6112" y1="49.1042" x2="68.6112" y2="59.6212" stroke="white" stroke-width="0.497636"/>
</svg>
