<svg width="80" height="35" viewBox="0 0 80 35" fill="none" xmlns="http://www.w3.org/2000/svg">
<path d="M0 10.9056C0.0513346 10.4426 0.102669 9.95389 0.205338 9.51663C1.00102 5.52992 3.13141 2.57204 7.0585 1.26029C11.1139 -0.102913 14.7844 0.797313 17.9414 3.72947C18.1724 3.96096 18.4291 4.16673 18.6601 4.37249C17.8131 5.22128 17.0174 6.01862 16.1447 6.89312C15.965 6.68736 15.7597 6.43015 15.5287 6.19866C13.3727 4.11528 10.1386 3.54943 7.44351 4.80974C5.7238 5.63281 4.56878 6.996 3.95276 8.77073C3.18274 10.9827 3.23408 13.2204 4.2351 15.3295C5.33879 17.6444 7.18684 18.9561 9.75357 19.2133C12.038 19.4191 14.0143 18.6989 15.6314 17.0785C15.811 16.8985 16.0164 16.6927 16.1704 16.5384C17.0174 17.3357 17.8388 18.1331 18.6601 18.9304C17.7104 20.0107 16.6837 20.8595 15.4517 21.5282C11.8326 23.4573 7.28951 23.0972 4.0811 20.6023C2.07905 18.9819 0.84702 16.8985 0.308007 14.4036C0.179671 13.8377 0.128336 13.2719 0.0513346 12.706C0.0513346 12.6546 0.0256673 12.5774 0 12.526C0 11.9858 0 11.4457 0 10.9056Z" fill="white"/>
<path d="M80.0002 22.4301C78.8452 22.4301 77.6901 22.4301 76.5094 22.4301C76.5094 22.3273 76.5094 22.2244 76.5094 22.1215C76.5094 19.2922 76.5094 16.4629 76.5094 13.6337C76.5094 12.9392 76.4068 12.2705 76.0731 11.6789C75.6881 10.9587 75.0464 10.5472 74.225 10.5472C73.7374 10.5472 73.224 10.5986 72.7363 10.7272C71.299 11.1387 70.4263 12.2447 70.3493 13.7623C70.3236 14.0966 70.3236 14.431 70.3236 14.7911C70.3236 17.2346 70.3236 19.678 70.3236 22.1472C70.3236 22.2501 70.3236 22.353 70.3236 22.4559C69.1686 22.4559 68.0136 22.4559 66.8585 22.4559C66.8585 22.3787 66.8329 22.2758 66.8329 22.1987C66.8329 14.8683 66.8329 7.56357 66.8329 0.233167C66.8329 0.156004 66.8329 0.0788424 66.8329 0.0274009C67.9879 0.0274009 69.1429 0.0274009 70.2979 0.0274009C70.2979 0.130284 70.2979 0.233167 70.2979 0.336049C70.2979 2.8824 70.2979 5.40303 70.2979 7.94938C70.2979 8.05226 70.2979 8.12942 70.2979 8.25803C70.4006 8.18087 70.4776 8.15515 70.529 8.1037C72.5053 6.89483 74.5844 6.71479 76.7148 7.64073C78.3831 8.38663 79.3072 9.77555 79.7178 11.4988C79.8205 11.9361 79.8718 12.3733 79.9745 12.8106C80.0002 16.0257 80.0002 19.2151 80.0002 22.4301Z" fill="white"/>
<path d="M24.3015 0C24.3015 7.45901 24.3015 14.9437 24.3015 22.4285C23.1465 22.4285 22.0172 22.4285 20.8365 22.4285C20.8365 14.9437 20.8365 7.48473 20.8365 0C21.9915 0 23.1465 0 24.3015 0Z" fill="white"/>
<path d="M27.2775 7.3552C28.4582 7.3552 29.6133 7.3552 30.7683 7.3552C30.7683 7.45808 30.7683 7.56096 30.7683 7.66385C30.7683 10.4931 30.7683 13.3224 30.7683 16.1517C30.7683 16.6918 30.8453 17.232 31.0506 17.7464C31.4356 18.7238 32.18 19.2382 33.2323 19.2382C34.182 19.2382 35.0804 19.0067 35.8247 18.3894C36.5434 17.7721 36.8514 16.949 36.9284 16.0231C36.9541 15.663 36.9541 15.3029 36.9541 14.9428C36.9541 12.5251 36.9541 10.1073 36.9541 7.68957C36.9541 7.58668 36.9541 7.4838 36.9541 7.38092C38.1091 7.38092 39.2641 7.38092 40.4192 7.38092C40.4192 12.3965 40.4192 17.412 40.4192 22.4533C39.2641 22.4533 38.1348 22.4533 36.9541 22.4533C36.9541 22.1703 36.9541 21.9131 36.9541 21.5788C36.8258 21.6559 36.7744 21.6816 36.6974 21.7331C34.5927 23.122 31.641 23.0963 29.6903 21.7074C28.4582 20.8329 27.7652 19.5725 27.4572 18.1065C27.3289 17.4634 27.2519 16.769 27.2519 16.1002C27.2262 13.271 27.2519 10.4674 27.2519 7.63812C27.2775 7.53524 27.2775 7.45808 27.2775 7.3552Z" fill="white"/>
<path d="M65.1653 20.087C64.3183 20.9615 63.42 21.7074 62.2906 22.1189C59.1335 23.2764 56.2331 22.8906 53.6921 20.5757C52.46 19.444 51.7414 18.0036 51.459 16.3318C51.1767 14.6599 51.305 13.0138 52.0237 11.4448C53.0761 9.10426 54.9241 7.71534 57.4138 7.22665C59.5699 6.7894 61.6489 7.09805 63.5226 8.30692C64.113 8.66701 64.6263 9.1557 65.1397 9.56724C64.2927 10.416 63.497 11.2134 62.65 12.0621C62.5473 11.9593 62.3933 11.8564 62.2393 11.7021C60.5709 10.1331 57.8502 10.2103 56.3101 11.4706C55.3861 12.2165 54.8984 13.2196 54.7958 14.4284C54.6674 16.1003 55.1808 17.5149 56.5668 18.4923C58.1838 19.6498 60.5966 19.5212 62.0853 18.2094C62.2649 18.0551 62.4703 17.875 62.6756 17.6693C63.5226 18.4666 64.344 19.2897 65.1653 20.087Z" fill="white"/>
<path d="M50.8406 7.32952C50.8406 8.43551 50.8406 9.49006 50.8406 10.596C49.9166 10.596 48.9669 10.596 47.9915 10.596C47.9915 14.5313 47.9915 18.4666 47.9915 22.4019C46.8109 22.4019 45.6815 22.4019 44.5008 22.4019C44.5008 18.4923 44.5008 14.557 44.5008 10.6218C43.6794 10.6218 42.8838 10.6218 42.0624 10.6218C42.0624 9.51578 42.0624 8.43551 42.0624 7.35524C42.1394 7.35524 42.2164 7.32952 42.3191 7.32952C42.9608 7.32952 43.6024 7.32952 44.2441 7.32952C44.4751 7.32952 44.5265 7.25235 44.5265 7.04659C44.5265 5.55479 44.5265 4.06299 44.5265 2.57118C44.5265 2.4683 44.5265 2.39114 44.5265 2.26254C45.6815 2.26254 46.8365 2.26254 48.0172 2.26254C48.0172 2.36542 48.0172 2.4683 48.0172 2.57118C48.0172 4.06299 48.0172 5.55479 48.0172 7.04659C48.0172 7.25235 48.0686 7.32952 48.2996 7.32952C49.0696 7.3038 49.8396 7.32952 50.5839 7.32952C50.6353 7.32952 50.7379 7.32952 50.8406 7.32952Z" fill="white"/>
<path d="M59.0288 12.2949C60.4661 12.2949 61.6212 13.4524 61.6212 14.8927C61.6212 16.3331 60.4405 17.4905 58.9774 17.4905C57.5401 17.4905 56.4107 16.3331 56.4107 14.867C56.4107 13.3752 57.7198 12.2178 59.0288 12.2949Z" fill="#E84B3E"/>
<path d="M35.6957 31.9409C35.6957 31.254 35.6957 30.5671 35.6957 29.8475C35.9242 29.8475 36.12 29.8475 36.3485 29.8475C36.3485 31.4503 36.3485 33.0531 36.3485 34.6886C36.1527 34.6886 35.9242 34.6886 35.6957 34.6886C35.6957 34.0017 35.6957 33.3475 35.6957 32.6279C34.9123 32.6279 34.1615 32.6279 33.4107 32.6279C33.4107 33.3148 33.4107 34.0017 33.4107 34.6886C33.1822 34.6886 32.9537 34.6886 32.7578 34.6886C32.7578 33.0858 32.7578 31.483 32.7578 29.8475C32.9863 29.8475 33.1822 29.8475 33.4107 29.8475C33.4107 30.5344 33.4107 31.2213 33.4107 31.9082C34.1615 31.9409 34.9123 31.9409 35.6957 31.9409Z" fill="white"/>
<path d="M22.4729 34.787C22.2118 34.6561 21.9507 34.558 21.7222 34.3945C21.3304 34.1001 21.1672 33.6748 21.1672 33.1842C21.3957 33.1842 21.5916 33.1842 21.8201 33.1842C21.918 33.8384 22.375 34.2963 23.2564 34.0346C23.5828 33.9365 23.8113 33.6421 23.8113 33.3477C23.8113 33.0533 23.6481 32.8243 23.289 32.6935C22.9952 32.5954 22.7014 32.53 22.375 32.4645C21.5589 32.2683 21.1672 31.843 21.1999 31.0907C21.2325 30.4692 21.7874 29.9131 22.5056 29.815C23.4522 29.6514 24.3009 30.2729 24.3336 31.1234C24.3336 31.1888 24.3336 31.2542 24.3009 31.3524C24.0724 31.3524 23.8766 31.3524 23.6807 31.3524C23.6807 31.3197 23.6481 31.2869 23.6481 31.2542C23.6154 30.8944 23.4522 30.6327 23.0932 30.5346C22.7014 30.4365 22.3424 30.4692 22.0486 30.7963C21.7874 31.0907 21.8201 31.5159 22.2118 31.6795C22.4729 31.8103 22.7667 31.843 23.0279 31.9084C23.1911 31.9412 23.3543 31.9739 23.4849 32.0393C24.1377 32.2683 24.4968 32.7262 24.4968 33.315C24.4968 33.9038 24.1051 34.4599 23.4849 34.6889C23.3543 34.7216 23.2564 34.787 23.1258 34.8197C22.9299 34.787 22.7014 34.787 22.4729 34.787Z" fill="white"/>
<path d="M15.2918 31.3184C15.1612 32.4306 15.0307 33.5428 14.8674 34.6876C14.6389 34.6876 14.4431 34.6876 14.1819 34.6876C14.3778 33.0848 14.5737 31.4493 14.7695 29.8792C14.8022 29.8465 14.8348 29.8465 14.8674 29.8465C15.3897 29.8137 15.3897 29.8137 15.6182 30.3044C16.0426 31.1876 16.4669 32.0708 16.9239 32.954C16.9566 33.0521 17.0219 33.1502 17.0871 33.2811C17.5768 32.267 18.0664 31.253 18.5234 30.2717C18.7519 29.781 18.7846 29.781 19.3721 29.8792C19.568 31.482 19.7639 33.0848 19.9597 34.6876C19.7312 34.6876 19.5027 34.6876 19.2742 34.6876C19.1436 33.5755 18.9804 32.4306 18.8499 31.2857C18.8172 31.2857 18.8172 31.2857 18.7846 31.2857C18.5561 31.7437 18.3276 32.2343 18.0991 32.6923C17.8706 33.1175 17.6747 33.5428 17.4789 34.0007C17.3809 34.197 17.2504 34.197 17.0871 34.197C16.9239 34.197 16.7607 34.2297 16.6628 34.0007C16.3037 33.2157 15.8794 32.3979 15.4877 31.6128C15.4224 31.5147 15.3897 31.4166 15.3244 31.2857C15.3244 31.3184 15.3244 31.3184 15.2918 31.3184Z" fill="white"/>
<path d="M49.4705 34.7214C49.4705 33.0858 49.4705 31.483 49.4705 29.8475C49.5684 29.8475 49.6663 29.8475 49.7642 29.8475C50.2539 29.8475 50.7435 29.8475 51.2332 29.8475C52.3757 29.8475 53.1264 30.4363 53.3876 31.5484C53.5834 32.4316 53.4855 33.2821 52.9306 34.0017C52.5715 34.4597 52.0819 34.6886 51.5269 34.7214C50.8414 34.7214 50.1559 34.7214 49.4705 34.7214ZM50.1233 34.0017C50.5803 34.0017 51.0373 34.0017 51.4617 34.0017C51.6249 34.0017 51.7881 33.9363 51.9187 33.8709C52.6368 33.5111 52.7674 32.8896 52.7347 32.1699C52.7021 31.5157 52.5389 30.8942 51.8534 30.6325C51.2984 30.4035 50.7109 30.5344 50.0907 30.5017C50.1233 31.712 50.1233 32.8241 50.1233 34.0017Z" fill="white"/>
<path d="M75.2937 34.69C75.0326 34.69 74.8041 34.69 74.5756 34.69C74.5756 33.0872 74.5756 31.4844 74.5756 29.8161C74.8694 29.8161 75.1632 29.8161 75.4243 29.8161C75.7507 29.8161 76.0772 29.8161 76.4036 29.8161C77.1217 29.8161 77.6114 30.176 77.7093 30.8956C77.7746 31.2881 77.7419 31.6807 77.644 32.0732C77.5461 32.5311 77.1544 32.7601 76.6647 32.8909C77.0891 33.4797 77.4808 34.0685 77.9052 34.6573C77.3829 34.8209 77.1217 34.7227 76.8279 34.3302C76.5668 33.9704 76.3057 33.6433 76.0772 33.2835C75.8813 32.9237 75.6202 32.8582 75.2284 32.9564C75.2937 33.5125 75.2937 34.1012 75.2937 34.69ZM75.2937 32.204C75.7181 32.204 76.1424 32.2367 76.5342 32.204C76.8932 32.1713 77.0891 31.8769 77.1217 31.4517C77.1544 31.0264 76.9585 30.6339 76.6321 30.5685C76.1751 30.5031 75.7181 30.5685 75.2611 30.5685C75.2937 31.0919 75.2937 31.6479 75.2937 32.204Z" fill="white"/>
<path d="M9.74299 29.8463C10.4611 29.8463 11.114 29.8136 11.7995 29.8463C12.5503 29.8791 13.0726 30.6641 12.9746 31.5473C12.9093 32.2015 12.6156 32.6922 11.8648 32.8884C12.0933 33.2155 12.2891 33.5099 12.5176 33.8043C12.7135 34.0987 12.9093 34.3604 13.1378 34.7202C12.8441 34.7202 12.6156 34.7202 12.3871 34.7202C12.3218 34.7202 12.2238 34.6221 12.1586 34.5567C11.8648 34.1314 11.5383 33.7389 11.2772 33.3137C11.0813 32.9539 10.8202 32.8884 10.4285 32.9866C10.4285 33.5426 10.4285 34.1314 10.4285 34.7529C10.2 34.7529 9.97149 34.7529 9.74299 34.7529C9.74299 33.0847 9.74299 31.4819 9.74299 29.8463ZM10.3958 32.2015C10.4938 32.2015 10.5264 32.2342 10.5917 32.2342C10.9181 32.2342 11.2446 32.2342 11.5383 32.2342C11.9953 32.2015 12.2238 31.9398 12.2238 31.4165C12.2238 30.8931 11.9953 30.566 11.571 30.5333C11.2446 30.5006 10.9181 30.5333 10.5917 30.5333C10.5264 30.5333 10.3958 30.6314 10.3958 30.6968C10.3958 31.1875 10.3958 31.6781 10.3958 32.2015Z" fill="white"/>
<path d="M41.899 34.6886C41.1809 34.7541 41.1809 34.7541 40.9524 34.0998C40.7239 33.4783 40.7239 33.4783 40.071 33.4783C39.712 33.4783 39.3529 33.4783 39.0265 33.4783C38.8306 33.4783 38.7327 33.5438 38.6674 33.74C38.6021 33.969 38.4715 34.1653 38.4389 34.3942C38.3736 34.6559 38.243 34.7541 37.9819 34.7214C37.8513 34.6886 37.7534 34.7214 37.5902 34.7214C37.7208 34.3288 37.884 34.0017 38.0145 33.6419C38.4715 32.4643 38.9285 31.2867 39.3529 30.1091C39.4508 29.8802 39.5487 29.8475 39.7772 29.8475C39.9731 29.8475 40.1363 29.8802 40.2342 30.1091C40.7565 31.5484 41.3115 32.9877 41.8664 34.3942C41.8337 34.4924 41.8664 34.5905 41.899 34.6886ZM40.4627 32.8241C40.2342 32.2026 40.0057 31.5811 39.7446 30.9269C39.4835 31.5811 39.255 32.2026 39.0265 32.8241C39.5161 32.8241 39.9405 32.8241 40.4627 32.8241Z" fill="white"/>
<path d="M55.6714 32.6606C55.6714 33.1185 55.6714 33.5438 55.6714 34.0017C56.3895 34.0017 57.1403 34.0017 57.8911 34.0017C57.8911 34.2634 57.8911 34.4597 57.8911 34.6886C56.9444 34.6886 55.9652 34.6886 54.9859 34.6886C54.9859 33.0858 54.9859 31.483 54.9859 29.8475C55.9325 29.8475 56.8791 29.8475 57.8258 29.8475C57.8258 30.0437 57.8258 30.24 57.8258 30.5017C57.1076 30.5017 56.3895 30.5017 55.6714 30.5017C55.6714 30.9923 55.6714 31.4503 55.6714 31.9409C56.2916 31.9409 56.9118 31.9409 57.532 31.9409C57.532 32.1699 57.532 32.3989 57.532 32.6279C56.9118 32.6606 56.2916 32.6606 55.6714 32.6606Z" fill="white"/>
<path d="M73.0072 29.8489C73.0072 30.0778 73.0072 30.2741 73.0072 30.5031C72.2891 30.5031 71.571 30.5031 70.8202 30.5031C70.8202 30.9937 70.8202 31.4517 70.8202 31.9423C71.4404 31.9423 72.0606 31.9423 72.7135 31.9423C72.7135 32.204 72.7135 32.4003 72.7135 32.6293C72.0932 32.6293 71.473 32.6293 70.8202 32.6293C70.8202 33.0872 70.8202 33.5124 70.8202 33.9704C71.571 33.9704 72.2891 33.9704 73.0399 33.9704C73.0399 34.2321 73.0399 34.4283 73.0399 34.6573C72.0606 34.6573 71.114 34.6573 70.1347 34.6573C70.1347 33.0545 70.1347 31.4517 70.1347 29.8161C71.114 29.8489 72.0606 29.8489 73.0072 29.8489Z" fill="white"/>
<path d="M65.3023 29.8812C65.9878 29.8158 65.9878 29.8158 66.1837 30.4373C66.4448 31.3205 66.706 32.1709 66.9671 33.0541C66.9998 33.1523 67.0324 33.2504 67.0977 33.4139C67.2609 32.8579 67.4241 32.3672 67.5547 31.8765C67.7179 31.3205 67.9137 30.7644 68.0443 30.2083C68.1096 29.9466 68.2402 29.8158 68.5013 29.8485C68.5992 29.8812 68.7298 29.8485 68.8604 29.8485C68.5992 30.6663 68.3707 31.4513 68.1422 32.2364C67.9464 32.956 67.7179 33.6429 67.522 34.3626C67.4567 34.657 67.3262 34.7551 67.0324 34.7224C66.9671 34.7224 66.8692 34.7224 66.7713 34.7224C66.2816 33.0868 65.792 31.484 65.3023 29.8812Z" fill="white"/>
<path d="M3.11784 29.8475C4.06448 29.8475 4.97847 29.8475 5.92511 29.8475C5.92511 30.0437 5.92511 30.2727 5.92511 30.5017C5.23961 30.5017 4.52147 30.5017 3.80333 30.5017C3.80333 30.9923 3.80333 31.4503 3.80333 31.9409C4.26033 31.9409 4.68469 31.9737 5.14168 31.9409C5.43547 31.9082 5.56604 32.0064 5.5334 32.3335C5.5334 32.4316 5.5334 32.5297 5.50075 32.6606C4.94583 32.6606 4.3909 32.6606 3.80333 32.6606C3.80333 33.3475 3.80333 34.0017 3.80333 34.6886C3.57483 34.6886 3.34634 34.6886 3.11784 34.6886C3.11784 33.0858 3.11784 31.483 3.11784 29.8475Z" fill="white"/>
<path d="M29.23 30.533C28.7077 30.533 28.2507 30.533 27.7611 30.533C27.7611 30.304 27.7611 30.1077 27.7611 29.8788C28.9689 29.8788 30.144 29.8788 31.3844 29.8788C31.3844 30.075 31.3844 30.2713 31.3844 30.533C30.9274 30.533 30.4378 30.533 29.9481 30.533C29.9481 31.9395 29.9481 33.3461 29.9481 34.72C29.687 34.72 29.4911 34.72 29.2626 34.72C29.23 33.3134 29.23 31.9395 29.23 30.533Z" fill="white"/>
<path d="M44.4106 34.72C44.1494 34.72 43.9536 34.72 43.7251 34.72C43.7251 33.3461 43.7251 31.9395 43.7251 30.533C43.2355 30.533 42.7458 30.533 42.2562 30.533C42.2562 30.304 42.2562 30.075 42.2562 29.8788C43.464 29.8788 44.6391 29.8788 45.8795 29.8788C45.8795 30.075 45.8795 30.2713 45.8795 30.533C45.3899 30.533 44.9329 30.533 44.4106 30.533C44.4106 31.9395 44.4106 33.3134 44.4106 34.72Z" fill="white"/>
<path d="M59.3935 34.6886C59.3935 33.0858 59.3935 31.483 59.3935 29.8475C59.5894 29.8475 59.8179 29.8475 60.0464 29.8475C60.0464 31.2213 60.0464 32.5952 60.0464 34.0017C60.7319 34.0017 61.3521 34.0017 62.0049 34.0017C62.0049 34.2307 62.0049 34.4597 62.0049 34.6886C61.1562 34.6886 60.3075 34.6886 59.3935 34.6886Z" fill="white"/>
<path d="M63.3412 29.8475C63.5697 29.8475 63.7656 29.8475 63.9941 29.8475C63.9941 31.4503 63.9941 33.0858 63.9941 34.6886C63.7982 34.6886 63.5697 34.6886 63.3412 34.6886C63.3412 33.0858 63.3412 31.483 63.3412 29.8475Z" fill="white"/>
<path d="M7.29452 29.8475C7.52302 29.8475 7.71888 29.8475 7.91473 29.8475C7.91473 31.483 7.91473 33.0858 7.91473 34.6886C7.71888 34.6886 7.49038 34.6886 7.29452 34.6886C7.29452 33.0858 7.29452 31.483 7.29452 29.8475Z" fill="white"/>
</svg>
