<svg width="45" height="68" viewBox="0 0 45 68" fill="none" xmlns="http://www.w3.org/2000/svg">
<path fill-rule="evenodd" clip-rule="evenodd" d="M32.7216 66.8907C35.1783 67.28 37.6058 67.6914 40.0706 67.9934C40.6006 68.0607 41.0709 67.5948 41.1243 66.954C41.1796 66.3093 40.7934 65.7347 40.2666 65.6698C37.8156 65.3672 35.4086 64.9601 32.969 64.5726C32.4417 64.4909 31.9602 64.943 31.8917 65.578C31.8245 66.2194 32.1943 66.809 32.7216 66.8907Z" fill="#EEF2F0"/>
<path fill-rule="evenodd" clip-rule="evenodd" d="M24.8678 43.8706C31.3878 38.5999 37.6848 32.9318 44.108 27.4954C44.5439 27.1244 44.6501 26.397 44.3484 25.8692C44.0434 25.3391 43.4474 25.206 43.0083 25.5745C36.5976 31.0038 30.3133 36.6649 23.8046 41.9221C23.361 42.2818 23.2428 43.0058 23.5352 43.543C23.8309 44.0827 24.4261 44.2262 24.8678 43.8706Z" fill="#EEF2F0"/>
<path fill-rule="evenodd" clip-rule="evenodd" d="M1.84801 24.0072C4.37836 16.5688 6.7415 9.03267 9.34009 1.62883C9.54527 1.03581 9.31885 0.350445 8.83334 0.0968916C8.34455 -0.159113 7.77907 0.120272 7.57062 0.710838C4.97128 8.12509 2.6041 15.6692 0.072999 23.118C-0.128905 23.7135 0.102761 24.3974 0.592306 24.643C1.08512 24.8911 1.64409 24.6067 1.84801 24.0072Z" fill="#EEF2F0"/>
</svg>
