<svg width="145" height="54" viewBox="0 0 145 54" fill="none" xmlns="http://www.w3.org/2000/svg">
<path d="M46.8394 43.7532L48.0722 47.5475L52.0618 47.5475L48.8342 49.8926L50.067 53.6869L46.8394 51.3419L43.6117 53.6869L44.8446 49.8926L41.6169 47.5475L45.6065 47.5475L46.8394 43.7532Z" fill="#00B67A"/>
<path d="M67.3391 43.7532L68.572 47.5475L72.5616 47.5475L69.3339 49.8926L70.5668 53.6869L67.3391 51.3419L64.1115 53.6869L65.3443 49.8926L62.1167 47.5475L66.1063 47.5475L67.3391 43.7532Z" fill="#00B67A"/>
<path d="M87.8408 43.7532L89.0737 47.5475L93.0633 47.5475L89.8356 49.8926L91.0685 53.6869L87.8408 51.3419L84.6132 53.6869L85.846 49.8926L82.6184 47.5475L86.608 47.5475L87.8408 43.7532Z" fill="#00B67A"/>
<path d="M108.341 43.7532L109.573 47.5475L113.563 47.5475L110.335 49.8926L111.568 53.6869L108.341 51.3419L105.113 53.6869L106.346 49.8926L103.118 47.5475L107.108 47.5475L108.341 43.7532Z" fill="#00B67A"/>
<path d="M128.84 43.7532L130.073 47.5475L134.063 47.5475L130.835 49.8926L132.068 53.6869L128.84 51.3419L125.613 53.6869L126.846 49.8926L123.618 47.5475L127.607 47.5475L128.84 43.7532Z" fill="#00B67A"/>
<path d="M38.1 12.6442H52.7791V15.3886H47.0073V30.8164H43.8334V15.3886H38.0872V12.6442H38.1ZM52.152 17.6585H54.8651V20.1978H54.9163C55.0059 19.8387 55.1723 19.4924 55.4154 19.159C55.6586 18.8255 55.9529 18.5049 56.2985 18.2356C56.644 17.9535 57.0279 17.7355 57.4503 17.5559C57.8726 17.3892 58.3077 17.2994 58.7428 17.2994C59.0756 17.2994 59.3187 17.3123 59.4467 17.3251C59.5747 17.3379 59.7027 17.3636 59.8435 17.3764V20.1721C59.6387 20.1336 59.4339 20.108 59.2164 20.0823C58.9988 20.0567 58.794 20.0439 58.5893 20.0439C58.1029 20.0439 57.6422 20.1465 57.2071 20.3388C56.772 20.5312 56.4008 20.8262 56.0809 21.1981C55.761 21.5828 55.505 22.0445 55.313 22.6087C55.1211 23.173 55.0315 23.8142 55.0315 24.5452V30.8036H52.1392V17.6585H52.152ZM73.1404 30.8164H70.2992V28.9825H70.2481C69.8897 29.6494 69.365 30.1752 68.6611 30.5727C67.9572 30.9703 67.2406 31.1755 66.5111 31.1755C64.7834 31.1755 63.5292 30.7523 62.7613 29.893C61.9935 29.0338 61.6095 27.7385 61.6095 26.0072V17.6585H64.5018V25.7251C64.5018 26.8793 64.7194 27.7 65.1673 28.1746C65.6025 28.6491 66.2296 28.8927 67.023 28.8927C67.6373 28.8927 68.1364 28.803 68.5459 28.6106C68.9555 28.4182 69.2882 28.1746 69.5314 27.8539C69.7873 27.5462 69.9665 27.1614 70.0817 26.7254C70.1969 26.2894 70.2481 25.8149 70.2481 25.3019V17.6713H73.1404V30.8164ZM78.0675 26.5971C78.1571 27.4436 78.477 28.0335 79.0273 28.3797C79.5904 28.7132 80.2559 28.8927 81.0366 28.8927C81.3053 28.8927 81.6125 28.8671 81.958 28.8286C82.3036 28.7901 82.6363 28.7004 82.9307 28.5849C83.2378 28.4695 83.481 28.29 83.6857 28.0591C83.8777 27.8283 83.9673 27.5333 83.9545 27.1614C83.9417 26.7895 83.8009 26.4817 83.545 26.2509C83.289 26.0072 82.9691 25.8277 82.5723 25.6738C82.1756 25.5327 81.7277 25.4045 81.2158 25.3019C80.7038 25.1993 80.1919 25.0839 79.6672 24.9684C79.1297 24.853 78.605 24.6991 78.1059 24.5324C77.6068 24.3657 77.1589 24.1349 76.7621 23.8399C76.3654 23.5578 76.0455 23.1858 75.8151 22.737C75.5719 22.2881 75.4568 21.7367 75.4568 21.0698C75.4568 20.3516 75.6359 19.7617 75.9815 19.2744C76.327 18.7871 76.7749 18.4023 77.2996 18.1074C77.8371 17.8124 78.4258 17.6072 79.0785 17.479C79.7312 17.3636 80.3583 17.2994 80.947 17.2994C81.6253 17.2994 82.278 17.3764 82.8923 17.5174C83.5066 17.6585 84.0697 17.8894 84.5688 18.2228C85.0679 18.5434 85.4774 18.9666 85.8102 19.4796C86.1429 19.9926 86.3477 20.621 86.4373 21.352H83.417C83.2762 20.6594 82.9691 20.1849 82.4699 19.9541C81.9708 19.7104 81.3949 19.595 80.755 19.595C80.5503 19.595 80.3071 19.6078 80.0256 19.6463C79.744 19.6848 79.4881 19.7489 79.2321 19.8387C78.9889 19.9284 78.7842 20.0695 78.605 20.2491C78.4386 20.4286 78.3491 20.6594 78.3491 20.9544C78.3491 21.3135 78.477 21.5956 78.7202 21.8136C78.9633 22.0316 79.2833 22.2112 79.68 22.3651C80.0768 22.5062 80.5247 22.6344 81.0366 22.737C81.5485 22.8396 82.0732 22.955 82.6107 23.0704C83.1354 23.1858 83.6473 23.3397 84.1592 23.5065C84.6712 23.6732 85.1191 23.904 85.5158 24.199C85.9125 24.4939 86.2325 24.853 86.4757 25.2891C86.7188 25.7251 86.8468 26.2765 86.8468 26.9178C86.8468 27.7 86.6676 28.3541 86.3093 28.9055C85.9509 29.4442 85.4902 29.893 84.9271 30.2265C84.364 30.5599 83.7241 30.8164 83.033 30.9703C82.342 31.1242 81.6509 31.2011 80.9726 31.2011C80.1407 31.2011 79.3729 31.1113 78.669 30.919C77.9651 30.7266 77.3508 30.4445 76.8389 30.0726C76.327 29.6878 75.9175 29.2133 75.6231 28.6491C75.3288 28.0848 75.1752 27.4051 75.1496 26.6228H78.0675V26.5971ZM87.6147 17.6585H89.8031V13.7086H92.6954V17.6585H95.3061V19.8258H92.6954V26.8536C92.6954 27.1614 92.7082 27.4179 92.7338 27.6488C92.7594 27.8668 92.8234 28.0591 92.9129 28.213C93.0025 28.3669 93.1433 28.4823 93.3353 28.5593C93.5272 28.6362 93.7704 28.6747 94.1031 28.6747C94.3079 28.6747 94.5127 28.6747 94.7174 28.6619C94.9222 28.6491 95.127 28.6234 95.3317 28.5721V30.8164C95.0118 30.8549 94.6918 30.8805 94.3975 30.919C94.0903 30.9575 93.7832 30.9703 93.4632 30.9703C92.6954 30.9703 92.0811 30.8933 91.6204 30.7523C91.1596 30.6112 90.7885 30.3932 90.5326 30.111C90.2638 29.8289 90.0974 29.4826 89.995 29.0594C89.9055 28.6362 89.8415 28.1489 89.8287 27.6103V19.8515H87.6402V17.6585H87.6147ZM97.3538 17.6585H100.092V19.4411H100.144C100.553 18.6716 101.116 18.133 101.846 17.7996C102.575 17.4662 103.356 17.2994 104.213 17.2994C105.25 17.2994 106.146 17.479 106.914 17.8509C107.682 18.21 108.321 18.7101 108.833 19.3513C109.345 19.9926 109.716 20.7364 109.972 21.5828C110.228 22.4292 110.356 23.3397 110.356 24.3016C110.356 25.1865 110.241 26.0457 110.011 26.8665C109.78 27.7 109.435 28.431 108.974 29.0723C108.513 29.7135 107.925 30.2136 107.208 30.5984C106.491 30.9831 105.66 31.1755 104.687 31.1755C104.265 31.1755 103.842 31.137 103.42 31.0601C102.998 30.9831 102.588 30.8549 102.204 30.6881C101.82 30.5214 101.449 30.3034 101.129 30.0341C100.796 29.7648 100.528 29.457 100.297 29.1107H100.246V35.6768H97.3538V17.6585ZM107.464 24.2503C107.464 23.6604 107.387 23.0833 107.234 22.519C107.08 21.9547 106.85 21.4674 106.543 21.0313C106.235 20.5953 105.852 20.2491 105.404 19.9926C104.943 19.7361 104.418 19.595 103.829 19.595C102.614 19.595 101.692 20.0182 101.078 20.8646C100.464 21.711 100.156 22.8396 100.156 24.2503C100.156 24.9171 100.233 25.5327 100.4 26.097C100.566 26.6613 100.796 27.1486 101.129 27.559C101.449 27.9694 101.833 28.29 102.281 28.5208C102.729 28.7645 103.254 28.8799 103.842 28.8799C104.508 28.8799 105.058 28.7388 105.519 28.4695C105.979 28.2002 106.351 27.8411 106.645 27.4179C106.939 26.9819 107.157 26.4946 107.285 25.9431C107.4 25.3917 107.464 24.8274 107.464 24.2503ZM112.57 12.6442H115.463V15.3886H112.57V12.6442ZM112.57 17.6585H115.463V30.8164H112.57V17.6585ZM118.048 12.6442H120.94V30.8164H118.048V12.6442ZM129.809 31.1755C128.76 31.1755 127.825 30.9959 127.006 30.6497C126.187 30.3034 125.496 29.8161 124.92 29.2133C124.357 28.5978 123.922 27.8668 123.628 27.0204C123.333 26.1739 123.18 25.2378 123.18 24.2246C123.18 23.2243 123.333 22.301 123.628 21.4545C123.922 20.6081 124.357 19.8771 124.92 19.2616C125.483 18.646 126.187 18.1715 127.006 17.8252C127.825 17.479 128.76 17.2994 129.809 17.2994C130.858 17.2994 131.793 17.479 132.612 17.8252C133.431 18.1715 134.122 18.6588 134.698 19.2616C135.261 19.8771 135.696 20.6081 135.99 21.4545C136.285 22.301 136.438 23.2243 136.438 24.2246C136.438 25.2378 136.285 26.1739 135.99 27.0204C135.696 27.8668 135.261 28.5978 134.698 29.2133C134.135 29.8289 133.431 30.3034 132.612 30.6497C131.793 30.9959 130.858 31.1755 129.809 31.1755ZM129.809 28.8799C130.449 28.8799 131.012 28.7388 131.485 28.4695C131.959 28.2002 132.343 27.8411 132.65 27.4051C132.957 26.9691 133.175 26.4689 133.328 25.9175C133.469 25.366 133.546 24.8017 133.546 24.2246C133.546 23.6604 133.469 23.1089 133.328 22.5446C133.188 21.9804 132.957 21.493 132.65 21.057C132.343 20.621 131.959 20.2747 131.485 20.0054C131.012 19.7361 130.449 19.595 129.809 19.595C129.169 19.595 128.606 19.7361 128.132 20.0054C127.659 20.2747 127.275 20.6338 126.968 21.057C126.661 21.493 126.443 21.9804 126.29 22.5446C126.149 23.1089 126.072 23.6604 126.072 24.2246C126.072 24.8017 126.149 25.366 126.29 25.9175C126.43 26.4689 126.661 26.9691 126.968 27.4051C127.275 27.8411 127.659 28.2002 128.132 28.4695C128.606 28.7517 129.169 28.8799 129.809 28.8799ZM137.283 17.6585H139.471V13.7086H142.364V17.6585H144.974V19.8258H142.364V26.8536C142.364 27.1614 142.376 27.4179 142.402 27.6488C142.428 27.8668 142.492 28.0591 142.581 28.213C142.671 28.3669 142.812 28.4823 143.004 28.5593C143.195 28.6362 143.439 28.6747 143.771 28.6747C143.976 28.6747 144.181 28.6747 144.386 28.6619C144.59 28.6491 144.795 28.6234 145 28.5721V30.8164C144.68 30.8549 144.36 30.8805 144.066 30.919C143.759 30.9575 143.451 30.9703 143.131 30.9703C142.364 30.9703 141.749 30.8933 141.289 30.7523C140.828 30.6112 140.457 30.3932 140.201 30.111C139.932 29.8289 139.766 29.4826 139.663 29.0594C139.574 28.6362 139.51 28.1489 139.497 27.6103V19.8515H137.308V17.6585H137.283Z" fill="white"/>
<path d="M34.7204 12.6449H21.4619L17.3666 0L13.2585 12.6449L0 12.6321L10.7373 20.455L6.62925 33.087L17.3666 25.277L28.0911 33.087L23.9959 20.455L34.7204 12.6449Z" fill="#00B67A"/>
<path d="M24.9188 23.3146L23.9974 20.4547L17.3681 25.2767L24.9188 23.3146Z" fill="#005128"/>
</svg>
