<svg width="110" height="42" viewBox="0 0 110 42" fill="none" xmlns="http://www.w3.org/2000/svg">
<path d="M28.2119 34.2996C28.2865 34.2996 28.3611 34.3375 28.3984 34.4129L30.4492 37.9989C30.5238 38.112 30.5982 38.1119 30.71 37.9989L32.8359 34.4129C32.8732 34.3375 32.9479 34.2996 33.0225 34.2996H34.2158C34.3649 34.2997 34.4772 34.4134 34.5518 34.5643V41.7352C34.5518 41.8862 34.4392 41.9998 34.29 41.9998H33.0967C32.9477 41.9997 32.8359 41.8861 32.8359 41.7352V38.0369C32.8359 37.8105 32.6121 37.6968 32.4629 37.8856L30.8223 40.5281C30.7476 40.6788 30.561 40.6788 30.4492 40.5281L28.8457 37.8856C28.6965 37.697 28.4727 37.8105 28.4727 38.0369V41.7352C28.4727 41.8862 28.3611 41.9998 28.2119 41.9998H27.0557C26.9066 41.9997 26.7949 41.8861 26.7949 41.7352V34.5643C26.7949 34.4134 26.9066 34.2998 27.0557 34.2996H28.2119ZM42.5889 34.2996C42.6974 34.2997 42.7695 34.3762 42.8057 34.452L45.8105 41.658C45.8829 41.8097 45.7746 41.9996 45.5938 41.9998H44.3984C44.2902 41.9997 44.2179 41.9241 44.1816 41.8485L43.7109 40.6346C43.6748 40.5588 43.6025 40.4824 43.4941 40.4823H40.417C40.3084 40.4823 40.2354 40.5587 40.1992 40.6346L39.7646 41.8485C39.7284 41.9242 39.6562 41.9998 39.5479 41.9998H38.3164C38.1356 41.9995 38.0273 41.8096 38.0996 41.658L41.1406 34.452C41.1768 34.3762 41.249 34.2998 41.3574 34.2996H42.5889ZM52.502 34.2996C54.5214 34.2998 55.7051 35.5081 55.7051 37.1688C55.705 38.1875 55.2873 38.8666 54.7305 39.3573C54.6608 39.4327 54.6253 39.5467 54.6602 39.66L55.6006 41.66C55.6702 41.811 55.5657 41.9998 55.3916 41.9998H54.1729C54.0685 41.9998 53.9987 41.9239 53.9639 41.8485L53.1631 40.1121C53.1066 39.99 53.0499 39.9919 52.9004 39.9969C52.8658 39.9981 52.826 39.9988 52.7803 39.9989H51.8047C51.5963 39.9989 51.5616 40.0372 51.5615 40.2254V41.7352C51.5615 41.8484 51.4918 41.9617 51.3525 41.9617H50.2734C50.169 41.9617 50.0645 41.8862 50.0645 41.7352V34.5643C50.0645 34.451 50.1342 34.3377 50.2734 34.3377C51.0394 34.3 51.7708 34.2996 52.502 34.2996ZM61.9229 34.2996C62.0297 34.2996 62.1367 34.3753 62.1367 34.5262V37.4705C62.1368 37.6969 62.3859 37.8096 62.5283 37.6209L64.9854 34.3758C65.021 34.3381 65.0928 34.2996 65.1641 34.2996H66.375C66.5529 34.2999 66.6595 34.5267 66.5527 34.6776L64.3809 37.5086C64.3096 37.5841 64.3096 37.7349 64.3809 37.8104L66.9443 41.6219C67.0512 41.7728 66.9446 41.9997 66.7666 41.9998H65.4131C65.3419 41.9998 65.271 41.962 65.2354 41.8865L63.4541 39.1688C63.3828 39.0559 63.2054 39.0559 63.0986 39.1688L62.1729 40.3387C62.1729 40.3764 62.1367 40.4523 62.1367 40.4901V41.7352C62.1367 41.8484 62.0653 41.9617 61.9229 41.9617H60.8545C60.7477 41.9616 60.6406 41.8861 60.6406 41.7352V34.5262C60.6407 34.4131 60.7122 34.2997 60.8545 34.2996H61.9229ZM76.3408 34.2996C76.4872 34.2996 76.5966 34.4136 76.5967 34.5653V35.5135C76.5967 35.6652 76.4872 35.7791 76.3408 35.7791H73.084C72.9377 35.7792 72.8281 35.8931 72.8281 36.0448V37.1444C72.8281 37.296 72.9377 37.4099 73.084 37.41H75.4258C75.5721 37.41 75.6826 37.5239 75.6826 37.6756V38.5106C75.6824 38.6621 75.572 38.7752 75.4258 38.7752H73.084C72.9378 38.7753 72.8283 38.8894 72.8281 39.0408V40.1795C72.8283 40.331 72.9378 40.445 73.084 40.4451H76.5967C76.743 40.4451 76.89 40.5584 76.8535 40.786V41.7342C76.8535 41.8859 76.743 41.9998 76.5967 41.9998H71.4736C71.3275 41.9996 71.2178 41.8858 71.2178 41.7342V34.5653C71.2178 34.4137 71.3275 34.2999 71.4736 34.2996H76.3408ZM86.5605 34.2996C86.6702 34.2996 86.78 34.4042 86.707 34.5086V35.4139C86.707 35.5183 86.6342 35.6227 86.4883 35.6229H84.5508C84.4413 35.6229 84.3322 35.6928 84.332 35.8319V41.0906C84.332 41.1951 84.2585 41.2996 84.1123 41.2996H82.9795C82.8699 41.2996 82.7598 41.23 82.7598 41.0906V35.8319C82.7596 35.7275 82.6869 35.623 82.541 35.6229H80.6035C80.494 35.6227 80.3848 35.553 80.3848 35.4139V34.5086C80.3848 34.4043 80.4577 34.2998 80.6035 34.2996H86.5605ZM42.2266 36.576C42.1542 36.3863 41.8644 36.3863 41.792 36.576L40.9961 38.6619C40.9237 38.8136 41.0319 39.0037 41.2129 39.0037H42.7695C42.9143 39.0037 43.0595 38.8136 43.0234 38.6619L42.2266 36.576ZM51.7705 35.7723C51.6662 35.7723 51.5617 35.8472 51.5615 35.9979V38.3006C51.5615 38.4138 51.6312 38.5272 51.7705 38.5272C51.9561 38.5523 52.1416 38.5443 52.3271 38.536C52.42 38.5318 52.5136 38.5272 52.6064 38.5272C53.6855 38.4516 54.1727 37.8857 54.1729 37.1688C54.1729 36.3007 53.4766 35.8472 52.5713 35.8094C52.258 35.7717 52.0142 35.7723 51.7705 35.7723ZM66.0889 0.155101C66.7491 -0.497906 70.0124 1.02565 70.0127 2.58577C70.0127 3.01075 69.9537 3.61114 69.8789 4.3719C69.8515 4.65029 69.8224 4.95056 69.793 5.27131C71.3332 5.01735 72.91 4.8358 74.4502 4.83576C76.7606 4.83576 78.0809 6.25053 78.0811 7.73811C78.0811 9.2618 77.2015 10.0601 76.1748 10.0604C75.258 10.0604 74.0109 9.47998 74.0107 7.62971C74.0107 6.89521 72.6442 7.05143 71.3975 7.19416C71.2893 7.20655 71.1816 7.21871 71.0762 7.2303L69.5732 7.44807L69.5625 7.53791C68.7548 14.6201 67.4585 25.9891 70.4531 25.9891C72.3234 25.989 73.4966 23.6309 73.79 22.1795C73.57 20.8008 73.4971 19.3493 73.4971 17.9705C73.4971 14.6687 73.7173 12.5274 74.0107 12.2371C74.7814 11.5121 77.8981 12.6367 77.8984 13.8338C77.8984 14.1275 77.8547 14.6942 77.7988 15.4285C77.5369 18.8683 76.9951 25.9891 79.292 25.9891C81.0887 25.9888 82.0787 23.0506 82.2988 21.9256C81.8587 19.8212 81.7119 17.5713 81.7119 15.6483C81.7119 13.3261 81.7857 11.5118 82.0791 11.2215C82.7761 10.5323 86.04 11.9113 86.04 13.2537C86.04 13.4708 86.0267 13.8543 86.0098 14.3563C85.8991 17.6322 85.6184 25.9521 87.6533 25.953C89.377 25.953 90.6981 21.4539 91.1016 19.6033C90.4781 18.406 90.1475 17.0634 90.1475 15.866C90.1475 12.8183 91.0644 11.4394 92.1279 11.4393C94.035 11.4393 94.1815 15.3218 93.2646 19.3856C93.8881 20.329 94.8056 20.8735 95.8691 21.2C95.8325 20.7647 95.7959 20.2928 95.7959 19.785C95.7959 14.3063 99.7929 11.4756 102.837 11.4754C104.707 11.4754 106.908 12.6004 106.908 15.6483C106.908 18.2607 105.257 22.1066 100.343 23.1951C101.003 24.6102 102.104 25.7713 103.681 25.7713C107.214 25.7713 108.356 21.4848 108.659 20.3475C108.702 20.1864 108.729 20.0885 108.742 20.075C109.109 19.7125 110.245 21.1268 109.952 22.324C109.732 23.4851 107.825 28.493 102.91 28.493C100.086 28.4928 97.4093 26.6783 96.2725 23.4129C94.7689 23.2315 93.5219 22.5787 92.5684 21.6717C91.3948 25.2998 89.4142 28.5287 87.1406 28.5291C85.0868 28.5291 83.7664 26.9321 82.9229 24.6824C82.4094 25.9886 80.7956 28.6011 78.2285 28.6014C76.3214 28.6014 75.1105 27.186 74.377 25.1541C73.6801 26.5329 72.1767 28.6014 69.8662 28.6014C67.8491 28.6014 66.4554 27.3317 65.5752 25.0096C64.9884 26.3884 63.4845 28.6014 61.0273 28.6014C59.0836 28.6013 57.3595 27.0415 56.626 24.7557C56.5521 25.2646 55.0857 28.5291 52.6289 28.5291C50.8685 28.5291 48.9243 27.2955 47.9707 24.7557C46.8704 26.4247 44.6332 28.5291 41.2227 28.5291C39.2423 28.5291 37.2256 27.6214 35.832 25.8436C34.9152 27.0409 33.1911 28.6013 31.0273 28.6014C27.5799 28.6014 26.1494 25.1184 26.1494 20.8006C26.1494 18.9238 26.3774 17.0039 26.5439 15.6033C26.6832 14.4323 26.7797 13.6241 26.6631 13.5076C26.5685 13.414 25.8786 13.2593 25.2236 13.1131C24.8634 13.0327 24.5136 12.9548 24.2793 12.8905C23.7658 18.8047 21.2712 29.4002 11.1855 29.4002C4.65757 29.4 0 24.0296 0 17.3172C2.54854e-05 10.3507 4.98811 2.22346 11.7363 2.22346C15.9905 2.22361 17.9707 5.74298 17.9707 7.62971C17.9706 8.64573 17.6406 10.8219 15.3672 10.8221C13.7305 10.8221 13.6336 9.26237 13.5371 7.70686C13.4411 6.16025 13.3452 4.61817 11.7363 4.61799C9.16907 4.61799 5.1709 9.80667 5.1709 16.5555C5.17096 20.5467 7.07835 25.9167 12.3594 25.9168C19.3276 25.9168 21.9316 16.3741 21.9316 12.3465C20.4285 11.5123 20.3184 10.0978 20.3184 9.69807C20.3184 9.29895 20.6116 7.62971 22.1152 7.62971C23.0321 7.62975 24.3887 8.10122 24.3887 10.2781V11.076C24.7849 11.1607 25.4128 11.2642 26.1201 11.3807C27.8354 11.6631 30.0202 12.023 30.5137 12.3826C31.0636 12.7454 31.0635 13.3257 31.0635 13.616C31.0635 13.8321 30.9902 14.3747 30.8887 15.118C30.4275 18.4948 29.3989 26.0251 32.1641 26.0252C33.3743 26.0252 34.255 25.1179 34.8418 24.2108C34.3284 23.0497 34.0342 21.7075 34.0342 20.1112C34.0342 14.6686 37.5924 11.4393 40.8564 11.4393C42.7268 11.4394 45.2938 12.927 45.2939 15.9383C45.2939 18.5144 43.4969 22.506 38.876 23.8123C39.6095 25.0821 40.6732 26.0614 42.1768 26.0614C45.1472 26.0612 46.7978 23.4495 47.458 21.9256C47.4213 21.7079 47.4209 21.49 47.4209 21.2723C47.4209 16.5917 50.7951 11.4393 55.0127 11.4393C56.1129 11.4393 56.5166 11.7293 56.5166 11.7293C56.5184 11.717 56.5907 11.2214 56.6631 11.1492C57.2866 10.5324 60.2939 12.2738 60.2939 13.0721C60.2939 13.3526 60.2498 13.9045 60.1914 14.6287C59.9021 18.2147 59.2716 26.025 62.0176 26.0252C63.7413 26.0252 64.6587 23.4495 64.9521 22.1795C64.6587 20.4742 64.5117 18.4781 64.5117 16.1922C64.5117 13.6525 64.6579 11.0038 64.8779 8.6092C63.3379 9.00824 61.8345 9.33473 60.3311 9.33479C57.7273 9.33479 57.6167 7.01282 58.3867 7.01252C60.6238 7.01252 62.861 6.61392 65.1348 6.17854C65.5382 2.73156 65.9788 0.263953 66.0889 0.155101ZM55.0127 13.036C52.1521 13.0361 49.6217 25.3358 53.2158 25.3358C56.6265 25.3354 56.9198 13.036 55.0127 13.036ZM40.709 12.9998C38.8388 13.0005 37.7758 17.1727 37.8125 19.785C37.8125 20.4017 37.9221 21.1997 38.1787 22.034C41.5528 20.7641 42.7628 12.9998 40.709 12.9998ZM102.36 13.0721C100.49 13.0721 99.5 17.1726 99.5 19.785C99.5 20.2929 99.5735 20.9456 99.7568 21.5985C103.204 21.0899 104.341 13.0721 102.36 13.0721Z" fill="#2E3E5C"/>
</svg>
