<svg width="31" height="32" viewBox="0 0 31 32" fill="none" xmlns="http://www.w3.org/2000/svg">
<path d="M13.0506 3.5668L14.4418 3.12246C15.7438 2.70655 17.1362 3.3795 17.6942 4.69442L18.805 7.31392C19.2894 8.45446 19.0207 9.7965 18.1411 10.6309L15.696 12.9533C15.8471 14.3432 16.3134 15.711 17.0961 17.057C17.8399 18.3592 18.8374 19.499 20.0295 20.4088L22.9694 19.4272C24.0828 19.0565 25.2956 19.484 25.9789 20.4876L27.5703 22.8255C28.3659 23.9932 28.2226 25.6026 27.237 26.592L26.1804 27.6525C25.129 28.7078 23.6281 29.0914 22.2383 28.6574C18.9587 27.6344 15.944 24.5977 13.1927 19.5473C10.4376 14.4891 9.46627 10.1956 10.2761 6.67196C10.6171 5.18913 11.6737 4.00725 13.0532 3.5668" fill="black"/>
</svg>
