<svg width="152" height="26" viewBox="0 0 152 26" fill="none" xmlns="http://www.w3.org/2000/svg">
<path d="M16.0943 12.9711C16.0943 13.7428 15.8654 14.4971 15.4367 15.1387C15.008 15.7803 14.3986 16.2804 13.6857 16.5757C12.9728 16.871 12.1883 16.9483 11.4314 16.7978C10.6746 16.6472 9.9794 16.2756 9.43374 15.73C8.88809 15.1843 8.5165 14.4891 8.36595 13.7323C8.2154 12.9754 8.29267 12.1909 8.58798 11.478C8.88328 10.7651 9.38336 10.1557 10.025 9.72699C10.6666 9.29827 11.4209 9.06945 12.1926 9.06945C13.2264 9.07266 14.2169 9.48476 14.9479 10.2158C15.6789 10.9468 16.091 11.9373 16.0943 12.9711ZM24.3852 7.60633V18.3358C24.3852 20.1467 23.6659 21.8834 22.3854 23.1639C21.1049 24.4443 19.3682 25.1637 17.5574 25.1637H6.82787C5.017 25.1637 3.28031 24.4443 1.99984 23.1639C0.719362 21.8834 0 20.1467 0 18.3358V7.60633C0 5.79547 0.719362 4.05877 1.99984 2.7783C3.28031 1.49783 5.017 0.778464 6.82787 0.778464H17.5574C19.3682 0.778464 21.1049 1.49783 22.3854 2.7783C23.6659 4.05877 24.3852 5.79547 24.3852 7.60633ZM18.0451 12.9711C18.0451 11.8136 17.7018 10.6821 17.0588 9.71963C16.4157 8.7572 15.5017 8.00708 14.4323 7.56412C13.3629 7.12116 12.1861 7.00526 11.0509 7.23108C9.9156 7.4569 8.87279 8.01429 8.05431 8.83277C7.23583 9.65125 6.67843 10.6941 6.45262 11.8293C6.2268 12.9646 6.3427 14.1413 6.78565 15.2107C7.22861 16.2801 7.97874 17.1941 8.94117 17.8372C9.9036 18.4803 11.0351 18.8235 12.1926 18.8235C13.7448 18.8235 15.2334 18.2069 16.3309 17.1094C17.4285 16.0118 18.0451 14.5233 18.0451 12.9711ZM19.9959 6.63092C19.9959 6.34154 19.9101 6.05867 19.7493 5.81806C19.5885 5.57745 19.36 5.38992 19.0927 5.27918C18.8253 5.16844 18.5312 5.13947 18.2473 5.19592C17.9635 5.25237 17.7028 5.39172 17.4982 5.59634C17.2936 5.80096 17.1542 6.06167 17.0978 6.34548C17.0413 6.6293 17.0703 6.92348 17.181 7.19083C17.2918 7.45818 17.4793 7.68669 17.7199 7.84746C17.9605 8.00823 18.2434 8.09404 18.5328 8.09404C18.9208 8.09404 19.293 7.93989 19.5674 7.6655C19.8417 7.39111 19.9959 7.01896 19.9959 6.63092Z" fill="black"/>
<path d="M67.721 4.51973C66.7195 4.97492 65.6401 5.27405 64.5216 5.41711C65.6661 4.72782 66.5505 3.63536 66.9667 2.32181C65.8872 2.97208 64.6907 3.42727 63.4292 3.68738C62.4017 2.56891 60.9581 1.91864 59.3194 1.91864C56.2632 1.91864 53.7661 4.41569 53.7661 7.49798C53.7661 7.94017 53.8181 8.36935 53.9092 8.77252C49.2792 8.53842 45.1565 6.31448 42.4123 2.94607C41.9311 3.76541 41.658 4.72782 41.658 5.74224C41.658 7.68006 42.6334 9.39678 44.1421 10.3722C43.2187 10.3722 42.3603 10.1121 41.606 9.72192V9.76093C41.606 12.4661 43.5308 14.729 46.0799 15.2362C45.2615 15.4602 44.4023 15.4914 43.5698 15.3273C43.9231 16.436 44.6149 17.4061 45.548 18.1012C46.4811 18.7964 47.6086 19.1817 48.772 19.2029C46.7999 20.7641 44.3554 21.608 41.8401 21.5959C41.3979 21.5959 40.9557 21.5699 40.5135 21.5179C42.9846 23.1045 45.9238 24.0279 49.0711 24.0279C59.3194 24.0279 64.9508 15.5224 64.9508 8.14825C64.9508 7.90115 64.9508 7.66705 64.9378 7.41995C66.0303 6.63962 66.9667 5.65121 67.721 4.51973Z" fill="black"/>
<path d="M109.861 13.0055C109.861 5.82645 104.034 0 96.8555 0C89.6765 0 83.85 5.82645 83.85 13.0055C83.85 19.3001 88.3239 24.5413 94.2544 25.7508V16.9071H91.6533V13.0055H94.2544V9.7541C94.2544 7.24404 96.2962 5.20218 98.8063 5.20218H102.058V9.10382H99.4566C98.7413 9.10382 98.156 9.68907 98.156 10.4044V13.0055H102.058V16.9071H98.156V25.9459C104.724 25.2956 109.861 19.7553 109.861 13.0055Z" fill="black"/>
<path d="M136.394 16.8742L143.143 12.9726L136.394 9.07091V16.8742ZM151.428 6.69091C151.597 7.30217 151.714 8.12152 151.792 9.16195C151.883 10.2024 151.922 11.0998 151.922 11.8801L152 12.9726C152 15.8207 151.792 17.9146 151.428 19.2542C151.103 20.4247 150.349 21.179 149.178 21.5041C148.567 21.6732 147.448 21.7903 145.732 21.8683C144.041 21.9593 142.493 21.9983 141.063 21.9983L138.995 22.0764C133.545 22.0764 130.151 21.8683 128.811 21.5041C127.641 21.179 126.887 20.4247 126.562 19.2542C126.392 18.6429 126.275 17.8236 126.197 16.7832C126.106 15.7427 126.067 14.8453 126.067 14.065L125.989 12.9726C125.989 10.1244 126.197 8.03048 126.562 6.69091C126.887 5.52042 127.641 4.76611 128.811 4.44097C129.423 4.2719 130.541 4.15485 132.258 4.07682C133.949 3.98578 135.496 3.94676 136.927 3.94676L138.995 3.86873C144.444 3.86873 147.838 4.07682 149.178 4.44097C150.349 4.76611 151.103 5.52042 151.428 6.69091Z" fill="black"/>
</svg>
