<svg width="118" height="127" viewBox="0 0 118 127" fill="none" xmlns="http://www.w3.org/2000/svg">
<path fill-rule="evenodd" clip-rule="evenodd" d="M7.92025 2.69652V2.51495L32.4816 16.8363C35.073 18.3399 36.9553 19.4334 38.302 20.3893C39.6535 21.3486 40.3245 22.0755 40.6374 22.788C41.2643 24.2149 41.2532 25.8414 40.607 27.2596C40.2843 27.9678 39.6035 28.6854 38.2391 29.6262C36.8795 30.5637 34.9824 31.6314 32.3708 33.0996L9.72851 45.8288L9.72822 45.829C7.16825 47.2682 5.18501 48.3831 3.73686 49.3816C2.28467 50.3829 1.22751 51.3595 0.672597 52.5797C-0.211699 54.5243 -0.22413 56.7538 0.638417 58.7081C1.17967 59.9344 2.22587 60.9228 3.6668 61.9402C5.10372 62.9548 7.0744 64.0918 9.61814 65.5594L115.873 126.865C116.357 127.144 116.974 126.978 117.253 126.495C117.532 126.012 117.366 125.394 116.883 125.116L10.6754 63.8375C8.07398 62.3366 6.18407 61.245 4.83185 60.2902C3.47465 59.3319 2.80085 58.6052 2.48628 57.8925C1.85621 56.4649 1.8653 54.8363 2.51126 53.4159C2.83376 52.7067 3.51561 51.9876 4.88343 51.0445C6.24621 50.1049 8.14817 49.0344 10.7662 47.5626L33.4086 34.8333C35.9622 33.3977 37.9406 32.2855 39.3856 31.2891C40.8348 30.29 41.89 29.3152 42.445 28.0971C43.3297 26.1556 43.3448 23.929 42.4867 21.9756C41.9483 20.7501 40.9065 19.761 39.4712 18.7422C38.0399 17.7263 36.0769 16.5872 33.5432 15.117L8.203 0.343722L8.20269 0.343539C8.09119 0.278789 7.95526 0.199826 7.83207 0.142691C7.70501 0.0837574 7.43993 -0.0279168 7.10826 0.00642864C6.72826 0.0457807 6.38285 0.244697 6.15809 0.553627C5.96192 0.823253 5.92547 1.10858 5.91268 1.24806C5.90026 1.38347 5.90032 1.54096 5.9004 1.66996V3.86269L7.92025 2.69652Z" fill="url(#paint0_linear_1_17935)"/>
<defs>
<linearGradient id="paint0_linear_1_17935" x1="13.5707" y1="1.52563" x2="32.5761" y2="44.1515" gradientUnits="userSpaceOnUse">
<stop stop-color="#CFB651"/>
<stop offset="0.179349" stop-color="#FFED8D"/>
<stop offset="0.430977" stop-color="white" stop-opacity="0.52"/>
<stop offset="1" stop-color="#555581" stop-opacity="0"/>
</linearGradient>
</defs>
</svg>
