<svg width="126" height="136" viewBox="0 0 126 136" fill="none" xmlns="http://www.w3.org/2000/svg">
<path fill-rule="evenodd" clip-rule="evenodd" d="M2.02411 2.86761V2.50013L37.2261 22.2142C39.8693 23.6945 41.7899 24.7712 43.1657 25.7165C44.5468 26.6654 45.2343 27.3888 45.5582 28.1015C46.2073 29.5298 46.2139 31.1676 45.5764 32.6011C45.2583 33.3165 44.5767 34.0454 43.2033 35.0055C41.8353 35.9619 39.9235 37.0542 37.2923 38.5558L14.3476 51.6508L14.3475 51.6509C11.814 53.0967 9.85083 54.2172 8.41726 55.2193C6.97914 56.2247 5.93287 57.2035 5.38409 58.4225C4.50899 60.3664 4.50107 62.5905 5.36231 64.5406C5.90241 65.7635 6.94167 66.7497 8.37262 67.7653C9.79899 68.7776 11.7541 69.912 14.2771 71.3758L14.2774 71.376L124.48 135.315C124.963 135.595 125.583 135.431 125.863 134.947C126.144 134.463 125.979 133.844 125.496 133.564L15.3411 69.6526C12.7604 68.1552 10.886 67.0666 9.54432 66.1144C8.19817 65.159 7.52851 64.4343 7.21422 63.7227C6.5851 62.2982 6.59088 60.6735 7.23011 59.2536C7.54946 58.5442 8.22427 57.8243 9.57718 56.8786C10.9256 55.9359 12.8077 54.8606 15.399 53.3817L38.3439 40.2866C40.917 38.8181 42.91 37.6806 44.3632 36.6647C45.8201 35.6463 46.8784 34.6557 47.4262 33.4237C48.2989 31.4613 48.2898 29.2192 47.4013 27.2639C46.8434 26.0364 45.7772 25.0545 44.3121 24.0479C42.8507 23.0438 40.8486 21.9225 38.2636 20.4749L2.28719 0.327123L2.28694 0.326988C2.17601 0.264796 2.03991 0.188484 1.91658 0.13355C1.78852 0.0765101 1.52432 -0.029703 1.19591 0.00785918C0.818337 0.0510458 0.476454 0.251421 0.254289 0.559756C0.0610444 0.827933 0.0246212 1.11034 0.0118249 1.24994C-0.000520113 1.38444 -0.000443626 1.54057 -0.000374787 1.66776L-0.000367139 4.03644L2.02411 2.86761Z" fill="url(#paint0_linear_1_17936)"/>
<defs>
<linearGradient id="paint0_linear_1_17936" x1="14.5656" y1="1.62716" x2="29.6974" y2="54.3051" gradientUnits="userSpaceOnUse">
<stop stop-color="#D6BE59"/>
<stop offset="0.179349" stop-color="#FFED8D"/>
<stop offset="0.430977" stop-color="white" stop-opacity="0.52"/>
<stop offset="1" stop-color="#555581" stop-opacity="0"/>
</linearGradient>
</defs>
</svg>
