<svg width="126" height="124" viewBox="0 0 126 124" fill="none" xmlns="http://www.w3.org/2000/svg">
<path fill-rule="evenodd" clip-rule="evenodd" d="M17.0371 2.70257V2.58867L30.5573 11.2166C33.0303 12.7948 34.8253 13.9415 36.1051 14.9337C37.3882 15.9284 38.0204 16.6708 38.3072 17.3894C38.8804 18.8259 38.8229 20.4373 38.1486 21.8292C37.8113 22.5256 37.1277 23.221 35.7769 24.1216C34.4295 25.0199 32.5573 26.0356 29.978 27.4333L10.0665 38.223C7.42086 39.6566 5.37241 40.7666 3.87639 41.7641C2.37736 42.7636 1.28415 43.743 0.708009 44.9769C-0.208917 46.9406 -0.235972 49.204 0.633786 51.189C1.18028 52.4363 2.24979 53.4415 3.7245 54.4765C5.19633 55.5095 7.21778 56.6682 9.82856 58.1648L9.82872 58.1648L124.446 123.864C124.932 124.143 125.553 123.975 125.832 123.488C126.111 123.002 125.942 122.381 125.456 122.102L10.8866 56.4303C8.21771 54.9005 6.27768 53.7872 4.89122 52.8142C3.49862 51.8368 2.81075 51.0969 2.49399 50.374C1.85866 48.9239 1.87842 47.2706 2.54821 45.8361C2.88215 45.121 3.5875 44.3978 5.00307 43.4539C6.41237 42.5142 8.37844 41.4477 11.0832 39.982L30.9939 29.1927C33.5148 27.8267 35.4694 26.7675 36.9035 25.8114C38.3434 24.8514 39.3983 23.9079 39.9764 22.7146C40.8994 20.8091 40.9782 18.6032 40.1935 16.6367C39.7021 15.4052 38.7171 14.3888 37.3494 13.3286C35.9872 12.2725 34.1132 11.0766 31.6963 9.53428L31.6962 9.53424L17.3776 0.396717C17.2632 0.323593 17.1256 0.235698 17.001 0.171389C16.8755 0.106633 16.6052 -0.0221482 16.2605 0.00327893C15.8695 0.0321264 15.5101 0.229085 15.2754 0.54321C15.0686 0.820091 15.0317 1.11727 15.0188 1.25785C15.006 1.39746 15.0061 1.56074 15.0062 1.69658V3.87513L17.0371 2.70257Z" fill="url(#paint0_linear_1_17934)"/>
<defs>
<linearGradient id="paint0_linear_1_17934" x1="14.5624" y1="1.48957" x2="41.5097" y2="36.145" gradientUnits="userSpaceOnUse">
<stop stop-color="#B99C36"/>
<stop offset="0.179349" stop-color="#FFED8D"/>
<stop offset="0.430977" stop-color="#FEFEFE" stop-opacity="0.52"/>
<stop offset="1" stop-color="#555581" stop-opacity="0"/>
</linearGradient>
</defs>
</svg>
