<svg width="42" height="44" viewBox="0 0 42 44" fill="none" xmlns="http://www.w3.org/2000/svg">
<path d="M21 3.60547C11.3505 3.60547 3.5 11.6909 3.5 21.6291V29.0963C3.5 30.9419 5.06975 32.4433 7 32.4433H8.75C9.21413 32.4433 9.65925 32.2534 9.98744 31.9154C10.3156 31.5774 10.5 31.1189 10.5 30.6409V21.3714C10.5 20.8934 10.3156 20.4349 9.98744 20.0969C9.65925 19.7589 9.21413 19.569 8.75 19.569H7.161C8.134 12.5939 13.9615 7.2102 21 7.2102C28.0385 7.2102 33.866 12.5939 34.839 19.569H33.25C32.7859 19.569 32.3407 19.7589 32.0126 20.0969C31.6844 20.4349 31.5 20.8934 31.5 21.3714V32.4433C31.5 34.4313 29.9303 36.048 28 36.048H24.5V34.2457H17.5V39.6527H28C31.8605 39.6527 35 36.4193 35 32.4433C36.9302 32.4433 38.5 30.9419 38.5 29.0963V21.6291C38.5 11.6909 30.6495 3.60547 21 3.60547Z" fill="black"/>
</svg>
