<svg width="290" height="76" viewBox="0 0 290 76" fill="none" xmlns="http://www.w3.org/2000/svg">
<path d="M5.77744 0.359517L0.000392791 17.9299L18.1053 14.1478L5.77744 0.359517ZM289.616 34.4674C290.191 33.795 290.112 32.7839 289.44 32.2091C288.767 31.6342 287.756 31.7133 287.181 32.3856L288.399 33.4265L289.616 34.4674ZM8.72532 14.471L7.19805 14.9538C16.1616 43.3073 41.4857 64.5997 67.8753 72.104C81.0901 75.8619 94.6743 76.1931 106.686 72.132C118.731 68.0596 129.1 59.5988 135.847 45.9741L134.412 45.2633L132.976 44.5524C126.604 57.4193 116.897 65.2978 105.66 69.0972C94.3891 72.9078 81.4837 72.6432 68.7515 69.0226C43.2471 61.77 18.8472 41.1747 10.2526 13.9881L8.72532 14.471ZM134.412 45.2633L135.847 45.9741C140.319 36.9434 143.064 29.4365 144.497 23.2941C145.927 17.1648 146.069 12.3135 145.25 8.63774C144.425 4.94006 142.6 2.35184 140.083 1.01314C137.582 -0.316751 134.675 -0.265674 131.975 0.750017C126.6 2.77144 121.671 8.69801 120.736 16.8365C119.795 25.0375 122.895 35.3457 133.244 46.3601L134.412 45.2633L135.579 44.1665C125.694 33.6453 123.112 24.2316 123.919 17.202C124.733 10.11 128.985 5.29731 133.103 3.74852C135.148 2.9791 137.066 3.03732 138.578 3.84154C140.074 4.63694 141.449 6.30977 142.123 9.33482C142.802 12.3817 142.742 16.7149 141.377 22.5663C140.015 28.4047 137.373 35.6749 132.976 44.5524L134.412 45.2633ZM134.412 45.2633L133.244 46.3601C147.953 62.0144 175.345 72.697 204.79 72.6943C234.301 72.6917 266.111 61.9606 289.616 34.4674L288.399 33.4265L287.181 32.3856C264.385 59.0489 233.532 69.4882 204.79 69.4908C175.982 69.4934 149.531 59.0161 135.579 44.1665L134.412 45.2633Z" fill="url(#paint0_linear_1_6374)"/>
<defs>
<linearGradient id="paint0_linear_1_6374" x1="132.075" y1="43.3335" x2="288.98" y2="33.1286" gradientUnits="userSpaceOnUse">
<stop stop-color="white"/>
<stop offset="0.896395" stop-color="white" stop-opacity="0"/>
</linearGradient>
</defs>
</svg>
