<svg width="1439" height="147" viewBox="0 0 1439 147" fill="none" xmlns="http://www.w3.org/2000/svg">
<path d="M0 106.631L18.4484 89.2347C36.8976 71.8389 73.7952 37.0461 110.692 41.213C147.59 45.3792 184.487 88.5039 221.385 98.3021C258.282 108.1 295.179 84.5709 332.077 64.5632C368.975 44.5562 405.871 28.0698 442.769 27.7302C479.667 27.3907 516.564 43.1968 553.462 65.2229C590.359 87.2491 627.256 115.495 664.154 117.189C701.052 118.883 737.948 94.0254 774.846 79.3777C811.744 64.7295 848.641 60.2912 885.538 48.4968C922.436 36.7019 959.333 17.5507 996.231 7.74843C1033.13 -2.05389 1070.03 -2.50799 1106.92 6.11471C1143.82 14.7374 1180.72 32.4369 1217.62 56.4246C1254.51 80.4122 1291.41 110.688 1328.31 120.954C1365.2 131.22 1402.1 121.476 1420.55 116.604L1439 111.732V147H1420.55C1402.1 147 1365.2 147 1328.31 147C1291.41 147 1254.51 147 1217.62 147C1180.72 147 1143.82 147 1106.92 147C1070.03 147 1033.13 147 996.231 147C959.333 147 922.436 147 885.538 147C848.641 147 811.744 147 774.846 147C737.948 147 701.052 147 664.154 147C627.256 147 590.359 147 553.462 147C516.564 147 479.667 147 442.769 147C405.871 147 368.975 147 332.077 147C295.179 147 258.282 147 221.385 147C184.487 147 147.59 147 110.692 147C73.7952 147 36.8976 147 18.4484 147H0V106.631Z" fill="#112222"/>
</svg>
