<svg width="1439" height="46" viewBox="0 0 1439 46" fill="none" xmlns="http://www.w3.org/2000/svg">
<path d="M6 9.32866L18.4484 18.0762C36.8976 23.5198 73.7952 34.4073 110.692 33.1034C147.59 31.7997 184.487 18.3049 221.385 15.2388C258.282 12.1729 295.179 19.5356 332.077 25.7965C368.975 32.0572 405.871 37.2163 442.769 37.3225C479.667 37.4288 516.564 32.4826 553.462 25.5901C590.359 18.6976 627.256 9.85864 664.154 9.32866C701.052 8.79849 737.948 16.5771 774.846 21.1607C811.744 25.7445 848.641 27.1334 885.538 30.8241C922.436 34.5151 959.333 40.5079 996.231 43.5753C1033.13 46.6427 1070.03 46.7848 1106.92 44.0866C1143.82 41.3883 1180.72 35.8497 1217.62 28.3433C1254.51 20.837 1291.41 11.3629 1328.31 8.15049C1365.2 4.93805 1402.1 7.98706 1420.55 9.51175L1439 11.0363V0H1420.55C1402.1 0 1365.2 0 1328.31 0C1291.41 0 1254.51 0 1217.62 0C1180.72 0 1143.82 0 1106.92 0C1070.03 0 1033.13 0 996.231 0C959.333 0 922.436 0 885.538 0C848.641 0 811.744 0 774.846 0C737.948 0 701.052 0 664.154 0C627.256 0 590.359 0 553.462 0C516.564 0 479.667 0 442.769 0C405.871 0 368.975 0 332.077 0C295.179 0 258.282 0 221.385 0C184.487 0 147.59 0 110.692 0C73.7952 0 36.8976 0 18.4484 0H0L6 9.32866Z" fill="#112222"/>
</svg>
